%TF.GenerationSoftware,KiCad,Pcbnew,10.0.1*%
%TF.CreationDate,2026-08-07T21:40:12+02:00*%
%TF.ProjectId,ql-flex,716c2d66-6c65-4782-9e6b-696361645f70,3*%
%TF.SameCoordinates,Original*%
%TF.FileFunction,Soldermask,Bot*%
%TF.FilePolarity,Negative*%
%FSLAX46Y46*%
G04 Gerber Fmt 4.6, Leading zero omitted, Abs format (unit mm)*
G04 Created by KiCad (PCBNEW 10.0.1) date 2026-08-07 21:40:12*
%MOMM*%
%LPD*%
G01*
G04 APERTURE LIST*
G04 Aperture macros list*
%AMRoundRect*
0 Rectangle with rounded corners*
0 $1 Rounding radius*
0 $2 $3 $4 $5 $6 $7 $8 $9 X,Y pos of 4 corners*
0 Add a 4 corners polygon primitive as box body*
4,1,4,$2,$3,$4,$5,$6,$7,$8,$9,$2,$3,0*
0 Add four circle primitives for the rounded corners*
1,1,$1+$1,$2,$3*
1,1,$1+$1,$4,$5*
1,1,$1+$1,$6,$7*
1,1,$1+$1,$8,$9*
0 Add four rect primitives between the rounded corners*
20,1,$1+$1,$2,$3,$4,$5,0*
20,1,$1+$1,$4,$5,$6,$7,0*
20,1,$1+$1,$6,$7,$8,$9,0*
20,1,$1+$1,$8,$9,$2,$3,0*%
G04 Aperture macros list end*
%ADD10R,1.700000X1.700000*%
%ADD11O,1.700000X1.700000*%
%ADD12C,2.850000*%
%ADD13RoundRect,0.249999X0.525001X0.525001X-0.525001X0.525001X-0.525001X-0.525001X0.525001X-0.525001X0*%
%ADD14C,1.550000*%
%ADD15RoundRect,0.249999X-0.525001X-0.525001X0.525001X-0.525001X0.525001X0.525001X-0.525001X0.525001X0*%
G04 APERTURE END LIST*
D10*
%TO.C,JP1*%
X180170000Y-69395000D03*
D11*
X180170000Y-71935000D03*
%TD*%
D12*
%TO.C,J1*%
X97250000Y-55245000D03*
X186150000Y-55245000D03*
D13*
X181070000Y-57785000D03*
D14*
X178530000Y-57785000D03*
X175990000Y-57785000D03*
X173450000Y-57785000D03*
X170910000Y-57785000D03*
X168370000Y-57785000D03*
X165830000Y-57785000D03*
X163290000Y-57785000D03*
X160750000Y-57785000D03*
X158210000Y-57785000D03*
X155670000Y-57785000D03*
X153130000Y-57785000D03*
X150590000Y-57785000D03*
X148050000Y-57785000D03*
X145510000Y-57785000D03*
X142970000Y-57785000D03*
X140430000Y-57785000D03*
X137890000Y-57785000D03*
X135350000Y-57785000D03*
X132810000Y-57785000D03*
X130270000Y-57785000D03*
X127730000Y-57785000D03*
X125190000Y-57785000D03*
X122650000Y-57785000D03*
X120110000Y-57785000D03*
X117570000Y-57785000D03*
X115030000Y-57785000D03*
X112490000Y-57785000D03*
X109950000Y-57785000D03*
X107410000Y-57785000D03*
X104870000Y-57785000D03*
X102330000Y-57785000D03*
X181070000Y-60325000D03*
X178530000Y-60325000D03*
X175990000Y-60325000D03*
X173450000Y-60325000D03*
X170910000Y-60325000D03*
X168370000Y-60325000D03*
X165830000Y-60325000D03*
X163290000Y-60325000D03*
X160750000Y-60325000D03*
X158210000Y-60325000D03*
X155670000Y-60325000D03*
X153130000Y-60325000D03*
X150590000Y-60325000D03*
X148050000Y-60325000D03*
X145510000Y-60325000D03*
X142970000Y-60325000D03*
X140430000Y-60325000D03*
X137890000Y-60325000D03*
X135350000Y-60325000D03*
X132810000Y-60325000D03*
X130270000Y-60325000D03*
X127730000Y-60325000D03*
X125190000Y-60325000D03*
X122650000Y-60325000D03*
X120110000Y-60325000D03*
X117570000Y-60325000D03*
X115030000Y-60325000D03*
X112490000Y-60325000D03*
X109950000Y-60325000D03*
X107410000Y-60325000D03*
X104870000Y-60325000D03*
X102330000Y-60325000D03*
%TD*%
D12*
%TO.C,J2*%
X186150000Y-85725000D03*
X97250000Y-85725000D03*
D15*
X181060000Y-83185000D03*
D14*
X178520000Y-83185000D03*
X175980000Y-83185000D03*
X173440000Y-83185000D03*
X170900000Y-83185000D03*
X168360000Y-83185000D03*
X165820000Y-83185000D03*
X163280000Y-83185000D03*
X160740000Y-83185000D03*
X158200000Y-83185000D03*
X155660000Y-83185000D03*
X153120000Y-83185000D03*
X150580000Y-83185000D03*
X148040000Y-83185000D03*
X145500000Y-83185000D03*
X142960000Y-83185000D03*
X140420000Y-83185000D03*
X137880000Y-83185000D03*
X135340000Y-83185000D03*
X132800000Y-83185000D03*
X130260000Y-83185000D03*
X127720000Y-83185000D03*
X125180000Y-83185000D03*
X122640000Y-83185000D03*
X120100000Y-83185000D03*
X117560000Y-83185000D03*
X115020000Y-83185000D03*
X112480000Y-83185000D03*
X109940000Y-83185000D03*
X107400000Y-83185000D03*
X104860000Y-83185000D03*
X102320000Y-83185000D03*
X181060000Y-80645000D03*
X178520000Y-80645000D03*
X175980000Y-80645000D03*
X173440000Y-80645000D03*
X170900000Y-80645000D03*
X168360000Y-80645000D03*
X165820000Y-80645000D03*
X163280000Y-80645000D03*
X160740000Y-80645000D03*
X158200000Y-80645000D03*
X155660000Y-80645000D03*
X153120000Y-80645000D03*
X150580000Y-80645000D03*
X148040000Y-80645000D03*
X145500000Y-80645000D03*
X142960000Y-80645000D03*
X140420000Y-80645000D03*
X137880000Y-80645000D03*
X135340000Y-80645000D03*
X132800000Y-80645000D03*
X130260000Y-80645000D03*
X127720000Y-80645000D03*
X125180000Y-80645000D03*
X122640000Y-80645000D03*
X120100000Y-80645000D03*
X117560000Y-80645000D03*
X115020000Y-80645000D03*
X112480000Y-80645000D03*
X109940000Y-80645000D03*
X107400000Y-80645000D03*
X104860000Y-80645000D03*
X102320000Y-80645000D03*
%TD*%
D10*
%TO.C,JP3*%
X114495000Y-76885000D03*
D11*
X111955000Y-76885000D03*
X109415000Y-76885000D03*
%TD*%
D10*
%TO.C,JP2*%
X184820000Y-69395000D03*
D11*
X184820000Y-71935000D03*
%TD*%
M02*
