%TF.GenerationSoftware,KiCad,Pcbnew,10.0.1*%
%TF.CreationDate,2026-08-07T21:40:12+02:00*%
%TF.ProjectId,ql-flex,716c2d66-6c65-4782-9e6b-696361645f70,3*%
%TF.SameCoordinates,Original*%
%TF.FileFunction,Paste,Top*%
%TF.FilePolarity,Positive*%
%FSLAX46Y46*%
G04 Gerber Fmt 4.6, Leading zero omitted, Abs format (unit mm)*
G04 Created by KiCad (PCBNEW 10.0.1) date 2026-08-07 21:40:12*
%MOMM*%
%LPD*%
G01*
G04 APERTURE LIST*
G04 Aperture macros list*
%AMRoundRect*
0 Rectangle with rounded corners*
0 $1 Rounding radius*
0 $2 $3 $4 $5 $6 $7 $8 $9 X,Y pos of 4 corners*
0 Add a 4 corners polygon primitive as box body*
4,1,4,$2,$3,$4,$5,$6,$7,$8,$9,$2,$3,0*
0 Add four circle primitives for the rounded corners*
1,1,$1+$1,$2,$3*
1,1,$1+$1,$4,$5*
1,1,$1+$1,$6,$7*
1,1,$1+$1,$8,$9*
0 Add four rect primitives between the rounded corners*
20,1,$1+$1,$2,$3,$4,$5,0*
20,1,$1+$1,$4,$5,$6,$7,0*
20,1,$1+$1,$6,$7,$8,$9,0*
20,1,$1+$1,$8,$9,$2,$3,0*%
G04 Aperture macros list end*
%ADD10R,2.000000X1.500000*%
%ADD11R,2.000000X3.800000*%
%ADD12RoundRect,0.250000X-0.550000X1.500000X-0.550000X-1.500000X0.550000X-1.500000X0.550000X1.500000X0*%
%ADD13RoundRect,0.250000X-0.475000X0.337500X-0.475000X-0.337500X0.475000X-0.337500X0.475000X0.337500X0*%
%ADD14RoundRect,0.250000X-0.450000X0.350000X-0.450000X-0.350000X0.450000X-0.350000X0.450000X0.350000X0*%
%ADD15RoundRect,0.250000X0.450000X-0.350000X0.450000X0.350000X-0.450000X0.350000X-0.450000X-0.350000X0*%
%ADD16R,1.925000X0.700000*%
%ADD17R,0.700000X1.925000*%
%ADD18RoundRect,0.150000X0.150000X-0.875000X0.150000X0.875000X-0.150000X0.875000X-0.150000X-0.875000X0*%
G04 APERTURE END LIST*
D10*
%TO.C,U3*%
X105530000Y-66280000D03*
X105530000Y-68580000D03*
D11*
X111830000Y-68580000D03*
D10*
X105530000Y-70880000D03*
%TD*%
D12*
%TO.C,C1*%
X98520000Y-65780000D03*
X98520000Y-71380000D03*
%TD*%
D13*
%TO.C,C4*%
X150720000Y-69697500D03*
X150720000Y-71772500D03*
%TD*%
D12*
%TO.C,C2*%
X118205000Y-65780000D03*
X118205000Y-71380000D03*
%TD*%
D13*
%TO.C,C3*%
X123270000Y-63685000D03*
X123270000Y-65760000D03*
%TD*%
D14*
%TO.C,R2*%
X188220000Y-69670000D03*
X188220000Y-71670000D03*
%TD*%
D15*
%TO.C,R3*%
X188270000Y-64535000D03*
X188270000Y-62535000D03*
%TD*%
D16*
%TO.C,U2*%
X156467500Y-70485000D03*
X156467500Y-71755000D03*
X156467500Y-73025000D03*
D17*
X157980000Y-74537500D03*
X159250000Y-74537500D03*
X160520000Y-74537500D03*
X161790000Y-74537500D03*
X163060000Y-74537500D03*
D16*
X164572500Y-73025000D03*
X164572500Y-71755000D03*
X164572500Y-70485000D03*
X164572500Y-69215000D03*
X164572500Y-67945000D03*
D17*
X163060000Y-66432500D03*
X161790000Y-66432500D03*
X160520000Y-66432500D03*
X159250000Y-66432500D03*
X157980000Y-66432500D03*
D16*
X156467500Y-67945000D03*
X156467500Y-69215000D03*
%TD*%
D14*
%TO.C,R1*%
X188220000Y-76635000D03*
X188220000Y-78635000D03*
%TD*%
D18*
%TO.C,U1*%
X126395000Y-77185000D03*
X127665000Y-77185000D03*
X128935000Y-77185000D03*
X130205000Y-77185000D03*
X131475000Y-77185000D03*
X132745000Y-77185000D03*
X134015000Y-77185000D03*
X135285000Y-77185000D03*
X136555000Y-77185000D03*
X137825000Y-77185000D03*
X139095000Y-77185000D03*
X140365000Y-77185000D03*
X141635000Y-77185000D03*
X142905000Y-77185000D03*
X144175000Y-77185000D03*
X145445000Y-77185000D03*
X145445000Y-64085000D03*
X144175000Y-64085000D03*
X142905000Y-64085000D03*
X141635000Y-64085000D03*
X140365000Y-64085000D03*
X139095000Y-64085000D03*
X137825000Y-64085000D03*
X136555000Y-64085000D03*
X135285000Y-64085000D03*
X134015000Y-64085000D03*
X132745000Y-64085000D03*
X131475000Y-64085000D03*
X130205000Y-64085000D03*
X128935000Y-64085000D03*
X127665000Y-64085000D03*
X126395000Y-64085000D03*
%TD*%
M02*
