%TF.GenerationSoftware,KiCad,Pcbnew,8.0.1*%
%TF.CreationDate,2025-01-20T18:27:25+01:00*%
%TF.ProjectId,qlexternal512kram_MIX,716c6578-7465-4726-9e61-6c3531326b72,3*%
%TF.SameCoordinates,Original*%
%TF.FileFunction,Soldermask,Top*%
%TF.FilePolarity,Negative*%
%FSLAX46Y46*%
G04 Gerber Fmt 4.6, Leading zero omitted, Abs format (unit mm)*
G04 Created by KiCad (PCBNEW 8.0.1) date 2025-01-20 18:27:25*
%MOMM*%
%LPD*%
G01*
G04 APERTURE LIST*
G04 Aperture macros list*
%AMRoundRect*
0 Rectangle with rounded corners*
0 $1 Rounding radius*
0 $2 $3 $4 $5 $6 $7 $8 $9 X,Y pos of 4 corners*
0 Add a 4 corners polygon primitive as box body*
4,1,4,$2,$3,$4,$5,$6,$7,$8,$9,$2,$3,0*
0 Add four circle primitives for the rounded corners*
1,1,$1+$1,$2,$3*
1,1,$1+$1,$4,$5*
1,1,$1+$1,$6,$7*
1,1,$1+$1,$8,$9*
0 Add four rect primitives between the rounded corners*
20,1,$1+$1,$2,$3,$4,$5,0*
20,1,$1+$1,$4,$5,$6,$7,0*
20,1,$1+$1,$6,$7,$8,$9,0*
20,1,$1+$1,$8,$9,$2,$3,0*%
G04 Aperture macros list end*
%ADD10R,2.000000X1.500000*%
%ADD11R,2.000000X3.800000*%
%ADD12RoundRect,0.250000X-0.550000X1.500000X-0.550000X-1.500000X0.550000X-1.500000X0.550000X1.500000X0*%
%ADD13RoundRect,0.250000X-0.475000X0.337500X-0.475000X-0.337500X0.475000X-0.337500X0.475000X0.337500X0*%
%ADD14R,1.700000X1.700000*%
%ADD15O,1.700000X1.700000*%
%ADD16C,2.850000*%
%ADD17RoundRect,0.249999X0.525001X0.525001X-0.525001X0.525001X-0.525001X-0.525001X0.525001X-0.525001X0*%
%ADD18C,1.550000*%
%ADD19RoundRect,0.250000X-0.450000X0.350000X-0.450000X-0.350000X0.450000X-0.350000X0.450000X0.350000X0*%
%ADD20RoundRect,0.249999X-0.525001X-0.525001X0.525001X-0.525001X0.525001X0.525001X-0.525001X0.525001X0*%
%ADD21RoundRect,0.250000X0.450000X-0.350000X0.450000X0.350000X-0.450000X0.350000X-0.450000X-0.350000X0*%
%ADD22R,1.925000X0.700000*%
%ADD23R,0.700000X1.925000*%
%ADD24RoundRect,0.150000X0.150000X-0.875000X0.150000X0.875000X-0.150000X0.875000X-0.150000X-0.875000X0*%
G04 APERTURE END LIST*
D10*
%TO.C,U3*%
X105530000Y-66280000D03*
X105530000Y-68580000D03*
D11*
X111830000Y-68580000D03*
D10*
X105530000Y-70880000D03*
%TD*%
D12*
%TO.C,C1*%
X98520000Y-65780000D03*
X98520000Y-71380000D03*
%TD*%
D13*
%TO.C,C4*%
X150720000Y-69697500D03*
X150720000Y-71772500D03*
%TD*%
D12*
%TO.C,C2*%
X118205000Y-65780000D03*
X118205000Y-71380000D03*
%TD*%
D13*
%TO.C,C3*%
X123270000Y-63685000D03*
X123270000Y-65760000D03*
%TD*%
D14*
%TO.C,JP1*%
X180170000Y-69395000D03*
D15*
X180170000Y-71935000D03*
%TD*%
D16*
%TO.C,J1*%
X97250000Y-55245000D03*
X186150000Y-55245000D03*
D17*
X181070000Y-57785000D03*
D18*
X178530000Y-57785000D03*
X175990000Y-57785000D03*
X173450000Y-57785000D03*
X170910000Y-57785000D03*
X168370000Y-57785000D03*
X165830000Y-57785000D03*
X163290000Y-57785000D03*
X160750000Y-57785000D03*
X158210000Y-57785000D03*
X155670000Y-57785000D03*
X153130000Y-57785000D03*
X150590000Y-57785000D03*
X148050000Y-57785000D03*
X145510000Y-57785000D03*
X142970000Y-57785000D03*
X140430000Y-57785000D03*
X137890000Y-57785000D03*
X135350000Y-57785000D03*
X132810000Y-57785000D03*
X130270000Y-57785000D03*
X127730000Y-57785000D03*
X125190000Y-57785000D03*
X122650000Y-57785000D03*
X120110000Y-57785000D03*
X117570000Y-57785000D03*
X115030000Y-57785000D03*
X112490000Y-57785000D03*
X109950000Y-57785000D03*
X107410000Y-57785000D03*
X104870000Y-57785000D03*
X102330000Y-57785000D03*
X181070000Y-60325000D03*
X178530000Y-60325000D03*
X175990000Y-60325000D03*
X173450000Y-60325000D03*
X170910000Y-60325000D03*
X168370000Y-60325000D03*
X165830000Y-60325000D03*
X163290000Y-60325000D03*
X160750000Y-60325000D03*
X158210000Y-60325000D03*
X155670000Y-60325000D03*
X153130000Y-60325000D03*
X150590000Y-60325000D03*
X148050000Y-60325000D03*
X145510000Y-60325000D03*
X142970000Y-60325000D03*
X140430000Y-60325000D03*
X137890000Y-60325000D03*
X135350000Y-60325000D03*
X132810000Y-60325000D03*
X130270000Y-60325000D03*
X127730000Y-60325000D03*
X125190000Y-60325000D03*
X122650000Y-60325000D03*
X120110000Y-60325000D03*
X117570000Y-60325000D03*
X115030000Y-60325000D03*
X112490000Y-60325000D03*
X109950000Y-60325000D03*
X107410000Y-60325000D03*
X104870000Y-60325000D03*
X102330000Y-60325000D03*
%TD*%
D19*
%TO.C,R2*%
X188220000Y-69670000D03*
X188220000Y-71670000D03*
%TD*%
D16*
%TO.C,J2*%
X186150000Y-85725000D03*
X97250000Y-85725000D03*
D20*
X181060000Y-83185000D03*
D18*
X178520000Y-83185000D03*
X175980000Y-83185000D03*
X173440000Y-83185000D03*
X170900000Y-83185000D03*
X168360000Y-83185000D03*
X165820000Y-83185000D03*
X163280000Y-83185000D03*
X160740000Y-83185000D03*
X158200000Y-83185000D03*
X155660000Y-83185000D03*
X153120000Y-83185000D03*
X150580000Y-83185000D03*
X148040000Y-83185000D03*
X145500000Y-83185000D03*
X142960000Y-83185000D03*
X140420000Y-83185000D03*
X137880000Y-83185000D03*
X135340000Y-83185000D03*
X132800000Y-83185000D03*
X130260000Y-83185000D03*
X127720000Y-83185000D03*
X125180000Y-83185000D03*
X122640000Y-83185000D03*
X120100000Y-83185000D03*
X117560000Y-83185000D03*
X115020000Y-83185000D03*
X112480000Y-83185000D03*
X109940000Y-83185000D03*
X107400000Y-83185000D03*
X104860000Y-83185000D03*
X102320000Y-83185000D03*
X181060000Y-80645000D03*
X178520000Y-80645000D03*
X175980000Y-80645000D03*
X173440000Y-80645000D03*
X170900000Y-80645000D03*
X168360000Y-80645000D03*
X165820000Y-80645000D03*
X163280000Y-80645000D03*
X160740000Y-80645000D03*
X158200000Y-80645000D03*
X155660000Y-80645000D03*
X153120000Y-80645000D03*
X150580000Y-80645000D03*
X148040000Y-80645000D03*
X145500000Y-80645000D03*
X142960000Y-80645000D03*
X140420000Y-80645000D03*
X137880000Y-80645000D03*
X135340000Y-80645000D03*
X132800000Y-80645000D03*
X130260000Y-80645000D03*
X127720000Y-80645000D03*
X125180000Y-80645000D03*
X122640000Y-80645000D03*
X120100000Y-80645000D03*
X117560000Y-80645000D03*
X115020000Y-80645000D03*
X112480000Y-80645000D03*
X109940000Y-80645000D03*
X107400000Y-80645000D03*
X104860000Y-80645000D03*
X102320000Y-80645000D03*
%TD*%
D21*
%TO.C,R3*%
X188270000Y-64535000D03*
X188270000Y-62535000D03*
%TD*%
D22*
%TO.C,U2*%
X156467500Y-70485000D03*
X156467500Y-71755000D03*
X156467500Y-73025000D03*
D23*
X157980000Y-74537500D03*
X159250000Y-74537500D03*
X160520000Y-74537500D03*
X161790000Y-74537500D03*
X163060000Y-74537500D03*
D22*
X164572500Y-73025000D03*
X164572500Y-71755000D03*
X164572500Y-70485000D03*
X164572500Y-69215000D03*
X164572500Y-67945000D03*
D23*
X163060000Y-66432500D03*
X161790000Y-66432500D03*
X160520000Y-66432500D03*
X159250000Y-66432500D03*
X157980000Y-66432500D03*
D22*
X156467500Y-67945000D03*
X156467500Y-69215000D03*
%TD*%
D19*
%TO.C,R1*%
X188220000Y-76635000D03*
X188220000Y-78635000D03*
%TD*%
D14*
%TO.C,JP3*%
X114495000Y-76885000D03*
D15*
X111955000Y-76885000D03*
X109415000Y-76885000D03*
%TD*%
D14*
%TO.C,JP2*%
X184820000Y-69395000D03*
D15*
X184820000Y-71935000D03*
%TD*%
D24*
%TO.C,U1*%
X126395000Y-77185000D03*
X127665000Y-77185000D03*
X128935000Y-77185000D03*
X130205000Y-77185000D03*
X131475000Y-77185000D03*
X132745000Y-77185000D03*
X134015000Y-77185000D03*
X135285000Y-77185000D03*
X136555000Y-77185000D03*
X137825000Y-77185000D03*
X139095000Y-77185000D03*
X140365000Y-77185000D03*
X141635000Y-77185000D03*
X142905000Y-77185000D03*
X144175000Y-77185000D03*
X145445000Y-77185000D03*
X145445000Y-64085000D03*
X144175000Y-64085000D03*
X142905000Y-64085000D03*
X141635000Y-64085000D03*
X140365000Y-64085000D03*
X139095000Y-64085000D03*
X137825000Y-64085000D03*
X136555000Y-64085000D03*
X135285000Y-64085000D03*
X134015000Y-64085000D03*
X132745000Y-64085000D03*
X131475000Y-64085000D03*
X130205000Y-64085000D03*
X128935000Y-64085000D03*
X127665000Y-64085000D03*
X126395000Y-64085000D03*
%TD*%
M02*
