%TF.GenerationSoftware,KiCad,Pcbnew,8.0.1*%
%TF.CreationDate,2025-01-20T18:27:25+01:00*%
%TF.ProjectId,qlexternal512kram_MIX,716c6578-7465-4726-9e61-6c3531326b72,3*%
%TF.SameCoordinates,Original*%
%TF.FileFunction,Legend,Top*%
%TF.FilePolarity,Positive*%
%FSLAX46Y46*%
G04 Gerber Fmt 4.6, Leading zero omitted, Abs format (unit mm)*
G04 Created by KiCad (PCBNEW 8.0.1) date 2025-01-20 18:27:25*
%MOMM*%
%LPD*%
G01*
G04 APERTURE LIST*
%ADD10C,0.150000*%
%ADD11C,0.250000*%
%ADD12C,0.120000*%
%ADD13C,0.100000*%
G04 APERTURE END LIST*
D10*
X101470000Y-74835000D02*
X102820000Y-74835000D01*
X102820000Y-76185000D01*
X101470000Y-76185000D01*
X101470000Y-74835000D01*
G36*
X101470000Y-74835000D02*
G01*
X102820000Y-74835000D01*
X102820000Y-76185000D01*
X101470000Y-76185000D01*
X101470000Y-74835000D01*
G37*
X171990711Y-71718334D02*
G75*
G02*
X171849289Y-71718334I-70711J0D01*
G01*
X171849289Y-71718334D02*
G75*
G02*
X171990711Y-71718334I70711J0D01*
G01*
X102190711Y-78135000D02*
G75*
G02*
X102049289Y-78135000I-70711J0D01*
G01*
X102049289Y-78135000D02*
G75*
G02*
X102190711Y-78135000I70711J0D01*
G01*
X171270000Y-64918334D02*
X172570000Y-64918334D01*
X172570000Y-67568334D01*
X171270000Y-67568334D01*
X171270000Y-64918334D01*
X102820000Y-74835000D02*
X104170000Y-74835000D01*
X104170000Y-76185000D01*
X102820000Y-76185000D01*
X102820000Y-74835000D01*
G36*
X102820000Y-74835000D02*
G01*
X104170000Y-74835000D01*
X104170000Y-76185000D01*
X102820000Y-76185000D01*
X102820000Y-74835000D01*
G37*
X169870000Y-64918334D02*
X171170000Y-64918334D01*
X171170000Y-67568334D01*
X169870000Y-67568334D01*
X169870000Y-64918334D01*
X171990711Y-72868334D02*
G75*
G02*
X171849289Y-72868334I-70711J0D01*
G01*
X171849289Y-72868334D02*
G75*
G02*
X171990711Y-72868334I70711J0D01*
G01*
X170590711Y-69818334D02*
G75*
G02*
X170449289Y-69818334I-70711J0D01*
G01*
X170449289Y-69818334D02*
G75*
G02*
X170590711Y-69818334I70711J0D01*
G01*
X171270000Y-67918334D02*
X172570000Y-67918334D01*
X172570000Y-70568334D01*
X171270000Y-70568334D01*
X171270000Y-67918334D01*
G36*
X171270000Y-67918334D02*
G01*
X172570000Y-67918334D01*
X172570000Y-70568334D01*
X171270000Y-70568334D01*
X171270000Y-67918334D01*
G37*
X171990711Y-66818334D02*
G75*
G02*
X171849289Y-66818334I-70711J0D01*
G01*
X171849289Y-66818334D02*
G75*
G02*
X171990711Y-66818334I70711J0D01*
G01*
X169870000Y-70968334D02*
X171170000Y-70968334D01*
X171170000Y-73618334D01*
X169870000Y-73618334D01*
X169870000Y-70968334D01*
G36*
X169870000Y-70968334D02*
G01*
X171170000Y-70968334D01*
X171170000Y-73618334D01*
X169870000Y-73618334D01*
X169870000Y-70968334D01*
G37*
X170590711Y-68668334D02*
G75*
G02*
X170449289Y-68668334I-70711J0D01*
G01*
X170449289Y-68668334D02*
G75*
G02*
X170590711Y-68668334I70711J0D01*
G01*
X104170000Y-77460000D02*
X105520000Y-77460000D01*
X105520000Y-78810000D01*
X104170000Y-78810000D01*
X104170000Y-77460000D01*
G36*
X104170000Y-77460000D02*
G01*
X105520000Y-77460000D01*
X105520000Y-78810000D01*
X104170000Y-78810000D01*
X104170000Y-77460000D01*
G37*
X102820000Y-77460000D02*
X104170000Y-77460000D01*
X104170000Y-78810000D01*
X102820000Y-78810000D01*
X102820000Y-77460000D01*
G36*
X102820000Y-77460000D02*
G01*
X104170000Y-77460000D01*
X104170000Y-78810000D01*
X102820000Y-78810000D01*
X102820000Y-77460000D01*
G37*
X171990711Y-65668334D02*
G75*
G02*
X171849289Y-65668334I-70711J0D01*
G01*
X171849289Y-65668334D02*
G75*
G02*
X171990711Y-65668334I70711J0D01*
G01*
X169870000Y-67918334D02*
X171170000Y-67918334D01*
X171170000Y-70568334D01*
X169870000Y-70568334D01*
X169870000Y-67918334D01*
X171270000Y-74043334D02*
X172570000Y-74043334D01*
X172570000Y-76693334D01*
X171270000Y-76693334D01*
X171270000Y-74043334D01*
G36*
X171270000Y-74043334D02*
G01*
X172570000Y-74043334D01*
X172570000Y-76693334D01*
X171270000Y-76693334D01*
X171270000Y-74043334D01*
G37*
X171270000Y-70968334D02*
X172570000Y-70968334D01*
X172570000Y-73618334D01*
X171270000Y-73618334D01*
X171270000Y-70968334D01*
X170590711Y-65668334D02*
G75*
G02*
X170449289Y-65668334I-70711J0D01*
G01*
X170449289Y-65668334D02*
G75*
G02*
X170590711Y-65668334I70711J0D01*
G01*
X170590711Y-66818334D02*
G75*
G02*
X170449289Y-66818334I-70711J0D01*
G01*
X170449289Y-66818334D02*
G75*
G02*
X170590711Y-66818334I70711J0D01*
G01*
X169870000Y-74043334D02*
X171170000Y-74043334D01*
X171170000Y-76693334D01*
X169870000Y-76693334D01*
X169870000Y-74043334D01*
G36*
X169870000Y-74043334D02*
G01*
X171170000Y-74043334D01*
X171170000Y-76693334D01*
X169870000Y-76693334D01*
X169870000Y-74043334D01*
G37*
X104170000Y-74835000D02*
X105520000Y-74835000D01*
X105520000Y-76185000D01*
X104170000Y-76185000D01*
X104170000Y-74835000D01*
X104940711Y-75535000D02*
G75*
G02*
X104799289Y-75535000I-70711J0D01*
G01*
X104799289Y-75535000D02*
G75*
G02*
X104940711Y-75535000I70711J0D01*
G01*
X101470000Y-77460000D02*
X102820000Y-77460000D01*
X102820000Y-78810000D01*
X101470000Y-78810000D01*
X101470000Y-77460000D01*
D11*
X174098758Y-65593810D02*
X173622568Y-65593810D01*
X173622568Y-65593810D02*
X173574949Y-66165239D01*
X173574949Y-66165239D02*
X173622568Y-66108096D01*
X173622568Y-66108096D02*
X173717806Y-66050953D01*
X173717806Y-66050953D02*
X173955901Y-66050953D01*
X173955901Y-66050953D02*
X174051139Y-66108096D01*
X174051139Y-66108096D02*
X174098758Y-66165239D01*
X174098758Y-66165239D02*
X174146377Y-66279525D01*
X174146377Y-66279525D02*
X174146377Y-66565239D01*
X174146377Y-66565239D02*
X174098758Y-66679525D01*
X174098758Y-66679525D02*
X174051139Y-66736668D01*
X174051139Y-66736668D02*
X173955901Y-66793810D01*
X173955901Y-66793810D02*
X173717806Y-66793810D01*
X173717806Y-66793810D02*
X173622568Y-66736668D01*
X173622568Y-66736668D02*
X173574949Y-66679525D01*
X175098758Y-66793810D02*
X174527330Y-66793810D01*
X174813044Y-66793810D02*
X174813044Y-65593810D01*
X174813044Y-65593810D02*
X174717806Y-65765239D01*
X174717806Y-65765239D02*
X174622568Y-65879525D01*
X174622568Y-65879525D02*
X174527330Y-65936668D01*
X175479711Y-65708096D02*
X175527330Y-65650953D01*
X175527330Y-65650953D02*
X175622568Y-65593810D01*
X175622568Y-65593810D02*
X175860663Y-65593810D01*
X175860663Y-65593810D02*
X175955901Y-65650953D01*
X175955901Y-65650953D02*
X176003520Y-65708096D01*
X176003520Y-65708096D02*
X176051139Y-65822382D01*
X176051139Y-65822382D02*
X176051139Y-65936668D01*
X176051139Y-65936668D02*
X176003520Y-66108096D01*
X176003520Y-66108096D02*
X175432092Y-66793810D01*
X175432092Y-66793810D02*
X176051139Y-66793810D01*
X176479711Y-66793810D02*
X176479711Y-65593810D01*
X176574949Y-66336668D02*
X176860663Y-66793810D01*
X176860663Y-65993810D02*
X176479711Y-66450953D01*
X177622568Y-66165239D02*
X177765425Y-66222382D01*
X177765425Y-66222382D02*
X177813044Y-66279525D01*
X177813044Y-66279525D02*
X177860663Y-66393810D01*
X177860663Y-66393810D02*
X177860663Y-66565239D01*
X177860663Y-66565239D02*
X177813044Y-66679525D01*
X177813044Y-66679525D02*
X177765425Y-66736668D01*
X177765425Y-66736668D02*
X177670187Y-66793810D01*
X177670187Y-66793810D02*
X177289235Y-66793810D01*
X177289235Y-66793810D02*
X177289235Y-65593810D01*
X177289235Y-65593810D02*
X177622568Y-65593810D01*
X177622568Y-65593810D02*
X177717806Y-65650953D01*
X177717806Y-65650953D02*
X177765425Y-65708096D01*
X177765425Y-65708096D02*
X177813044Y-65822382D01*
X177813044Y-65822382D02*
X177813044Y-65936668D01*
X177813044Y-65936668D02*
X177765425Y-66050953D01*
X177765425Y-66050953D02*
X177717806Y-66108096D01*
X177717806Y-66108096D02*
X177622568Y-66165239D01*
X177622568Y-66165239D02*
X177289235Y-66165239D01*
D10*
X137715951Y-85814819D02*
X137715951Y-86529104D01*
X137715951Y-86529104D02*
X137668332Y-86671961D01*
X137668332Y-86671961D02*
X137573094Y-86767200D01*
X137573094Y-86767200D02*
X137430237Y-86814819D01*
X137430237Y-86814819D02*
X137334999Y-86814819D01*
X138668332Y-86814819D02*
X138192142Y-86814819D01*
X138192142Y-86814819D02*
X138192142Y-85814819D01*
X139573094Y-86719580D02*
X139525475Y-86767200D01*
X139525475Y-86767200D02*
X139382618Y-86814819D01*
X139382618Y-86814819D02*
X139287380Y-86814819D01*
X139287380Y-86814819D02*
X139144523Y-86767200D01*
X139144523Y-86767200D02*
X139049285Y-86671961D01*
X139049285Y-86671961D02*
X139001666Y-86576723D01*
X139001666Y-86576723D02*
X138954047Y-86386247D01*
X138954047Y-86386247D02*
X138954047Y-86243390D01*
X138954047Y-86243390D02*
X139001666Y-86052914D01*
X139001666Y-86052914D02*
X139049285Y-85957676D01*
X139049285Y-85957676D02*
X139144523Y-85862438D01*
X139144523Y-85862438D02*
X139287380Y-85814819D01*
X139287380Y-85814819D02*
X139382618Y-85814819D01*
X139382618Y-85814819D02*
X139525475Y-85862438D01*
X139525475Y-85862438D02*
X139573094Y-85910057D01*
X140287380Y-85814819D02*
X140287380Y-86529104D01*
X140287380Y-86529104D02*
X140239761Y-86671961D01*
X140239761Y-86671961D02*
X140144523Y-86767200D01*
X140144523Y-86767200D02*
X140001666Y-86814819D01*
X140001666Y-86814819D02*
X139906428Y-86814819D01*
X141239761Y-86814819D02*
X140763571Y-86814819D01*
X140763571Y-86814819D02*
X140763571Y-85814819D01*
X142144523Y-86719580D02*
X142096904Y-86767200D01*
X142096904Y-86767200D02*
X141954047Y-86814819D01*
X141954047Y-86814819D02*
X141858809Y-86814819D01*
X141858809Y-86814819D02*
X141715952Y-86767200D01*
X141715952Y-86767200D02*
X141620714Y-86671961D01*
X141620714Y-86671961D02*
X141573095Y-86576723D01*
X141573095Y-86576723D02*
X141525476Y-86386247D01*
X141525476Y-86386247D02*
X141525476Y-86243390D01*
X141525476Y-86243390D02*
X141573095Y-86052914D01*
X141573095Y-86052914D02*
X141620714Y-85957676D01*
X141620714Y-85957676D02*
X141715952Y-85862438D01*
X141715952Y-85862438D02*
X141858809Y-85814819D01*
X141858809Y-85814819D02*
X141954047Y-85814819D01*
X141954047Y-85814819D02*
X142096904Y-85862438D01*
X142096904Y-85862438D02*
X142144523Y-85910057D01*
X142858809Y-85814819D02*
X142858809Y-86529104D01*
X142858809Y-86529104D02*
X142811190Y-86671961D01*
X142811190Y-86671961D02*
X142715952Y-86767200D01*
X142715952Y-86767200D02*
X142573095Y-86814819D01*
X142573095Y-86814819D02*
X142477857Y-86814819D01*
X143811190Y-86814819D02*
X143335000Y-86814819D01*
X143335000Y-86814819D02*
X143335000Y-85814819D01*
X144715952Y-86719580D02*
X144668333Y-86767200D01*
X144668333Y-86767200D02*
X144525476Y-86814819D01*
X144525476Y-86814819D02*
X144430238Y-86814819D01*
X144430238Y-86814819D02*
X144287381Y-86767200D01*
X144287381Y-86767200D02*
X144192143Y-86671961D01*
X144192143Y-86671961D02*
X144144524Y-86576723D01*
X144144524Y-86576723D02*
X144096905Y-86386247D01*
X144096905Y-86386247D02*
X144096905Y-86243390D01*
X144096905Y-86243390D02*
X144144524Y-86052914D01*
X144144524Y-86052914D02*
X144192143Y-85957676D01*
X144192143Y-85957676D02*
X144287381Y-85862438D01*
X144287381Y-85862438D02*
X144430238Y-85814819D01*
X144430238Y-85814819D02*
X144525476Y-85814819D01*
X144525476Y-85814819D02*
X144668333Y-85862438D01*
X144668333Y-85862438D02*
X144715952Y-85910057D01*
X145430238Y-85814819D02*
X145430238Y-86529104D01*
X145430238Y-86529104D02*
X145382619Y-86671961D01*
X145382619Y-86671961D02*
X145287381Y-86767200D01*
X145287381Y-86767200D02*
X145144524Y-86814819D01*
X145144524Y-86814819D02*
X145049286Y-86814819D01*
X146382619Y-86814819D02*
X145906429Y-86814819D01*
X145906429Y-86814819D02*
X145906429Y-85814819D01*
X147287381Y-86719580D02*
X147239762Y-86767200D01*
X147239762Y-86767200D02*
X147096905Y-86814819D01*
X147096905Y-86814819D02*
X147001667Y-86814819D01*
X147001667Y-86814819D02*
X146858810Y-86767200D01*
X146858810Y-86767200D02*
X146763572Y-86671961D01*
X146763572Y-86671961D02*
X146715953Y-86576723D01*
X146715953Y-86576723D02*
X146668334Y-86386247D01*
X146668334Y-86386247D02*
X146668334Y-86243390D01*
X146668334Y-86243390D02*
X146715953Y-86052914D01*
X146715953Y-86052914D02*
X146763572Y-85957676D01*
X146763572Y-85957676D02*
X146858810Y-85862438D01*
X146858810Y-85862438D02*
X147001667Y-85814819D01*
X147001667Y-85814819D02*
X147096905Y-85814819D01*
X147096905Y-85814819D02*
X147239762Y-85862438D01*
X147239762Y-85862438D02*
X147287381Y-85910057D01*
D11*
X173574949Y-68674762D02*
X173622568Y-68617619D01*
X173622568Y-68617619D02*
X173717806Y-68560476D01*
X173717806Y-68560476D02*
X173955901Y-68560476D01*
X173955901Y-68560476D02*
X174051139Y-68617619D01*
X174051139Y-68617619D02*
X174098758Y-68674762D01*
X174098758Y-68674762D02*
X174146377Y-68789048D01*
X174146377Y-68789048D02*
X174146377Y-68903334D01*
X174146377Y-68903334D02*
X174098758Y-69074762D01*
X174098758Y-69074762D02*
X173527330Y-69760476D01*
X173527330Y-69760476D02*
X174146377Y-69760476D01*
X175051139Y-68560476D02*
X174574949Y-68560476D01*
X174574949Y-68560476D02*
X174527330Y-69131905D01*
X174527330Y-69131905D02*
X174574949Y-69074762D01*
X174574949Y-69074762D02*
X174670187Y-69017619D01*
X174670187Y-69017619D02*
X174908282Y-69017619D01*
X174908282Y-69017619D02*
X175003520Y-69074762D01*
X175003520Y-69074762D02*
X175051139Y-69131905D01*
X175051139Y-69131905D02*
X175098758Y-69246191D01*
X175098758Y-69246191D02*
X175098758Y-69531905D01*
X175098758Y-69531905D02*
X175051139Y-69646191D01*
X175051139Y-69646191D02*
X175003520Y-69703334D01*
X175003520Y-69703334D02*
X174908282Y-69760476D01*
X174908282Y-69760476D02*
X174670187Y-69760476D01*
X174670187Y-69760476D02*
X174574949Y-69703334D01*
X174574949Y-69703334D02*
X174527330Y-69646191D01*
X175955901Y-68560476D02*
X175765425Y-68560476D01*
X175765425Y-68560476D02*
X175670187Y-68617619D01*
X175670187Y-68617619D02*
X175622568Y-68674762D01*
X175622568Y-68674762D02*
X175527330Y-68846191D01*
X175527330Y-68846191D02*
X175479711Y-69074762D01*
X175479711Y-69074762D02*
X175479711Y-69531905D01*
X175479711Y-69531905D02*
X175527330Y-69646191D01*
X175527330Y-69646191D02*
X175574949Y-69703334D01*
X175574949Y-69703334D02*
X175670187Y-69760476D01*
X175670187Y-69760476D02*
X175860663Y-69760476D01*
X175860663Y-69760476D02*
X175955901Y-69703334D01*
X175955901Y-69703334D02*
X176003520Y-69646191D01*
X176003520Y-69646191D02*
X176051139Y-69531905D01*
X176051139Y-69531905D02*
X176051139Y-69246191D01*
X176051139Y-69246191D02*
X176003520Y-69131905D01*
X176003520Y-69131905D02*
X175955901Y-69074762D01*
X175955901Y-69074762D02*
X175860663Y-69017619D01*
X175860663Y-69017619D02*
X175670187Y-69017619D01*
X175670187Y-69017619D02*
X175574949Y-69074762D01*
X175574949Y-69074762D02*
X175527330Y-69131905D01*
X175527330Y-69131905D02*
X175479711Y-69246191D01*
X176479711Y-69760476D02*
X176479711Y-68560476D01*
X176574949Y-69303334D02*
X176860663Y-69760476D01*
X176860663Y-68960476D02*
X176479711Y-69417619D01*
X177622568Y-69131905D02*
X177765425Y-69189048D01*
X177765425Y-69189048D02*
X177813044Y-69246191D01*
X177813044Y-69246191D02*
X177860663Y-69360476D01*
X177860663Y-69360476D02*
X177860663Y-69531905D01*
X177860663Y-69531905D02*
X177813044Y-69646191D01*
X177813044Y-69646191D02*
X177765425Y-69703334D01*
X177765425Y-69703334D02*
X177670187Y-69760476D01*
X177670187Y-69760476D02*
X177289235Y-69760476D01*
X177289235Y-69760476D02*
X177289235Y-68560476D01*
X177289235Y-68560476D02*
X177622568Y-68560476D01*
X177622568Y-68560476D02*
X177717806Y-68617619D01*
X177717806Y-68617619D02*
X177765425Y-68674762D01*
X177765425Y-68674762D02*
X177813044Y-68789048D01*
X177813044Y-68789048D02*
X177813044Y-68903334D01*
X177813044Y-68903334D02*
X177765425Y-69017619D01*
X177765425Y-69017619D02*
X177717806Y-69074762D01*
X177717806Y-69074762D02*
X177622568Y-69131905D01*
X177622568Y-69131905D02*
X177289235Y-69131905D01*
X95989048Y-77552142D02*
X96560476Y-77552142D01*
X96274762Y-78752142D02*
X96274762Y-77552142D01*
X97465238Y-78752142D02*
X97131905Y-78180714D01*
X96893810Y-78752142D02*
X96893810Y-77552142D01*
X96893810Y-77552142D02*
X97274762Y-77552142D01*
X97274762Y-77552142D02*
X97370000Y-77609285D01*
X97370000Y-77609285D02*
X97417619Y-77666428D01*
X97417619Y-77666428D02*
X97465238Y-77780714D01*
X97465238Y-77780714D02*
X97465238Y-77952142D01*
X97465238Y-77952142D02*
X97417619Y-78066428D01*
X97417619Y-78066428D02*
X97370000Y-78123571D01*
X97370000Y-78123571D02*
X97274762Y-78180714D01*
X97274762Y-78180714D02*
X96893810Y-78180714D01*
X97893810Y-77552142D02*
X97893810Y-78523571D01*
X97893810Y-78523571D02*
X97941429Y-78637857D01*
X97941429Y-78637857D02*
X97989048Y-78695000D01*
X97989048Y-78695000D02*
X98084286Y-78752142D01*
X98084286Y-78752142D02*
X98274762Y-78752142D01*
X98274762Y-78752142D02*
X98370000Y-78695000D01*
X98370000Y-78695000D02*
X98417619Y-78637857D01*
X98417619Y-78637857D02*
X98465238Y-78523571D01*
X98465238Y-78523571D02*
X98465238Y-77552142D01*
X98941429Y-78752142D02*
X98941429Y-77552142D01*
X98941429Y-77552142D02*
X99274762Y-78409285D01*
X99274762Y-78409285D02*
X99608095Y-77552142D01*
X99608095Y-77552142D02*
X99608095Y-78752142D01*
X100084286Y-78752142D02*
X100084286Y-77552142D01*
X100084286Y-77552142D02*
X100465238Y-77552142D01*
X100465238Y-77552142D02*
X100560476Y-77609285D01*
X100560476Y-77609285D02*
X100608095Y-77666428D01*
X100608095Y-77666428D02*
X100655714Y-77780714D01*
X100655714Y-77780714D02*
X100655714Y-77952142D01*
X100655714Y-77952142D02*
X100608095Y-78066428D01*
X100608095Y-78066428D02*
X100560476Y-78123571D01*
X100560476Y-78123571D02*
X100465238Y-78180714D01*
X100465238Y-78180714D02*
X100084286Y-78180714D01*
X95155714Y-76152142D02*
X95155714Y-74952142D01*
X95155714Y-74952142D02*
X95727142Y-76152142D01*
X95727142Y-76152142D02*
X95727142Y-74952142D01*
X96393809Y-74952142D02*
X96584285Y-74952142D01*
X96584285Y-74952142D02*
X96679523Y-75009285D01*
X96679523Y-75009285D02*
X96774761Y-75123571D01*
X96774761Y-75123571D02*
X96822380Y-75352142D01*
X96822380Y-75352142D02*
X96822380Y-75752142D01*
X96822380Y-75752142D02*
X96774761Y-75980714D01*
X96774761Y-75980714D02*
X96679523Y-76095000D01*
X96679523Y-76095000D02*
X96584285Y-76152142D01*
X96584285Y-76152142D02*
X96393809Y-76152142D01*
X96393809Y-76152142D02*
X96298571Y-76095000D01*
X96298571Y-76095000D02*
X96203333Y-75980714D01*
X96203333Y-75980714D02*
X96155714Y-75752142D01*
X96155714Y-75752142D02*
X96155714Y-75352142D01*
X96155714Y-75352142D02*
X96203333Y-75123571D01*
X96203333Y-75123571D02*
X96298571Y-75009285D01*
X96298571Y-75009285D02*
X96393809Y-74952142D01*
X97822380Y-76152142D02*
X97489047Y-75580714D01*
X97250952Y-76152142D02*
X97250952Y-74952142D01*
X97250952Y-74952142D02*
X97631904Y-74952142D01*
X97631904Y-74952142D02*
X97727142Y-75009285D01*
X97727142Y-75009285D02*
X97774761Y-75066428D01*
X97774761Y-75066428D02*
X97822380Y-75180714D01*
X97822380Y-75180714D02*
X97822380Y-75352142D01*
X97822380Y-75352142D02*
X97774761Y-75466428D01*
X97774761Y-75466428D02*
X97727142Y-75523571D01*
X97727142Y-75523571D02*
X97631904Y-75580714D01*
X97631904Y-75580714D02*
X97250952Y-75580714D01*
X98250952Y-76152142D02*
X98250952Y-74952142D01*
X98250952Y-74952142D02*
X98584285Y-75809285D01*
X98584285Y-75809285D02*
X98917618Y-74952142D01*
X98917618Y-74952142D02*
X98917618Y-76152142D01*
X99346190Y-75809285D02*
X99822380Y-75809285D01*
X99250952Y-76152142D02*
X99584285Y-74952142D01*
X99584285Y-74952142D02*
X99917618Y-76152142D01*
X100727142Y-76152142D02*
X100250952Y-76152142D01*
X100250952Y-76152142D02*
X100250952Y-74952142D01*
X174146377Y-75693810D02*
X173574949Y-75693810D01*
X173860663Y-75693810D02*
X173860663Y-74493810D01*
X173860663Y-74493810D02*
X173765425Y-74665239D01*
X173765425Y-74665239D02*
X173670187Y-74779525D01*
X173670187Y-74779525D02*
X173574949Y-74836668D01*
X174527330Y-74608096D02*
X174574949Y-74550953D01*
X174574949Y-74550953D02*
X174670187Y-74493810D01*
X174670187Y-74493810D02*
X174908282Y-74493810D01*
X174908282Y-74493810D02*
X175003520Y-74550953D01*
X175003520Y-74550953D02*
X175051139Y-74608096D01*
X175051139Y-74608096D02*
X175098758Y-74722382D01*
X175098758Y-74722382D02*
X175098758Y-74836668D01*
X175098758Y-74836668D02*
X175051139Y-75008096D01*
X175051139Y-75008096D02*
X174479711Y-75693810D01*
X174479711Y-75693810D02*
X175098758Y-75693810D01*
X175670187Y-75008096D02*
X175574949Y-74950953D01*
X175574949Y-74950953D02*
X175527330Y-74893810D01*
X175527330Y-74893810D02*
X175479711Y-74779525D01*
X175479711Y-74779525D02*
X175479711Y-74722382D01*
X175479711Y-74722382D02*
X175527330Y-74608096D01*
X175527330Y-74608096D02*
X175574949Y-74550953D01*
X175574949Y-74550953D02*
X175670187Y-74493810D01*
X175670187Y-74493810D02*
X175860663Y-74493810D01*
X175860663Y-74493810D02*
X175955901Y-74550953D01*
X175955901Y-74550953D02*
X176003520Y-74608096D01*
X176003520Y-74608096D02*
X176051139Y-74722382D01*
X176051139Y-74722382D02*
X176051139Y-74779525D01*
X176051139Y-74779525D02*
X176003520Y-74893810D01*
X176003520Y-74893810D02*
X175955901Y-74950953D01*
X175955901Y-74950953D02*
X175860663Y-75008096D01*
X175860663Y-75008096D02*
X175670187Y-75008096D01*
X175670187Y-75008096D02*
X175574949Y-75065239D01*
X175574949Y-75065239D02*
X175527330Y-75122382D01*
X175527330Y-75122382D02*
X175479711Y-75236668D01*
X175479711Y-75236668D02*
X175479711Y-75465239D01*
X175479711Y-75465239D02*
X175527330Y-75579525D01*
X175527330Y-75579525D02*
X175574949Y-75636668D01*
X175574949Y-75636668D02*
X175670187Y-75693810D01*
X175670187Y-75693810D02*
X175860663Y-75693810D01*
X175860663Y-75693810D02*
X175955901Y-75636668D01*
X175955901Y-75636668D02*
X176003520Y-75579525D01*
X176003520Y-75579525D02*
X176051139Y-75465239D01*
X176051139Y-75465239D02*
X176051139Y-75236668D01*
X176051139Y-75236668D02*
X176003520Y-75122382D01*
X176003520Y-75122382D02*
X175955901Y-75065239D01*
X175955901Y-75065239D02*
X175860663Y-75008096D01*
X176479711Y-75693810D02*
X176479711Y-74493810D01*
X176574949Y-75236668D02*
X176860663Y-75693810D01*
X176860663Y-74893810D02*
X176479711Y-75350953D01*
X177622568Y-75065239D02*
X177765425Y-75122382D01*
X177765425Y-75122382D02*
X177813044Y-75179525D01*
X177813044Y-75179525D02*
X177860663Y-75293810D01*
X177860663Y-75293810D02*
X177860663Y-75465239D01*
X177860663Y-75465239D02*
X177813044Y-75579525D01*
X177813044Y-75579525D02*
X177765425Y-75636668D01*
X177765425Y-75636668D02*
X177670187Y-75693810D01*
X177670187Y-75693810D02*
X177289235Y-75693810D01*
X177289235Y-75693810D02*
X177289235Y-74493810D01*
X177289235Y-74493810D02*
X177622568Y-74493810D01*
X177622568Y-74493810D02*
X177717806Y-74550953D01*
X177717806Y-74550953D02*
X177765425Y-74608096D01*
X177765425Y-74608096D02*
X177813044Y-74722382D01*
X177813044Y-74722382D02*
X177813044Y-74836668D01*
X177813044Y-74836668D02*
X177765425Y-74950953D01*
X177765425Y-74950953D02*
X177717806Y-75008096D01*
X177717806Y-75008096D02*
X177622568Y-75065239D01*
X177622568Y-75065239D02*
X177289235Y-75065239D01*
X174146377Y-72727142D02*
X173574949Y-72727142D01*
X173860663Y-72727142D02*
X173860663Y-71527142D01*
X173860663Y-71527142D02*
X173765425Y-71698571D01*
X173765425Y-71698571D02*
X173670187Y-71812857D01*
X173670187Y-71812857D02*
X173574949Y-71870000D01*
X174622568Y-72727142D02*
X174813044Y-72727142D01*
X174813044Y-72727142D02*
X174908282Y-72670000D01*
X174908282Y-72670000D02*
X174955901Y-72612857D01*
X174955901Y-72612857D02*
X175051139Y-72441428D01*
X175051139Y-72441428D02*
X175098758Y-72212857D01*
X175098758Y-72212857D02*
X175098758Y-71755714D01*
X175098758Y-71755714D02*
X175051139Y-71641428D01*
X175051139Y-71641428D02*
X175003520Y-71584285D01*
X175003520Y-71584285D02*
X174908282Y-71527142D01*
X174908282Y-71527142D02*
X174717806Y-71527142D01*
X174717806Y-71527142D02*
X174622568Y-71584285D01*
X174622568Y-71584285D02*
X174574949Y-71641428D01*
X174574949Y-71641428D02*
X174527330Y-71755714D01*
X174527330Y-71755714D02*
X174527330Y-72041428D01*
X174527330Y-72041428D02*
X174574949Y-72155714D01*
X174574949Y-72155714D02*
X174622568Y-72212857D01*
X174622568Y-72212857D02*
X174717806Y-72270000D01*
X174717806Y-72270000D02*
X174908282Y-72270000D01*
X174908282Y-72270000D02*
X175003520Y-72212857D01*
X175003520Y-72212857D02*
X175051139Y-72155714D01*
X175051139Y-72155714D02*
X175098758Y-72041428D01*
X175479711Y-71641428D02*
X175527330Y-71584285D01*
X175527330Y-71584285D02*
X175622568Y-71527142D01*
X175622568Y-71527142D02*
X175860663Y-71527142D01*
X175860663Y-71527142D02*
X175955901Y-71584285D01*
X175955901Y-71584285D02*
X176003520Y-71641428D01*
X176003520Y-71641428D02*
X176051139Y-71755714D01*
X176051139Y-71755714D02*
X176051139Y-71870000D01*
X176051139Y-71870000D02*
X176003520Y-72041428D01*
X176003520Y-72041428D02*
X175432092Y-72727142D01*
X175432092Y-72727142D02*
X176051139Y-72727142D01*
X176479711Y-72727142D02*
X176479711Y-71527142D01*
X176574949Y-72270000D02*
X176860663Y-72727142D01*
X176860663Y-71927142D02*
X176479711Y-72384285D01*
X177622568Y-72098571D02*
X177765425Y-72155714D01*
X177765425Y-72155714D02*
X177813044Y-72212857D01*
X177813044Y-72212857D02*
X177860663Y-72327142D01*
X177860663Y-72327142D02*
X177860663Y-72498571D01*
X177860663Y-72498571D02*
X177813044Y-72612857D01*
X177813044Y-72612857D02*
X177765425Y-72670000D01*
X177765425Y-72670000D02*
X177670187Y-72727142D01*
X177670187Y-72727142D02*
X177289235Y-72727142D01*
X177289235Y-72727142D02*
X177289235Y-71527142D01*
X177289235Y-71527142D02*
X177622568Y-71527142D01*
X177622568Y-71527142D02*
X177717806Y-71584285D01*
X177717806Y-71584285D02*
X177765425Y-71641428D01*
X177765425Y-71641428D02*
X177813044Y-71755714D01*
X177813044Y-71755714D02*
X177813044Y-71870000D01*
X177813044Y-71870000D02*
X177765425Y-71984285D01*
X177765425Y-71984285D02*
X177717806Y-72041428D01*
X177717806Y-72041428D02*
X177622568Y-72098571D01*
X177622568Y-72098571D02*
X177289235Y-72098571D01*
X204563044Y-67029243D02*
X204658282Y-67029243D01*
X204658282Y-67029243D02*
X204753520Y-67086386D01*
X204753520Y-67086386D02*
X204801139Y-67143529D01*
X204801139Y-67143529D02*
X204848758Y-67257815D01*
X204848758Y-67257815D02*
X204896377Y-67486386D01*
X204896377Y-67486386D02*
X204896377Y-67772101D01*
X204896377Y-67772101D02*
X204848758Y-68000672D01*
X204848758Y-68000672D02*
X204801139Y-68114958D01*
X204801139Y-68114958D02*
X204753520Y-68172101D01*
X204753520Y-68172101D02*
X204658282Y-68229243D01*
X204658282Y-68229243D02*
X204563044Y-68229243D01*
X204563044Y-68229243D02*
X204467806Y-68172101D01*
X204467806Y-68172101D02*
X204420187Y-68114958D01*
X204420187Y-68114958D02*
X204372568Y-68000672D01*
X204372568Y-68000672D02*
X204324949Y-67772101D01*
X204324949Y-67772101D02*
X204324949Y-67486386D01*
X204324949Y-67486386D02*
X204372568Y-67257815D01*
X204372568Y-67257815D02*
X204420187Y-67143529D01*
X204420187Y-67143529D02*
X204467806Y-67086386D01*
X204467806Y-67086386D02*
X204563044Y-67029243D01*
X205515425Y-67029243D02*
X205610663Y-67029243D01*
X205610663Y-67029243D02*
X205705901Y-67086386D01*
X205705901Y-67086386D02*
X205753520Y-67143529D01*
X205753520Y-67143529D02*
X205801139Y-67257815D01*
X205801139Y-67257815D02*
X205848758Y-67486386D01*
X205848758Y-67486386D02*
X205848758Y-67772101D01*
X205848758Y-67772101D02*
X205801139Y-68000672D01*
X205801139Y-68000672D02*
X205753520Y-68114958D01*
X205753520Y-68114958D02*
X205705901Y-68172101D01*
X205705901Y-68172101D02*
X205610663Y-68229243D01*
X205610663Y-68229243D02*
X205515425Y-68229243D01*
X205515425Y-68229243D02*
X205420187Y-68172101D01*
X205420187Y-68172101D02*
X205372568Y-68114958D01*
X205372568Y-68114958D02*
X205324949Y-68000672D01*
X205324949Y-68000672D02*
X205277330Y-67772101D01*
X205277330Y-67772101D02*
X205277330Y-67486386D01*
X205277330Y-67486386D02*
X205324949Y-67257815D01*
X205324949Y-67257815D02*
X205372568Y-67143529D01*
X205372568Y-67143529D02*
X205420187Y-67086386D01*
X205420187Y-67086386D02*
X205515425Y-67029243D01*
X206277330Y-67772101D02*
X207039235Y-67772101D01*
X207991615Y-67029243D02*
X207515425Y-67029243D01*
X207515425Y-67029243D02*
X207467806Y-67600672D01*
X207467806Y-67600672D02*
X207515425Y-67543529D01*
X207515425Y-67543529D02*
X207610663Y-67486386D01*
X207610663Y-67486386D02*
X207848758Y-67486386D01*
X207848758Y-67486386D02*
X207943996Y-67543529D01*
X207943996Y-67543529D02*
X207991615Y-67600672D01*
X207991615Y-67600672D02*
X208039234Y-67714958D01*
X208039234Y-67714958D02*
X208039234Y-68000672D01*
X208039234Y-68000672D02*
X207991615Y-68114958D01*
X207991615Y-68114958D02*
X207943996Y-68172101D01*
X207943996Y-68172101D02*
X207848758Y-68229243D01*
X207848758Y-68229243D02*
X207610663Y-68229243D01*
X207610663Y-68229243D02*
X207515425Y-68172101D01*
X207515425Y-68172101D02*
X207467806Y-68114958D01*
X208991615Y-68229243D02*
X208420187Y-68229243D01*
X208705901Y-68229243D02*
X208705901Y-67029243D01*
X208705901Y-67029243D02*
X208610663Y-67200672D01*
X208610663Y-67200672D02*
X208515425Y-67314958D01*
X208515425Y-67314958D02*
X208420187Y-67372101D01*
X209372568Y-67143529D02*
X209420187Y-67086386D01*
X209420187Y-67086386D02*
X209515425Y-67029243D01*
X209515425Y-67029243D02*
X209753520Y-67029243D01*
X209753520Y-67029243D02*
X209848758Y-67086386D01*
X209848758Y-67086386D02*
X209896377Y-67143529D01*
X209896377Y-67143529D02*
X209943996Y-67257815D01*
X209943996Y-67257815D02*
X209943996Y-67372101D01*
X209943996Y-67372101D02*
X209896377Y-67543529D01*
X209896377Y-67543529D02*
X209324949Y-68229243D01*
X209324949Y-68229243D02*
X209943996Y-68229243D01*
X210372568Y-68229243D02*
X210372568Y-67029243D01*
X210467806Y-67772101D02*
X210753520Y-68229243D01*
X210753520Y-67429243D02*
X210372568Y-67886386D01*
X211515425Y-67600672D02*
X211658282Y-67657815D01*
X211658282Y-67657815D02*
X211705901Y-67714958D01*
X211705901Y-67714958D02*
X211753520Y-67829243D01*
X211753520Y-67829243D02*
X211753520Y-68000672D01*
X211753520Y-68000672D02*
X211705901Y-68114958D01*
X211705901Y-68114958D02*
X211658282Y-68172101D01*
X211658282Y-68172101D02*
X211563044Y-68229243D01*
X211563044Y-68229243D02*
X211182092Y-68229243D01*
X211182092Y-68229243D02*
X211182092Y-67029243D01*
X211182092Y-67029243D02*
X211515425Y-67029243D01*
X211515425Y-67029243D02*
X211610663Y-67086386D01*
X211610663Y-67086386D02*
X211658282Y-67143529D01*
X211658282Y-67143529D02*
X211705901Y-67257815D01*
X211705901Y-67257815D02*
X211705901Y-67372101D01*
X211705901Y-67372101D02*
X211658282Y-67486386D01*
X211658282Y-67486386D02*
X211610663Y-67543529D01*
X211610663Y-67543529D02*
X211515425Y-67600672D01*
X211515425Y-67600672D02*
X211182092Y-67600672D01*
X204563044Y-68961176D02*
X204658282Y-68961176D01*
X204658282Y-68961176D02*
X204753520Y-69018319D01*
X204753520Y-69018319D02*
X204801139Y-69075462D01*
X204801139Y-69075462D02*
X204848758Y-69189748D01*
X204848758Y-69189748D02*
X204896377Y-69418319D01*
X204896377Y-69418319D02*
X204896377Y-69704034D01*
X204896377Y-69704034D02*
X204848758Y-69932605D01*
X204848758Y-69932605D02*
X204801139Y-70046891D01*
X204801139Y-70046891D02*
X204753520Y-70104034D01*
X204753520Y-70104034D02*
X204658282Y-70161176D01*
X204658282Y-70161176D02*
X204563044Y-70161176D01*
X204563044Y-70161176D02*
X204467806Y-70104034D01*
X204467806Y-70104034D02*
X204420187Y-70046891D01*
X204420187Y-70046891D02*
X204372568Y-69932605D01*
X204372568Y-69932605D02*
X204324949Y-69704034D01*
X204324949Y-69704034D02*
X204324949Y-69418319D01*
X204324949Y-69418319D02*
X204372568Y-69189748D01*
X204372568Y-69189748D02*
X204420187Y-69075462D01*
X204420187Y-69075462D02*
X204467806Y-69018319D01*
X204467806Y-69018319D02*
X204563044Y-68961176D01*
X205848758Y-70161176D02*
X205277330Y-70161176D01*
X205563044Y-70161176D02*
X205563044Y-68961176D01*
X205563044Y-68961176D02*
X205467806Y-69132605D01*
X205467806Y-69132605D02*
X205372568Y-69246891D01*
X205372568Y-69246891D02*
X205277330Y-69304034D01*
X206277330Y-69704034D02*
X207039235Y-69704034D01*
X207467806Y-69075462D02*
X207515425Y-69018319D01*
X207515425Y-69018319D02*
X207610663Y-68961176D01*
X207610663Y-68961176D02*
X207848758Y-68961176D01*
X207848758Y-68961176D02*
X207943996Y-69018319D01*
X207943996Y-69018319D02*
X207991615Y-69075462D01*
X207991615Y-69075462D02*
X208039234Y-69189748D01*
X208039234Y-69189748D02*
X208039234Y-69304034D01*
X208039234Y-69304034D02*
X207991615Y-69475462D01*
X207991615Y-69475462D02*
X207420187Y-70161176D01*
X207420187Y-70161176D02*
X208039234Y-70161176D01*
X208943996Y-68961176D02*
X208467806Y-68961176D01*
X208467806Y-68961176D02*
X208420187Y-69532605D01*
X208420187Y-69532605D02*
X208467806Y-69475462D01*
X208467806Y-69475462D02*
X208563044Y-69418319D01*
X208563044Y-69418319D02*
X208801139Y-69418319D01*
X208801139Y-69418319D02*
X208896377Y-69475462D01*
X208896377Y-69475462D02*
X208943996Y-69532605D01*
X208943996Y-69532605D02*
X208991615Y-69646891D01*
X208991615Y-69646891D02*
X208991615Y-69932605D01*
X208991615Y-69932605D02*
X208943996Y-70046891D01*
X208943996Y-70046891D02*
X208896377Y-70104034D01*
X208896377Y-70104034D02*
X208801139Y-70161176D01*
X208801139Y-70161176D02*
X208563044Y-70161176D01*
X208563044Y-70161176D02*
X208467806Y-70104034D01*
X208467806Y-70104034D02*
X208420187Y-70046891D01*
X209848758Y-68961176D02*
X209658282Y-68961176D01*
X209658282Y-68961176D02*
X209563044Y-69018319D01*
X209563044Y-69018319D02*
X209515425Y-69075462D01*
X209515425Y-69075462D02*
X209420187Y-69246891D01*
X209420187Y-69246891D02*
X209372568Y-69475462D01*
X209372568Y-69475462D02*
X209372568Y-69932605D01*
X209372568Y-69932605D02*
X209420187Y-70046891D01*
X209420187Y-70046891D02*
X209467806Y-70104034D01*
X209467806Y-70104034D02*
X209563044Y-70161176D01*
X209563044Y-70161176D02*
X209753520Y-70161176D01*
X209753520Y-70161176D02*
X209848758Y-70104034D01*
X209848758Y-70104034D02*
X209896377Y-70046891D01*
X209896377Y-70046891D02*
X209943996Y-69932605D01*
X209943996Y-69932605D02*
X209943996Y-69646891D01*
X209943996Y-69646891D02*
X209896377Y-69532605D01*
X209896377Y-69532605D02*
X209848758Y-69475462D01*
X209848758Y-69475462D02*
X209753520Y-69418319D01*
X209753520Y-69418319D02*
X209563044Y-69418319D01*
X209563044Y-69418319D02*
X209467806Y-69475462D01*
X209467806Y-69475462D02*
X209420187Y-69532605D01*
X209420187Y-69532605D02*
X209372568Y-69646891D01*
X210372568Y-70161176D02*
X210372568Y-68961176D01*
X210467806Y-69704034D02*
X210753520Y-70161176D01*
X210753520Y-69361176D02*
X210372568Y-69818319D01*
X211515425Y-69532605D02*
X211658282Y-69589748D01*
X211658282Y-69589748D02*
X211705901Y-69646891D01*
X211705901Y-69646891D02*
X211753520Y-69761176D01*
X211753520Y-69761176D02*
X211753520Y-69932605D01*
X211753520Y-69932605D02*
X211705901Y-70046891D01*
X211705901Y-70046891D02*
X211658282Y-70104034D01*
X211658282Y-70104034D02*
X211563044Y-70161176D01*
X211563044Y-70161176D02*
X211182092Y-70161176D01*
X211182092Y-70161176D02*
X211182092Y-68961176D01*
X211182092Y-68961176D02*
X211515425Y-68961176D01*
X211515425Y-68961176D02*
X211610663Y-69018319D01*
X211610663Y-69018319D02*
X211658282Y-69075462D01*
X211658282Y-69075462D02*
X211705901Y-69189748D01*
X211705901Y-69189748D02*
X211705901Y-69304034D01*
X211705901Y-69304034D02*
X211658282Y-69418319D01*
X211658282Y-69418319D02*
X211610663Y-69475462D01*
X211610663Y-69475462D02*
X211515425Y-69532605D01*
X211515425Y-69532605D02*
X211182092Y-69532605D01*
X204896377Y-72093109D02*
X204324949Y-72093109D01*
X204610663Y-72093109D02*
X204610663Y-70893109D01*
X204610663Y-70893109D02*
X204515425Y-71064538D01*
X204515425Y-71064538D02*
X204420187Y-71178824D01*
X204420187Y-71178824D02*
X204324949Y-71235967D01*
X205515425Y-70893109D02*
X205610663Y-70893109D01*
X205610663Y-70893109D02*
X205705901Y-70950252D01*
X205705901Y-70950252D02*
X205753520Y-71007395D01*
X205753520Y-71007395D02*
X205801139Y-71121681D01*
X205801139Y-71121681D02*
X205848758Y-71350252D01*
X205848758Y-71350252D02*
X205848758Y-71635967D01*
X205848758Y-71635967D02*
X205801139Y-71864538D01*
X205801139Y-71864538D02*
X205753520Y-71978824D01*
X205753520Y-71978824D02*
X205705901Y-72035967D01*
X205705901Y-72035967D02*
X205610663Y-72093109D01*
X205610663Y-72093109D02*
X205515425Y-72093109D01*
X205515425Y-72093109D02*
X205420187Y-72035967D01*
X205420187Y-72035967D02*
X205372568Y-71978824D01*
X205372568Y-71978824D02*
X205324949Y-71864538D01*
X205324949Y-71864538D02*
X205277330Y-71635967D01*
X205277330Y-71635967D02*
X205277330Y-71350252D01*
X205277330Y-71350252D02*
X205324949Y-71121681D01*
X205324949Y-71121681D02*
X205372568Y-71007395D01*
X205372568Y-71007395D02*
X205420187Y-70950252D01*
X205420187Y-70950252D02*
X205515425Y-70893109D01*
X206277330Y-71635967D02*
X207039235Y-71635967D01*
X208039234Y-72093109D02*
X207467806Y-72093109D01*
X207753520Y-72093109D02*
X207753520Y-70893109D01*
X207753520Y-70893109D02*
X207658282Y-71064538D01*
X207658282Y-71064538D02*
X207563044Y-71178824D01*
X207563044Y-71178824D02*
X207467806Y-71235967D01*
X208515425Y-72093109D02*
X208705901Y-72093109D01*
X208705901Y-72093109D02*
X208801139Y-72035967D01*
X208801139Y-72035967D02*
X208848758Y-71978824D01*
X208848758Y-71978824D02*
X208943996Y-71807395D01*
X208943996Y-71807395D02*
X208991615Y-71578824D01*
X208991615Y-71578824D02*
X208991615Y-71121681D01*
X208991615Y-71121681D02*
X208943996Y-71007395D01*
X208943996Y-71007395D02*
X208896377Y-70950252D01*
X208896377Y-70950252D02*
X208801139Y-70893109D01*
X208801139Y-70893109D02*
X208610663Y-70893109D01*
X208610663Y-70893109D02*
X208515425Y-70950252D01*
X208515425Y-70950252D02*
X208467806Y-71007395D01*
X208467806Y-71007395D02*
X208420187Y-71121681D01*
X208420187Y-71121681D02*
X208420187Y-71407395D01*
X208420187Y-71407395D02*
X208467806Y-71521681D01*
X208467806Y-71521681D02*
X208515425Y-71578824D01*
X208515425Y-71578824D02*
X208610663Y-71635967D01*
X208610663Y-71635967D02*
X208801139Y-71635967D01*
X208801139Y-71635967D02*
X208896377Y-71578824D01*
X208896377Y-71578824D02*
X208943996Y-71521681D01*
X208943996Y-71521681D02*
X208991615Y-71407395D01*
X209372568Y-71007395D02*
X209420187Y-70950252D01*
X209420187Y-70950252D02*
X209515425Y-70893109D01*
X209515425Y-70893109D02*
X209753520Y-70893109D01*
X209753520Y-70893109D02*
X209848758Y-70950252D01*
X209848758Y-70950252D02*
X209896377Y-71007395D01*
X209896377Y-71007395D02*
X209943996Y-71121681D01*
X209943996Y-71121681D02*
X209943996Y-71235967D01*
X209943996Y-71235967D02*
X209896377Y-71407395D01*
X209896377Y-71407395D02*
X209324949Y-72093109D01*
X209324949Y-72093109D02*
X209943996Y-72093109D01*
X210372568Y-72093109D02*
X210372568Y-70893109D01*
X210467806Y-71635967D02*
X210753520Y-72093109D01*
X210753520Y-71293109D02*
X210372568Y-71750252D01*
X211515425Y-71464538D02*
X211658282Y-71521681D01*
X211658282Y-71521681D02*
X211705901Y-71578824D01*
X211705901Y-71578824D02*
X211753520Y-71693109D01*
X211753520Y-71693109D02*
X211753520Y-71864538D01*
X211753520Y-71864538D02*
X211705901Y-71978824D01*
X211705901Y-71978824D02*
X211658282Y-72035967D01*
X211658282Y-72035967D02*
X211563044Y-72093109D01*
X211563044Y-72093109D02*
X211182092Y-72093109D01*
X211182092Y-72093109D02*
X211182092Y-70893109D01*
X211182092Y-70893109D02*
X211515425Y-70893109D01*
X211515425Y-70893109D02*
X211610663Y-70950252D01*
X211610663Y-70950252D02*
X211658282Y-71007395D01*
X211658282Y-71007395D02*
X211705901Y-71121681D01*
X211705901Y-71121681D02*
X211705901Y-71235967D01*
X211705901Y-71235967D02*
X211658282Y-71350252D01*
X211658282Y-71350252D02*
X211610663Y-71407395D01*
X211610663Y-71407395D02*
X211515425Y-71464538D01*
X211515425Y-71464538D02*
X211182092Y-71464538D01*
X204896377Y-74025042D02*
X204324949Y-74025042D01*
X204610663Y-74025042D02*
X204610663Y-72825042D01*
X204610663Y-72825042D02*
X204515425Y-72996471D01*
X204515425Y-72996471D02*
X204420187Y-73110757D01*
X204420187Y-73110757D02*
X204324949Y-73167900D01*
X205848758Y-74025042D02*
X205277330Y-74025042D01*
X205563044Y-74025042D02*
X205563044Y-72825042D01*
X205563044Y-72825042D02*
X205467806Y-72996471D01*
X205467806Y-72996471D02*
X205372568Y-73110757D01*
X205372568Y-73110757D02*
X205277330Y-73167900D01*
X206277330Y-73567900D02*
X207039235Y-73567900D01*
X208039234Y-74025042D02*
X207467806Y-74025042D01*
X207753520Y-74025042D02*
X207753520Y-72825042D01*
X207753520Y-72825042D02*
X207658282Y-72996471D01*
X207658282Y-72996471D02*
X207563044Y-73110757D01*
X207563044Y-73110757D02*
X207467806Y-73167900D01*
X208420187Y-72939328D02*
X208467806Y-72882185D01*
X208467806Y-72882185D02*
X208563044Y-72825042D01*
X208563044Y-72825042D02*
X208801139Y-72825042D01*
X208801139Y-72825042D02*
X208896377Y-72882185D01*
X208896377Y-72882185D02*
X208943996Y-72939328D01*
X208943996Y-72939328D02*
X208991615Y-73053614D01*
X208991615Y-73053614D02*
X208991615Y-73167900D01*
X208991615Y-73167900D02*
X208943996Y-73339328D01*
X208943996Y-73339328D02*
X208372568Y-74025042D01*
X208372568Y-74025042D02*
X208991615Y-74025042D01*
X209563044Y-73339328D02*
X209467806Y-73282185D01*
X209467806Y-73282185D02*
X209420187Y-73225042D01*
X209420187Y-73225042D02*
X209372568Y-73110757D01*
X209372568Y-73110757D02*
X209372568Y-73053614D01*
X209372568Y-73053614D02*
X209420187Y-72939328D01*
X209420187Y-72939328D02*
X209467806Y-72882185D01*
X209467806Y-72882185D02*
X209563044Y-72825042D01*
X209563044Y-72825042D02*
X209753520Y-72825042D01*
X209753520Y-72825042D02*
X209848758Y-72882185D01*
X209848758Y-72882185D02*
X209896377Y-72939328D01*
X209896377Y-72939328D02*
X209943996Y-73053614D01*
X209943996Y-73053614D02*
X209943996Y-73110757D01*
X209943996Y-73110757D02*
X209896377Y-73225042D01*
X209896377Y-73225042D02*
X209848758Y-73282185D01*
X209848758Y-73282185D02*
X209753520Y-73339328D01*
X209753520Y-73339328D02*
X209563044Y-73339328D01*
X209563044Y-73339328D02*
X209467806Y-73396471D01*
X209467806Y-73396471D02*
X209420187Y-73453614D01*
X209420187Y-73453614D02*
X209372568Y-73567900D01*
X209372568Y-73567900D02*
X209372568Y-73796471D01*
X209372568Y-73796471D02*
X209420187Y-73910757D01*
X209420187Y-73910757D02*
X209467806Y-73967900D01*
X209467806Y-73967900D02*
X209563044Y-74025042D01*
X209563044Y-74025042D02*
X209753520Y-74025042D01*
X209753520Y-74025042D02*
X209848758Y-73967900D01*
X209848758Y-73967900D02*
X209896377Y-73910757D01*
X209896377Y-73910757D02*
X209943996Y-73796471D01*
X209943996Y-73796471D02*
X209943996Y-73567900D01*
X209943996Y-73567900D02*
X209896377Y-73453614D01*
X209896377Y-73453614D02*
X209848758Y-73396471D01*
X209848758Y-73396471D02*
X209753520Y-73339328D01*
X210372568Y-74025042D02*
X210372568Y-72825042D01*
X210467806Y-73567900D02*
X210753520Y-74025042D01*
X210753520Y-73225042D02*
X210372568Y-73682185D01*
X211515425Y-73396471D02*
X211658282Y-73453614D01*
X211658282Y-73453614D02*
X211705901Y-73510757D01*
X211705901Y-73510757D02*
X211753520Y-73625042D01*
X211753520Y-73625042D02*
X211753520Y-73796471D01*
X211753520Y-73796471D02*
X211705901Y-73910757D01*
X211705901Y-73910757D02*
X211658282Y-73967900D01*
X211658282Y-73967900D02*
X211563044Y-74025042D01*
X211563044Y-74025042D02*
X211182092Y-74025042D01*
X211182092Y-74025042D02*
X211182092Y-72825042D01*
X211182092Y-72825042D02*
X211515425Y-72825042D01*
X211515425Y-72825042D02*
X211610663Y-72882185D01*
X211610663Y-72882185D02*
X211658282Y-72939328D01*
X211658282Y-72939328D02*
X211705901Y-73053614D01*
X211705901Y-73053614D02*
X211705901Y-73167900D01*
X211705901Y-73167900D02*
X211658282Y-73282185D01*
X211658282Y-73282185D02*
X211610663Y-73339328D01*
X211610663Y-73339328D02*
X211515425Y-73396471D01*
X211515425Y-73396471D02*
X211182092Y-73396471D01*
D10*
X107374819Y-64246904D02*
X108184342Y-64246904D01*
X108184342Y-64246904D02*
X108279580Y-64199285D01*
X108279580Y-64199285D02*
X108327200Y-64151666D01*
X108327200Y-64151666D02*
X108374819Y-64056428D01*
X108374819Y-64056428D02*
X108374819Y-63865952D01*
X108374819Y-63865952D02*
X108327200Y-63770714D01*
X108327200Y-63770714D02*
X108279580Y-63723095D01*
X108279580Y-63723095D02*
X108184342Y-63675476D01*
X108184342Y-63675476D02*
X107374819Y-63675476D01*
X107374819Y-63294523D02*
X107374819Y-62675476D01*
X107374819Y-62675476D02*
X107755771Y-63008809D01*
X107755771Y-63008809D02*
X107755771Y-62865952D01*
X107755771Y-62865952D02*
X107803390Y-62770714D01*
X107803390Y-62770714D02*
X107851009Y-62723095D01*
X107851009Y-62723095D02*
X107946247Y-62675476D01*
X107946247Y-62675476D02*
X108184342Y-62675476D01*
X108184342Y-62675476D02*
X108279580Y-62723095D01*
X108279580Y-62723095D02*
X108327200Y-62770714D01*
X108327200Y-62770714D02*
X108374819Y-62865952D01*
X108374819Y-62865952D02*
X108374819Y-63151666D01*
X108374819Y-63151666D02*
X108327200Y-63246904D01*
X108327200Y-63246904D02*
X108279580Y-63294523D01*
X95329580Y-64486666D02*
X95377200Y-64534285D01*
X95377200Y-64534285D02*
X95424819Y-64677142D01*
X95424819Y-64677142D02*
X95424819Y-64772380D01*
X95424819Y-64772380D02*
X95377200Y-64915237D01*
X95377200Y-64915237D02*
X95281961Y-65010475D01*
X95281961Y-65010475D02*
X95186723Y-65058094D01*
X95186723Y-65058094D02*
X94996247Y-65105713D01*
X94996247Y-65105713D02*
X94853390Y-65105713D01*
X94853390Y-65105713D02*
X94662914Y-65058094D01*
X94662914Y-65058094D02*
X94567676Y-65010475D01*
X94567676Y-65010475D02*
X94472438Y-64915237D01*
X94472438Y-64915237D02*
X94424819Y-64772380D01*
X94424819Y-64772380D02*
X94424819Y-64677142D01*
X94424819Y-64677142D02*
X94472438Y-64534285D01*
X94472438Y-64534285D02*
X94520057Y-64486666D01*
X95424819Y-63534285D02*
X95424819Y-64105713D01*
X95424819Y-63819999D02*
X94424819Y-63819999D01*
X94424819Y-63819999D02*
X94567676Y-63915237D01*
X94567676Y-63915237D02*
X94662914Y-64010475D01*
X94662914Y-64010475D02*
X94710533Y-64105713D01*
X149179580Y-70901666D02*
X149227200Y-70949285D01*
X149227200Y-70949285D02*
X149274819Y-71092142D01*
X149274819Y-71092142D02*
X149274819Y-71187380D01*
X149274819Y-71187380D02*
X149227200Y-71330237D01*
X149227200Y-71330237D02*
X149131961Y-71425475D01*
X149131961Y-71425475D02*
X149036723Y-71473094D01*
X149036723Y-71473094D02*
X148846247Y-71520713D01*
X148846247Y-71520713D02*
X148703390Y-71520713D01*
X148703390Y-71520713D02*
X148512914Y-71473094D01*
X148512914Y-71473094D02*
X148417676Y-71425475D01*
X148417676Y-71425475D02*
X148322438Y-71330237D01*
X148322438Y-71330237D02*
X148274819Y-71187380D01*
X148274819Y-71187380D02*
X148274819Y-71092142D01*
X148274819Y-71092142D02*
X148322438Y-70949285D01*
X148322438Y-70949285D02*
X148370057Y-70901666D01*
X148608152Y-70044523D02*
X149274819Y-70044523D01*
X148227200Y-70282618D02*
X148941485Y-70520713D01*
X148941485Y-70520713D02*
X148941485Y-69901666D01*
X115079580Y-64351666D02*
X115127200Y-64399285D01*
X115127200Y-64399285D02*
X115174819Y-64542142D01*
X115174819Y-64542142D02*
X115174819Y-64637380D01*
X115174819Y-64637380D02*
X115127200Y-64780237D01*
X115127200Y-64780237D02*
X115031961Y-64875475D01*
X115031961Y-64875475D02*
X114936723Y-64923094D01*
X114936723Y-64923094D02*
X114746247Y-64970713D01*
X114746247Y-64970713D02*
X114603390Y-64970713D01*
X114603390Y-64970713D02*
X114412914Y-64923094D01*
X114412914Y-64923094D02*
X114317676Y-64875475D01*
X114317676Y-64875475D02*
X114222438Y-64780237D01*
X114222438Y-64780237D02*
X114174819Y-64637380D01*
X114174819Y-64637380D02*
X114174819Y-64542142D01*
X114174819Y-64542142D02*
X114222438Y-64399285D01*
X114222438Y-64399285D02*
X114270057Y-64351666D01*
X114270057Y-63970713D02*
X114222438Y-63923094D01*
X114222438Y-63923094D02*
X114174819Y-63827856D01*
X114174819Y-63827856D02*
X114174819Y-63589761D01*
X114174819Y-63589761D02*
X114222438Y-63494523D01*
X114222438Y-63494523D02*
X114270057Y-63446904D01*
X114270057Y-63446904D02*
X114365295Y-63399285D01*
X114365295Y-63399285D02*
X114460533Y-63399285D01*
X114460533Y-63399285D02*
X114603390Y-63446904D01*
X114603390Y-63446904D02*
X115174819Y-64018332D01*
X115174819Y-64018332D02*
X115174819Y-63399285D01*
X123579580Y-68201666D02*
X123627200Y-68249285D01*
X123627200Y-68249285D02*
X123674819Y-68392142D01*
X123674819Y-68392142D02*
X123674819Y-68487380D01*
X123674819Y-68487380D02*
X123627200Y-68630237D01*
X123627200Y-68630237D02*
X123531961Y-68725475D01*
X123531961Y-68725475D02*
X123436723Y-68773094D01*
X123436723Y-68773094D02*
X123246247Y-68820713D01*
X123246247Y-68820713D02*
X123103390Y-68820713D01*
X123103390Y-68820713D02*
X122912914Y-68773094D01*
X122912914Y-68773094D02*
X122817676Y-68725475D01*
X122817676Y-68725475D02*
X122722438Y-68630237D01*
X122722438Y-68630237D02*
X122674819Y-68487380D01*
X122674819Y-68487380D02*
X122674819Y-68392142D01*
X122674819Y-68392142D02*
X122722438Y-68249285D01*
X122722438Y-68249285D02*
X122770057Y-68201666D01*
X122674819Y-67868332D02*
X122674819Y-67249285D01*
X122674819Y-67249285D02*
X123055771Y-67582618D01*
X123055771Y-67582618D02*
X123055771Y-67439761D01*
X123055771Y-67439761D02*
X123103390Y-67344523D01*
X123103390Y-67344523D02*
X123151009Y-67296904D01*
X123151009Y-67296904D02*
X123246247Y-67249285D01*
X123246247Y-67249285D02*
X123484342Y-67249285D01*
X123484342Y-67249285D02*
X123579580Y-67296904D01*
X123579580Y-67296904D02*
X123627200Y-67344523D01*
X123627200Y-67344523D02*
X123674819Y-67439761D01*
X123674819Y-67439761D02*
X123674819Y-67725475D01*
X123674819Y-67725475D02*
X123627200Y-67820713D01*
X123627200Y-67820713D02*
X123579580Y-67868332D01*
X179286666Y-73939819D02*
X179286666Y-74654104D01*
X179286666Y-74654104D02*
X179239047Y-74796961D01*
X179239047Y-74796961D02*
X179143809Y-74892200D01*
X179143809Y-74892200D02*
X179000952Y-74939819D01*
X179000952Y-74939819D02*
X178905714Y-74939819D01*
X179762857Y-74939819D02*
X179762857Y-73939819D01*
X179762857Y-73939819D02*
X180143809Y-73939819D01*
X180143809Y-73939819D02*
X180239047Y-73987438D01*
X180239047Y-73987438D02*
X180286666Y-74035057D01*
X180286666Y-74035057D02*
X180334285Y-74130295D01*
X180334285Y-74130295D02*
X180334285Y-74273152D01*
X180334285Y-74273152D02*
X180286666Y-74368390D01*
X180286666Y-74368390D02*
X180239047Y-74416009D01*
X180239047Y-74416009D02*
X180143809Y-74463628D01*
X180143809Y-74463628D02*
X179762857Y-74463628D01*
X181286666Y-74939819D02*
X180715238Y-74939819D01*
X181000952Y-74939819D02*
X181000952Y-73939819D01*
X181000952Y-73939819D02*
X180905714Y-74082676D01*
X180905714Y-74082676D02*
X180810476Y-74177914D01*
X180810476Y-74177914D02*
X180715238Y-74225533D01*
X188624819Y-73701666D02*
X188148628Y-74034999D01*
X188624819Y-74273094D02*
X187624819Y-74273094D01*
X187624819Y-74273094D02*
X187624819Y-73892142D01*
X187624819Y-73892142D02*
X187672438Y-73796904D01*
X187672438Y-73796904D02*
X187720057Y-73749285D01*
X187720057Y-73749285D02*
X187815295Y-73701666D01*
X187815295Y-73701666D02*
X187958152Y-73701666D01*
X187958152Y-73701666D02*
X188053390Y-73749285D01*
X188053390Y-73749285D02*
X188101009Y-73796904D01*
X188101009Y-73796904D02*
X188148628Y-73892142D01*
X188148628Y-73892142D02*
X188148628Y-74273094D01*
X187720057Y-73320713D02*
X187672438Y-73273094D01*
X187672438Y-73273094D02*
X187624819Y-73177856D01*
X187624819Y-73177856D02*
X187624819Y-72939761D01*
X187624819Y-72939761D02*
X187672438Y-72844523D01*
X187672438Y-72844523D02*
X187720057Y-72796904D01*
X187720057Y-72796904D02*
X187815295Y-72749285D01*
X187815295Y-72749285D02*
X187910533Y-72749285D01*
X187910533Y-72749285D02*
X188053390Y-72796904D01*
X188053390Y-72796904D02*
X188624819Y-73368332D01*
X188624819Y-73368332D02*
X188624819Y-72749285D01*
X188724819Y-66651666D02*
X188248628Y-66984999D01*
X188724819Y-67223094D02*
X187724819Y-67223094D01*
X187724819Y-67223094D02*
X187724819Y-66842142D01*
X187724819Y-66842142D02*
X187772438Y-66746904D01*
X187772438Y-66746904D02*
X187820057Y-66699285D01*
X187820057Y-66699285D02*
X187915295Y-66651666D01*
X187915295Y-66651666D02*
X188058152Y-66651666D01*
X188058152Y-66651666D02*
X188153390Y-66699285D01*
X188153390Y-66699285D02*
X188201009Y-66746904D01*
X188201009Y-66746904D02*
X188248628Y-66842142D01*
X188248628Y-66842142D02*
X188248628Y-67223094D01*
X187724819Y-66318332D02*
X187724819Y-65699285D01*
X187724819Y-65699285D02*
X188105771Y-66032618D01*
X188105771Y-66032618D02*
X188105771Y-65889761D01*
X188105771Y-65889761D02*
X188153390Y-65794523D01*
X188153390Y-65794523D02*
X188201009Y-65746904D01*
X188201009Y-65746904D02*
X188296247Y-65699285D01*
X188296247Y-65699285D02*
X188534342Y-65699285D01*
X188534342Y-65699285D02*
X188629580Y-65746904D01*
X188629580Y-65746904D02*
X188677200Y-65794523D01*
X188677200Y-65794523D02*
X188724819Y-65889761D01*
X188724819Y-65889761D02*
X188724819Y-66175475D01*
X188724819Y-66175475D02*
X188677200Y-66270713D01*
X188677200Y-66270713D02*
X188629580Y-66318332D01*
X150924819Y-64096904D02*
X151734342Y-64096904D01*
X151734342Y-64096904D02*
X151829580Y-64049285D01*
X151829580Y-64049285D02*
X151877200Y-64001666D01*
X151877200Y-64001666D02*
X151924819Y-63906428D01*
X151924819Y-63906428D02*
X151924819Y-63715952D01*
X151924819Y-63715952D02*
X151877200Y-63620714D01*
X151877200Y-63620714D02*
X151829580Y-63573095D01*
X151829580Y-63573095D02*
X151734342Y-63525476D01*
X151734342Y-63525476D02*
X150924819Y-63525476D01*
X151020057Y-63096904D02*
X150972438Y-63049285D01*
X150972438Y-63049285D02*
X150924819Y-62954047D01*
X150924819Y-62954047D02*
X150924819Y-62715952D01*
X150924819Y-62715952D02*
X150972438Y-62620714D01*
X150972438Y-62620714D02*
X151020057Y-62573095D01*
X151020057Y-62573095D02*
X151115295Y-62525476D01*
X151115295Y-62525476D02*
X151210533Y-62525476D01*
X151210533Y-62525476D02*
X151353390Y-62573095D01*
X151353390Y-62573095D02*
X151924819Y-63144523D01*
X151924819Y-63144523D02*
X151924819Y-62525476D01*
X188624819Y-80751666D02*
X188148628Y-81084999D01*
X188624819Y-81323094D02*
X187624819Y-81323094D01*
X187624819Y-81323094D02*
X187624819Y-80942142D01*
X187624819Y-80942142D02*
X187672438Y-80846904D01*
X187672438Y-80846904D02*
X187720057Y-80799285D01*
X187720057Y-80799285D02*
X187815295Y-80751666D01*
X187815295Y-80751666D02*
X187958152Y-80751666D01*
X187958152Y-80751666D02*
X188053390Y-80799285D01*
X188053390Y-80799285D02*
X188101009Y-80846904D01*
X188101009Y-80846904D02*
X188148628Y-80942142D01*
X188148628Y-80942142D02*
X188148628Y-81323094D01*
X188624819Y-79799285D02*
X188624819Y-80370713D01*
X188624819Y-80084999D02*
X187624819Y-80084999D01*
X187624819Y-80084999D02*
X187767676Y-80180237D01*
X187767676Y-80180237D02*
X187862914Y-80275475D01*
X187862914Y-80275475D02*
X187910533Y-80370713D01*
X116279819Y-77718333D02*
X116994104Y-77718333D01*
X116994104Y-77718333D02*
X117136961Y-77765952D01*
X117136961Y-77765952D02*
X117232200Y-77861190D01*
X117232200Y-77861190D02*
X117279819Y-78004047D01*
X117279819Y-78004047D02*
X117279819Y-78099285D01*
X117279819Y-77242142D02*
X116279819Y-77242142D01*
X116279819Y-77242142D02*
X116279819Y-76861190D01*
X116279819Y-76861190D02*
X116327438Y-76765952D01*
X116327438Y-76765952D02*
X116375057Y-76718333D01*
X116375057Y-76718333D02*
X116470295Y-76670714D01*
X116470295Y-76670714D02*
X116613152Y-76670714D01*
X116613152Y-76670714D02*
X116708390Y-76718333D01*
X116708390Y-76718333D02*
X116756009Y-76765952D01*
X116756009Y-76765952D02*
X116803628Y-76861190D01*
X116803628Y-76861190D02*
X116803628Y-77242142D01*
X116279819Y-76337380D02*
X116279819Y-75718333D01*
X116279819Y-75718333D02*
X116660771Y-76051666D01*
X116660771Y-76051666D02*
X116660771Y-75908809D01*
X116660771Y-75908809D02*
X116708390Y-75813571D01*
X116708390Y-75813571D02*
X116756009Y-75765952D01*
X116756009Y-75765952D02*
X116851247Y-75718333D01*
X116851247Y-75718333D02*
X117089342Y-75718333D01*
X117089342Y-75718333D02*
X117184580Y-75765952D01*
X117184580Y-75765952D02*
X117232200Y-75813571D01*
X117232200Y-75813571D02*
X117279819Y-75908809D01*
X117279819Y-75908809D02*
X117279819Y-76194523D01*
X117279819Y-76194523D02*
X117232200Y-76289761D01*
X117232200Y-76289761D02*
X117184580Y-76337380D01*
X183836666Y-73939819D02*
X183836666Y-74654104D01*
X183836666Y-74654104D02*
X183789047Y-74796961D01*
X183789047Y-74796961D02*
X183693809Y-74892200D01*
X183693809Y-74892200D02*
X183550952Y-74939819D01*
X183550952Y-74939819D02*
X183455714Y-74939819D01*
X184312857Y-74939819D02*
X184312857Y-73939819D01*
X184312857Y-73939819D02*
X184693809Y-73939819D01*
X184693809Y-73939819D02*
X184789047Y-73987438D01*
X184789047Y-73987438D02*
X184836666Y-74035057D01*
X184836666Y-74035057D02*
X184884285Y-74130295D01*
X184884285Y-74130295D02*
X184884285Y-74273152D01*
X184884285Y-74273152D02*
X184836666Y-74368390D01*
X184836666Y-74368390D02*
X184789047Y-74416009D01*
X184789047Y-74416009D02*
X184693809Y-74463628D01*
X184693809Y-74463628D02*
X184312857Y-74463628D01*
X185265238Y-74035057D02*
X185312857Y-73987438D01*
X185312857Y-73987438D02*
X185408095Y-73939819D01*
X185408095Y-73939819D02*
X185646190Y-73939819D01*
X185646190Y-73939819D02*
X185741428Y-73987438D01*
X185741428Y-73987438D02*
X185789047Y-74035057D01*
X185789047Y-74035057D02*
X185836666Y-74130295D01*
X185836666Y-74130295D02*
X185836666Y-74225533D01*
X185836666Y-74225533D02*
X185789047Y-74368390D01*
X185789047Y-74368390D02*
X185217619Y-74939819D01*
X185217619Y-74939819D02*
X185836666Y-74939819D01*
X123874819Y-76496904D02*
X124684342Y-76496904D01*
X124684342Y-76496904D02*
X124779580Y-76449285D01*
X124779580Y-76449285D02*
X124827200Y-76401666D01*
X124827200Y-76401666D02*
X124874819Y-76306428D01*
X124874819Y-76306428D02*
X124874819Y-76115952D01*
X124874819Y-76115952D02*
X124827200Y-76020714D01*
X124827200Y-76020714D02*
X124779580Y-75973095D01*
X124779580Y-75973095D02*
X124684342Y-75925476D01*
X124684342Y-75925476D02*
X123874819Y-75925476D01*
X124874819Y-74925476D02*
X124874819Y-75496904D01*
X124874819Y-75211190D02*
X123874819Y-75211190D01*
X123874819Y-75211190D02*
X124017676Y-75306428D01*
X124017676Y-75306428D02*
X124112914Y-75401666D01*
X124112914Y-75401666D02*
X124160533Y-75496904D01*
D12*
%TO.C,U3*%
X104580000Y-65170000D02*
X110590000Y-65170000D01*
X106830000Y-71990000D02*
X110590000Y-71990000D01*
X110590000Y-65170000D02*
X110590000Y-66430000D01*
X110590000Y-71990000D02*
X110590000Y-70730000D01*
%TO.C,C1*%
X95110000Y-66234437D02*
X95110000Y-71990000D01*
X95110000Y-71990000D02*
X97460000Y-71990000D01*
X96174437Y-65170000D02*
X95110000Y-66234437D01*
X96174437Y-65170000D02*
X97460000Y-65170000D01*
X100367500Y-64142500D02*
X100367500Y-64930000D01*
X100761250Y-64536250D02*
X99973750Y-64536250D01*
X100865563Y-65170000D02*
X99580000Y-65170000D01*
X100865563Y-65170000D02*
X101930000Y-66234437D01*
X101930000Y-66234437D02*
X101930000Y-71990000D01*
X101930000Y-71990000D02*
X99580000Y-71990000D01*
%TO.C,C4*%
X149985000Y-70473748D02*
X149985000Y-70996252D01*
X151455000Y-70473748D02*
X151455000Y-70996252D01*
%TO.C,C2*%
X114795000Y-66234437D02*
X114795000Y-71990000D01*
X114795000Y-71990000D02*
X117145000Y-71990000D01*
X115859437Y-65170000D02*
X114795000Y-66234437D01*
X115859437Y-65170000D02*
X117145000Y-65170000D01*
X120052500Y-64142500D02*
X120052500Y-64930000D01*
X120446250Y-64536250D02*
X119658750Y-64536250D01*
X120550563Y-65170000D02*
X119265000Y-65170000D01*
X120550563Y-65170000D02*
X121615000Y-66234437D01*
X121615000Y-66234437D02*
X121615000Y-71990000D01*
X121615000Y-71990000D02*
X119265000Y-71990000D01*
%TO.C,C3*%
X122535000Y-64461248D02*
X122535000Y-64983752D01*
X124005000Y-64461248D02*
X124005000Y-64983752D01*
%TO.C,JP1*%
X178840000Y-68065000D02*
X180170000Y-68065000D01*
X178840000Y-69395000D02*
X178840000Y-68065000D01*
X178840000Y-70665000D02*
X178840000Y-73265000D01*
X178840000Y-70665000D02*
X181500000Y-70665000D01*
X178840000Y-73265000D02*
X181500000Y-73265000D01*
X181500000Y-70665000D02*
X181500000Y-73265000D01*
%TO.C,J1*%
X94440000Y-52485000D02*
X94440000Y-58045000D01*
X94440000Y-58045000D02*
X99960000Y-58045000D01*
X99959000Y-57045000D02*
X101235000Y-57045000D01*
X99960000Y-58045000D02*
X99960000Y-57045000D01*
X103425000Y-57045000D02*
X104001000Y-57045000D01*
X105740000Y-57045000D02*
X106541000Y-57045000D01*
X108280000Y-57045000D02*
X109081000Y-57045000D01*
X110820000Y-57045000D02*
X111621000Y-57045000D01*
X114160000Y-57045000D02*
X113359000Y-57045000D01*
X116700000Y-57045000D02*
X115899000Y-57045000D01*
X119240000Y-57045000D02*
X118439000Y-57045000D01*
X121780000Y-57045000D02*
X120979000Y-57045000D01*
X124320000Y-57045000D02*
X123519000Y-57045000D01*
X126860000Y-57045000D02*
X126059000Y-57045000D01*
X129400000Y-57045000D02*
X128599000Y-57045000D01*
X131940000Y-57045000D02*
X131139000Y-57045000D01*
X134480000Y-57045000D02*
X133679000Y-57045000D01*
X137020000Y-57045000D02*
X136219000Y-57045000D01*
X139560000Y-57045000D02*
X138759000Y-57045000D01*
X142100000Y-57045000D02*
X141299000Y-57045000D01*
X144640000Y-57045000D02*
X143839000Y-57045000D01*
X147180000Y-57045000D02*
X146379000Y-57045000D01*
X149720000Y-57045000D02*
X148919000Y-57045000D01*
X152260000Y-57045000D02*
X151459000Y-57045000D01*
X154800000Y-57045000D02*
X153999000Y-57045000D01*
X157340000Y-57045000D02*
X156539000Y-57045000D01*
X159880000Y-57045000D02*
X159079000Y-57045000D01*
X162420000Y-57045000D02*
X161619000Y-57045000D01*
X164960000Y-57045000D02*
X164159000Y-57045000D01*
X167500000Y-57045000D02*
X166699000Y-57045000D01*
X170040000Y-57045000D02*
X169239000Y-57045000D01*
X171780000Y-57045000D02*
X172581000Y-57045000D01*
X174320000Y-57045000D02*
X175121000Y-57045000D01*
X176860000Y-57045000D02*
X177661000Y-57045000D01*
X179400000Y-57045000D02*
X180201000Y-57045000D01*
X181940000Y-57045000D02*
X183440000Y-57045000D01*
X182340000Y-57785000D02*
X182940000Y-57485000D01*
X182940000Y-57485000D02*
X182940000Y-58085000D01*
X182940000Y-58085000D02*
X182340000Y-57785000D01*
X183440000Y-58045000D02*
X183440000Y-57045000D01*
X188960000Y-52485000D02*
X188960000Y-58045000D01*
X188960000Y-58045000D02*
X183440000Y-58045000D01*
%TO.C,R2*%
X187485000Y-70442936D02*
X187485000Y-70897064D01*
X188955000Y-70442936D02*
X188955000Y-70897064D01*
%TO.C,J2*%
X94440000Y-82925000D02*
X99960000Y-82925000D01*
X94440000Y-88485000D02*
X94440000Y-82925000D01*
X99960000Y-82925000D02*
X99960000Y-83925000D01*
X101460000Y-83925000D02*
X99960000Y-83925000D01*
X103415000Y-83925000D02*
X103991000Y-83925000D01*
X105730000Y-83925000D02*
X106531000Y-83925000D01*
X108270000Y-83925000D02*
X109071000Y-83925000D01*
X110810000Y-83925000D02*
X111611000Y-83925000D01*
X113350000Y-83925000D02*
X114151000Y-83925000D01*
X115890000Y-83925000D02*
X116691000Y-83925000D01*
X118430000Y-83925000D02*
X119231000Y-83925000D01*
X120970000Y-83925000D02*
X121771000Y-83925000D01*
X123510000Y-83925000D02*
X124311000Y-83925000D01*
X126050000Y-83925000D02*
X126851000Y-83925000D01*
X128590000Y-83925000D02*
X129391000Y-83925000D01*
X131130000Y-83925000D02*
X131931000Y-83925000D01*
X133670000Y-83925000D02*
X134471000Y-83925000D01*
X136210000Y-83925000D02*
X137011000Y-83925000D01*
X138750000Y-83925000D02*
X139551000Y-83925000D01*
X141290000Y-83925000D02*
X142091000Y-83925000D01*
X143830000Y-83925000D02*
X144631000Y-83925000D01*
X146370000Y-83925000D02*
X147171000Y-83925000D01*
X148910000Y-83925000D02*
X149711000Y-83925000D01*
X151450000Y-83925000D02*
X152251000Y-83925000D01*
X153990000Y-83925000D02*
X154791000Y-83925000D01*
X156530000Y-83925000D02*
X157331000Y-83925000D01*
X159070000Y-83925000D02*
X159871000Y-83925000D01*
X161610000Y-83925000D02*
X162411000Y-83925000D01*
X164150000Y-83925000D02*
X164951000Y-83925000D01*
X166690000Y-83925000D02*
X167491000Y-83925000D01*
X169230000Y-83925000D02*
X170031000Y-83925000D01*
X171770000Y-83925000D02*
X172571000Y-83925000D01*
X174310000Y-83925000D02*
X175111000Y-83925000D01*
X176850000Y-83925000D02*
X177651000Y-83925000D01*
X179390000Y-83925000D02*
X180191000Y-83925000D01*
X182165000Y-83185000D02*
X182765000Y-83485000D01*
X182765000Y-82885000D02*
X182165000Y-83185000D01*
X182765000Y-83485000D02*
X182765000Y-82885000D01*
X183440000Y-82925000D02*
X183440000Y-83925000D01*
X183441000Y-83925000D02*
X182165000Y-83925000D01*
X188960000Y-82925000D02*
X183440000Y-82925000D01*
X188960000Y-88485000D02*
X188960000Y-82925000D01*
%TO.C,R3*%
X187535000Y-63762064D02*
X187535000Y-63307936D01*
X189005000Y-63762064D02*
X189005000Y-63307936D01*
%TO.C,U2*%
X152545000Y-62510000D02*
X152545000Y-69485000D01*
X152545000Y-71485000D02*
X152545000Y-77460000D01*
X152545000Y-77460000D02*
X153545000Y-78460000D01*
X153545000Y-78460000D02*
X168495000Y-78460000D01*
D13*
X155355000Y-65320000D02*
X157005000Y-65320000D01*
X155355000Y-66970000D02*
X155355000Y-65320000D01*
X155355000Y-74000000D02*
X155355000Y-74500000D01*
X155355000Y-74500000D02*
X156505000Y-75650000D01*
X156505000Y-75650000D02*
X157005000Y-75650000D01*
X165685000Y-65320000D02*
X164035000Y-65320000D01*
X165685000Y-66970000D02*
X165685000Y-65320000D01*
X165685000Y-74000000D02*
X165685000Y-75650000D01*
X165685000Y-75650000D02*
X164035000Y-75650000D01*
D12*
X168495000Y-62510000D02*
X152545000Y-62510000D01*
X168495000Y-78460000D02*
X168495000Y-62510000D01*
%TO.C,R1*%
X187485000Y-77407936D02*
X187485000Y-77862064D01*
X188955000Y-77407936D02*
X188955000Y-77862064D01*
%TO.C,JP3*%
X108085000Y-75555000D02*
X108085000Y-78215000D01*
X113225000Y-75555000D02*
X108085000Y-75555000D01*
X113225000Y-75555000D02*
X113225000Y-78215000D01*
X113225000Y-78215000D02*
X108085000Y-78215000D01*
X114495000Y-75555000D02*
X115825000Y-75555000D01*
X115825000Y-75555000D02*
X115825000Y-76885000D01*
%TO.C,JP2*%
X183490000Y-68065000D02*
X184820000Y-68065000D01*
X183490000Y-69395000D02*
X183490000Y-68065000D01*
X183490000Y-70665000D02*
X183490000Y-73265000D01*
X183490000Y-70665000D02*
X186150000Y-70665000D01*
X183490000Y-73265000D02*
X186150000Y-73265000D01*
X186150000Y-70665000D02*
X186150000Y-73265000D01*
%TO.C,U1*%
X125562500Y-64872500D02*
X125835000Y-64872500D01*
X125562500Y-70635000D02*
X125562500Y-64872500D01*
X125562500Y-70635000D02*
X125562500Y-76397500D01*
X125562500Y-76397500D02*
X125835000Y-76397500D01*
X125835000Y-76397500D02*
X125835000Y-78210000D01*
X146277500Y-64872500D02*
X146005000Y-64872500D01*
X146277500Y-70635000D02*
X146277500Y-64872500D01*
X146277500Y-70635000D02*
X146277500Y-76397500D01*
X146277500Y-76397500D02*
X146005000Y-76397500D01*
%TD*%
M02*
