%TF.GenerationSoftware,KiCad,Pcbnew,8.0.1*%
%TF.CreationDate,2025-01-20T18:27:25+01:00*%
%TF.ProjectId,qlexternal512kram_MIX,716c6578-7465-4726-9e61-6c3531326b72,3*%
%TF.SameCoordinates,Original*%
%TF.FileFunction,Copper,L2,Bot*%
%TF.FilePolarity,Positive*%
%FSLAX46Y46*%
G04 Gerber Fmt 4.6, Leading zero omitted, Abs format (unit mm)*
G04 Created by KiCad (PCBNEW 8.0.1) date 2025-01-20 18:27:25*
%MOMM*%
%LPD*%
G01*
G04 APERTURE LIST*
G04 Aperture macros list*
%AMRoundRect*
0 Rectangle with rounded corners*
0 $1 Rounding radius*
0 $2 $3 $4 $5 $6 $7 $8 $9 X,Y pos of 4 corners*
0 Add a 4 corners polygon primitive as box body*
4,1,4,$2,$3,$4,$5,$6,$7,$8,$9,$2,$3,0*
0 Add four circle primitives for the rounded corners*
1,1,$1+$1,$2,$3*
1,1,$1+$1,$4,$5*
1,1,$1+$1,$6,$7*
1,1,$1+$1,$8,$9*
0 Add four rect primitives between the rounded corners*
20,1,$1+$1,$2,$3,$4,$5,0*
20,1,$1+$1,$4,$5,$6,$7,0*
20,1,$1+$1,$6,$7,$8,$9,0*
20,1,$1+$1,$8,$9,$2,$3,0*%
G04 Aperture macros list end*
%TA.AperFunction,ComponentPad*%
%ADD10R,1.700000X1.700000*%
%TD*%
%TA.AperFunction,ComponentPad*%
%ADD11O,1.700000X1.700000*%
%TD*%
%TA.AperFunction,ComponentPad*%
%ADD12RoundRect,0.249999X0.525001X0.525001X-0.525001X0.525001X-0.525001X-0.525001X0.525001X-0.525001X0*%
%TD*%
%TA.AperFunction,ComponentPad*%
%ADD13C,1.550000*%
%TD*%
%TA.AperFunction,ComponentPad*%
%ADD14RoundRect,0.249999X-0.525001X-0.525001X0.525001X-0.525001X0.525001X0.525001X-0.525001X0.525001X0*%
%TD*%
%TA.AperFunction,ViaPad*%
%ADD15C,0.800000*%
%TD*%
%TA.AperFunction,ViaPad*%
%ADD16C,1.000000*%
%TD*%
%TA.AperFunction,Conductor*%
%ADD17C,0.750000*%
%TD*%
%TA.AperFunction,Conductor*%
%ADD18C,0.500000*%
%TD*%
%TA.AperFunction,Conductor*%
%ADD19C,0.250000*%
%TD*%
G04 APERTURE END LIST*
D10*
%TO.P,JP1,1,Pin_1*%
%TO.N,GND*%
X180170000Y-69395000D03*
D11*
%TO.P,JP1,2,Pin_2*%
%TO.N,Net-(JP1-Pin_2)*%
X180170000Y-71935000D03*
%TD*%
D12*
%TO.P,J1,a1,GND*%
%TO.N,GND*%
X181070000Y-57785000D03*
D13*
%TO.P,J1,a2,D3*%
%TO.N,/D3*%
X178530000Y-57785000D03*
%TO.P,J1,a3,D4*%
%TO.N,/D4*%
X175990000Y-57785000D03*
%TO.P,J1,a4,D5*%
%TO.N,/D5*%
X173450000Y-57785000D03*
%TO.P,J1,a5,D6*%
%TO.N,/D6*%
X170910000Y-57785000D03*
%TO.P,J1,a6,D7*%
%TO.N,/D7*%
X168370000Y-57785000D03*
%TO.P,J1,a7,A19*%
%TO.N,/A19*%
X165830000Y-57785000D03*
%TO.P,J1,a8,A18*%
%TO.N,/A18*%
X163290000Y-57785000D03*
%TO.P,J1,a9,A17*%
%TO.N,/A17*%
X160750000Y-57785000D03*
%TO.P,J1,a10,A16*%
%TO.N,/A16*%
X158210000Y-57785000D03*
%TO.P,J1,a11,CLKCPU*%
%TO.N,/CLKCPU*%
X155670000Y-57785000D03*
%TO.P,J1,a12,RED*%
%TO.N,/RED*%
X153130000Y-57785000D03*
%TO.P,J1,a13,A14*%
%TO.N,/A14*%
X150590000Y-57785000D03*
%TO.P,J1,a14,A13*%
%TO.N,/A13*%
X148050000Y-57785000D03*
%TO.P,J1,a15,A12*%
%TO.N,/A12*%
X145510000Y-57785000D03*
%TO.P,J1,a16,A11*%
%TO.N,/A11*%
X142970000Y-57785000D03*
%TO.P,J1,a17,A10*%
%TO.N,/A10*%
X140430000Y-57785000D03*
%TO.P,J1,a18,A9*%
%TO.N,/A9*%
X137890000Y-57785000D03*
%TO.P,J1,a19,A8*%
%TO.N,/A8*%
X135350000Y-57785000D03*
%TO.P,J1,a20,A7*%
%TO.N,/A7*%
X132810000Y-57785000D03*
%TO.P,J1,a21,A6*%
%TO.N,/A6*%
X130270000Y-57785000D03*
%TO.P,J1,a22,A5*%
%TO.N,/A5*%
X127730000Y-57785000D03*
%TO.P,J1,a23,A4*%
%TO.N,/A4*%
X125190000Y-57785000D03*
%TO.P,J1,a24,A3*%
%TO.N,/A3*%
X122650000Y-57785000D03*
%TO.P,J1,a25,~{DBG}*%
%TO.N,/DBG*%
X120110000Y-57785000D03*
%TO.P,J1,a26,SP2*%
%TO.N,/SP2*%
X117570000Y-57785000D03*
%TO.P,J1,a27,~{DSMC}*%
%TO.N,/DSMC*%
X115030000Y-57785000D03*
%TO.P,J1,a28,SP1*%
%TO.N,/SP1*%
X112490000Y-57785000D03*
%TO.P,J1,a29,SP0*%
%TO.N,/SP0*%
X109950000Y-57785000D03*
%TO.P,J1,a30,+12V*%
%TO.N,/ma12v*%
X107410000Y-57785000D03*
%TO.P,J1,a31,-12V*%
%TO.N,/me12v*%
X104870000Y-57785000D03*
%TO.P,J1,a32,Vin*%
%TO.N,+9V*%
X102330000Y-57785000D03*
%TO.P,J1,b1,GND*%
%TO.N,GND*%
X181070000Y-60325000D03*
%TO.P,J1,b2,D2*%
%TO.N,/D2*%
X178530000Y-60325000D03*
%TO.P,J1,b3,D1*%
%TO.N,/D1*%
X175990000Y-60325000D03*
%TO.P,J1,b4,D0*%
%TO.N,/D0*%
X173450000Y-60325000D03*
%TO.P,J1,b5,~{AS}*%
%TO.N,/AS*%
X170910000Y-60325000D03*
%TO.P,J1,b6,~{DS}*%
%TO.N,/DS*%
X168370000Y-60325000D03*
%TO.P,J1,b7,~{DRW}*%
%TO.N,/RW*%
X165830000Y-60325000D03*
%TO.P,J1,b8,~{DTACK}*%
%TO.N,/DTACK*%
X163290000Y-60325000D03*
%TO.P,J1,b9,~{BG}*%
%TO.N,/BG*%
X160750000Y-60325000D03*
%TO.P,J1,b10,~{BR}*%
%TO.N,/BR*%
X158210000Y-60325000D03*
%TO.P,J1,b11,A15*%
%TO.N,/A15*%
X155670000Y-60325000D03*
%TO.P,J1,b12,~{RESETCPU}*%
%TO.N,/RESET*%
X153130000Y-60325000D03*
%TO.P,J1,b13,~{CSYNC}*%
%TO.N,/CSYNC*%
X150590000Y-60325000D03*
%TO.P,J1,b14,E*%
%TO.N,/E*%
X148050000Y-60325000D03*
%TO.P,J1,b15,VSYNCH*%
%TO.N,/VSYNC*%
X145510000Y-60325000D03*
%TO.P,J1,b16,~{VPA}*%
%TO.N,/VPA*%
X142970000Y-60325000D03*
%TO.P,J1,b17,GREEN*%
%TO.N,/GREEN*%
X140430000Y-60325000D03*
%TO.P,J1,b18,BLUE*%
%TO.N,/BLUE*%
X137890000Y-60325000D03*
%TO.P,J1,b19,FC2*%
%TO.N,/FC2*%
X135350000Y-60325000D03*
%TO.P,J1,b20,FC1*%
%TO.N,/FC1*%
X132810000Y-60325000D03*
%TO.P,J1,b21,FC0*%
%TO.N,/FC0*%
X130270000Y-60325000D03*
%TO.P,J1,b22,A0*%
%TO.N,/A0*%
X127730000Y-60325000D03*
%TO.P,J1,b23,ROMOEH*%
%TO.N,/ROMOE*%
X125190000Y-60325000D03*
%TO.P,J1,b24,A1*%
%TO.N,/A1*%
X122650000Y-60325000D03*
%TO.P,J1,b25,A2*%
%TO.N,/A2*%
X120110000Y-60325000D03*
%TO.P,J1,b26,SP3*%
%TO.N,/SP3*%
X117570000Y-60325000D03*
%TO.P,J1,b27,~{IPLO}*%
%TO.N,/IPL0*%
X115030000Y-60325000D03*
%TO.P,J1,b28,~{BERR}*%
%TO.N,/BERR*%
X112490000Y-60325000D03*
%TO.P,J1,b29,~{IPL1}*%
%TO.N,/IPL1*%
X109950000Y-60325000D03*
%TO.P,J1,b30,~{EXTINT}*%
%TO.N,/EXTINT*%
X107410000Y-60325000D03*
%TO.P,J1,b31,Vin*%
%TO.N,+9V*%
X104870000Y-60325000D03*
%TO.P,J1,b32,Vin*%
X102330000Y-60325000D03*
%TD*%
D14*
%TO.P,J2,a1,GND*%
%TO.N,GND*%
X181060000Y-83185000D03*
D13*
%TO.P,J2,a2,D3*%
%TO.N,/D3*%
X178520000Y-83185000D03*
%TO.P,J2,a3,D4*%
%TO.N,/D4*%
X175980000Y-83185000D03*
%TO.P,J2,a4,D5*%
%TO.N,/D5*%
X173440000Y-83185000D03*
%TO.P,J2,a5,D6*%
%TO.N,/D6*%
X170900000Y-83185000D03*
%TO.P,J2,a6,D7*%
%TO.N,/D7*%
X168360000Y-83185000D03*
%TO.P,J2,a7,A19*%
%TO.N,/A19*%
X165820000Y-83185000D03*
%TO.P,J2,a8,A18*%
%TO.N,/A18*%
X163280000Y-83185000D03*
%TO.P,J2,a9,A17*%
%TO.N,/A17*%
X160740000Y-83185000D03*
%TO.P,J2,a10,A16*%
%TO.N,/A16*%
X158200000Y-83185000D03*
%TO.P,J2,a11,CLKCPU*%
%TO.N,/CLKCPU*%
X155660000Y-83185000D03*
%TO.P,J2,a12,RED*%
%TO.N,/RED*%
X153120000Y-83185000D03*
%TO.P,J2,a13,A14*%
%TO.N,/A14*%
X150580000Y-83185000D03*
%TO.P,J2,a14,A13*%
%TO.N,/A13*%
X148040000Y-83185000D03*
%TO.P,J2,a15,A12*%
%TO.N,/A12*%
X145500000Y-83185000D03*
%TO.P,J2,a16,A11*%
%TO.N,/A11*%
X142960000Y-83185000D03*
%TO.P,J2,a17,A10*%
%TO.N,/A10*%
X140420000Y-83185000D03*
%TO.P,J2,a18,A9*%
%TO.N,/A9*%
X137880000Y-83185000D03*
%TO.P,J2,a19,A8*%
%TO.N,/A8*%
X135340000Y-83185000D03*
%TO.P,J2,a20,A7*%
%TO.N,/A7*%
X132800000Y-83185000D03*
%TO.P,J2,a21,A6*%
%TO.N,/A6*%
X130260000Y-83185000D03*
%TO.P,J2,a22,A5*%
%TO.N,/A5*%
X127720000Y-83185000D03*
%TO.P,J2,a23,A4*%
%TO.N,/A4*%
X125180000Y-83185000D03*
%TO.P,J2,a24,A3*%
%TO.N,/A3*%
X122640000Y-83185000D03*
%TO.P,J2,a25,~{DBG}*%
%TO.N,/DBG*%
X120100000Y-83185000D03*
%TO.P,J2,a26,SP2*%
%TO.N,/SP2*%
X117560000Y-83185000D03*
%TO.P,J2,a27,~{DSMC}*%
%TO.N,/DSMC*%
X115020000Y-83185000D03*
%TO.P,J2,a28,SP1*%
%TO.N,/SP1*%
X112480000Y-83185000D03*
%TO.P,J2,a29,SP0*%
%TO.N,/SP0*%
X109940000Y-83185000D03*
%TO.P,J2,a30,+12V*%
%TO.N,/ma12v*%
X107400000Y-83185000D03*
%TO.P,J2,a31,-12V*%
%TO.N,/me12v*%
X104860000Y-83185000D03*
%TO.P,J2,a32,Vin*%
%TO.N,+9V*%
X102320000Y-83185000D03*
%TO.P,J2,b1,GND*%
%TO.N,GND*%
X181060000Y-80645000D03*
%TO.P,J2,b2,D2*%
%TO.N,/D2*%
X178520000Y-80645000D03*
%TO.P,J2,b3,D1*%
%TO.N,/D1*%
X175980000Y-80645000D03*
%TO.P,J2,b4,D0*%
%TO.N,/D0*%
X173440000Y-80645000D03*
%TO.P,J2,b5,~{AS}*%
%TO.N,/AS*%
X170900000Y-80645000D03*
%TO.P,J2,b6,~{DS}*%
%TO.N,/DS*%
X168360000Y-80645000D03*
%TO.P,J2,b7,~{DRW}*%
%TO.N,/RW*%
X165820000Y-80645000D03*
%TO.P,J2,b8,~{DTACK}*%
%TO.N,/DTACK*%
X163280000Y-80645000D03*
%TO.P,J2,b9,~{BG}*%
%TO.N,/BG*%
X160740000Y-80645000D03*
%TO.P,J2,b10,~{BR}*%
%TO.N,/BR*%
X158200000Y-80645000D03*
%TO.P,J2,b11,A15*%
%TO.N,/A15*%
X155660000Y-80645000D03*
%TO.P,J2,b12,~{RESETCPU}*%
%TO.N,/RESET*%
X153120000Y-80645000D03*
%TO.P,J2,b13,~{CSYNC}*%
%TO.N,/CSYNC*%
X150580000Y-80645000D03*
%TO.P,J2,b14,E*%
%TO.N,/E*%
X148040000Y-80645000D03*
%TO.P,J2,b15,VSYNCH*%
%TO.N,/VSYNC*%
X145500000Y-80645000D03*
%TO.P,J2,b16,~{VPA}*%
%TO.N,/VPA*%
X142960000Y-80645000D03*
%TO.P,J2,b17,GREEN*%
%TO.N,/GREEN*%
X140420000Y-80645000D03*
%TO.P,J2,b18,BLUE*%
%TO.N,/BLUE*%
X137880000Y-80645000D03*
%TO.P,J2,b19,FC2*%
%TO.N,/FC2*%
X135340000Y-80645000D03*
%TO.P,J2,b20,FC1*%
%TO.N,/FC1*%
X132800000Y-80645000D03*
%TO.P,J2,b21,FC0*%
%TO.N,/FC0*%
X130260000Y-80645000D03*
%TO.P,J2,b22,A0*%
%TO.N,/A0*%
X127720000Y-80645000D03*
%TO.P,J2,b23,ROMOEH*%
%TO.N,/ROMOE*%
X125180000Y-80645000D03*
%TO.P,J2,b24,A1*%
%TO.N,/A1*%
X122640000Y-80645000D03*
%TO.P,J2,b25,A2*%
%TO.N,/A2*%
X120100000Y-80645000D03*
%TO.P,J2,b26,SP3*%
%TO.N,/SP3*%
X117560000Y-80645000D03*
%TO.P,J2,b27,~{IPLO}*%
%TO.N,/IPL0*%
X115020000Y-80645000D03*
%TO.P,J2,b28,~{BERR}*%
%TO.N,Net-(J2-~{BERR})*%
X112480000Y-80645000D03*
%TO.P,J2,b29,~{IPL1}*%
%TO.N,/IPL1*%
X109940000Y-80645000D03*
%TO.P,J2,b30,~{EXTINT}*%
%TO.N,/EXTINT*%
X107400000Y-80645000D03*
%TO.P,J2,b31,Vin*%
%TO.N,+9V*%
X104860000Y-80645000D03*
%TO.P,J2,b32,Vin*%
X102320000Y-80645000D03*
%TD*%
D10*
%TO.P,JP3,1,Pin_1*%
%TO.N,Net-(JP3-Pin_1)*%
X114495000Y-76885000D03*
D11*
%TO.P,JP3,2,Pin_2*%
%TO.N,/BERR*%
X111955000Y-76885000D03*
%TO.P,JP3,3,Pin_3*%
%TO.N,Net-(J2-~{BERR})*%
X109415000Y-76885000D03*
%TD*%
D10*
%TO.P,JP2,1,Pin_1*%
%TO.N,GND*%
X184820000Y-69395000D03*
D11*
%TO.P,JP2,2,Pin_2*%
%TO.N,Net-(JP2-Pin_2)*%
X184820000Y-71935000D03*
%TD*%
D15*
%TO.N,GND*%
X103370000Y-86985000D03*
X181120000Y-87185000D03*
X95520000Y-74135000D03*
X128220000Y-53885000D03*
X176370000Y-53985000D03*
X122620000Y-87185000D03*
X183270000Y-78585000D03*
X98120000Y-59285000D03*
X154820000Y-53885000D03*
X152020000Y-87185000D03*
X142320000Y-87185000D03*
X170320000Y-56185000D03*
X115820000Y-54035000D03*
X171420000Y-87185000D03*
X103120000Y-67185000D03*
X97320000Y-81135000D03*
X136670000Y-56285000D03*
X132620000Y-87185000D03*
X180470000Y-62685000D03*
X131070000Y-56285000D03*
X111920000Y-87185000D03*
X165520000Y-53935000D03*
X105170000Y-54135000D03*
X161720000Y-87185000D03*
X140520000Y-53885000D03*
X95770000Y-66935000D03*
D16*
%TO.N,VCC*%
X188270000Y-64535000D03*
X188220000Y-69670000D03*
D15*
%TO.N,/A6*%
X129373000Y-79337000D03*
%TO.N,/A7*%
X131475000Y-75557700D03*
%TO.N,/A8*%
X134080000Y-66571500D03*
%TO.N,/A9*%
X136620000Y-66908800D03*
%TO.N,/A10*%
X139149000Y-66245800D03*
%TO.N,/D7*%
X169137000Y-85063200D03*
%TO.N,/A1*%
X138067000Y-85114200D03*
%TO.N,/A13*%
X146820000Y-68185000D03*
%TO.N,/A14*%
X149320000Y-73935000D03*
%TO.N,/A16*%
X156920000Y-77400000D03*
X156467500Y-73025000D03*
%TO.N,/A17*%
X159470000Y-71685000D03*
X149074000Y-55985700D03*
%TO.N,/A18*%
X162044000Y-70485000D03*
%TO.N,/A19*%
X164670000Y-73035000D03*
%TO.N,/A15*%
X155670000Y-74485000D03*
X140641000Y-85155800D03*
X101520000Y-64835000D03*
%TO.N,/DS*%
X168420000Y-75785000D03*
%TO.N,/AS*%
X170915000Y-75685000D03*
%TO.N,/DTACK*%
X163060000Y-66432500D03*
%TO.N,Net-(JP3-Pin_1)*%
X187420000Y-60835000D03*
X118438000Y-55494500D03*
X184846000Y-58211000D03*
X113670000Y-86335000D03*
%TO.N,Net-(JP1-Pin_2)*%
X185870000Y-81185000D03*
X180100000Y-74435000D03*
X185170000Y-74435000D03*
%TO.N,Net-(JP2-Pin_2)*%
X188220000Y-71670000D03*
%TD*%
D17*
%TO.N,+9V*%
X102320000Y-80645000D02*
X102320000Y-83185000D01*
X102330000Y-60325000D02*
X102330000Y-57785000D01*
%TO.N,GND*%
X182420000Y-61675000D02*
X181070000Y-60325000D01*
X181060000Y-80645000D02*
X181075000Y-80630000D01*
X181075000Y-80630000D02*
X181075000Y-75740000D01*
X181060000Y-80645000D02*
X181060000Y-83185000D01*
X181075000Y-75740000D02*
X182420000Y-74395000D01*
X182420000Y-74395000D02*
X182420000Y-61675000D01*
X181070000Y-60325000D02*
X181070000Y-57785000D01*
D18*
%TO.N,VCC*%
X188220000Y-69670000D02*
X187770000Y-69220000D01*
X187770000Y-69220000D02*
X187770000Y-65035000D01*
X187770000Y-65035000D02*
X188270000Y-64535000D01*
D19*
%TO.N,/A3*%
X121380000Y-78225000D02*
X121380000Y-81915000D01*
X121380000Y-73025000D02*
X121380000Y-59090000D01*
X121380000Y-73025000D02*
X121380000Y-78225000D01*
X122645000Y-83180000D02*
X122650000Y-83185000D01*
X121380000Y-59090000D02*
X122650000Y-57820000D01*
X122640000Y-83185000D02*
X122645000Y-83180000D01*
X121380000Y-81915000D02*
X122645000Y-83180000D01*
X121380000Y-73025000D02*
X121380000Y-78225000D01*
X122650000Y-57820000D02*
X122650000Y-57785000D01*
%TO.N,/A4*%
X125180000Y-83185000D02*
X125185000Y-83180000D01*
X123920000Y-59090000D02*
X125190000Y-57820000D01*
X125185000Y-83180000D02*
X123920000Y-81915000D01*
X123920000Y-81915000D02*
X123920000Y-59090000D01*
X125190000Y-57820000D02*
X125190000Y-57785000D01*
X125190000Y-83185000D02*
X125185000Y-83180000D01*
%TO.N,/A5*%
X127730000Y-57820000D02*
X127730000Y-57785000D01*
X127720000Y-83175000D02*
X126460000Y-81915000D01*
X126460000Y-59090000D02*
X127730000Y-57820000D01*
X127720000Y-83175000D02*
X127720000Y-83185000D01*
X127730000Y-83185000D02*
X127720000Y-83175000D01*
X126460000Y-81915000D02*
X126460000Y-59090000D01*
%TO.N,/A6*%
X130270000Y-57820000D02*
X129000000Y-59090000D01*
X130260000Y-83175000D02*
X130260000Y-83185000D01*
X129000000Y-81915000D02*
X130260000Y-83175000D01*
X129000000Y-59090000D02*
X129000000Y-79153400D01*
X129000000Y-79153400D02*
X129000000Y-79795500D01*
X129000000Y-79153400D02*
X129001000Y-79154400D01*
X129000000Y-79795500D02*
X129000000Y-81915000D01*
X130270000Y-57785000D02*
X130270000Y-57820000D01*
X129000000Y-79795500D02*
X129373000Y-79422200D01*
X130260000Y-83175000D02*
X130270000Y-83185000D01*
X129373000Y-79422200D02*
X129373000Y-79337000D01*
%TO.N,/A7*%
X131540000Y-75508600D02*
X131540000Y-59090000D01*
X131540000Y-75553500D02*
X131540000Y-75508600D01*
X131479000Y-75553500D02*
X131475000Y-75557700D01*
X131544000Y-75508600D02*
X131565000Y-75529700D01*
X131540000Y-81915000D02*
X131540000Y-75553500D01*
X131540000Y-59090000D02*
X132810000Y-57820000D01*
X132810000Y-57820000D02*
X132810000Y-57785000D01*
X132800000Y-83175000D02*
X131540000Y-81915000D01*
X131540000Y-75553500D02*
X131479000Y-75553500D01*
X132800000Y-83175000D02*
X132800000Y-83185000D01*
X132810000Y-83185000D02*
X132800000Y-83175000D01*
X131540000Y-75508600D02*
X131544000Y-75508600D01*
%TO.N,/A8*%
X134080000Y-81915000D02*
X135340000Y-83175000D01*
X135350000Y-57820000D02*
X134080000Y-59090000D01*
X135350000Y-83185000D02*
X135340000Y-83175000D01*
X134080000Y-66571500D02*
X134080000Y-81915000D01*
X135340000Y-83175000D02*
X135340000Y-83185000D01*
X135350000Y-57785000D02*
X135350000Y-57820000D01*
X134080000Y-59090000D02*
X134080000Y-66571500D01*
%TO.N,/A9*%
X136620000Y-66908800D02*
X136620000Y-59090000D01*
X137880000Y-83175000D02*
X137880000Y-83185000D01*
X137880000Y-83175000D02*
X136620000Y-81915000D01*
X137890000Y-83185000D02*
X137880000Y-83175000D01*
X136620000Y-59090000D02*
X137890000Y-57820000D01*
X136620000Y-81915000D02*
X136620000Y-66908800D01*
X137890000Y-57820000D02*
X137890000Y-57785000D01*
%TO.N,/A10*%
X139160000Y-59055000D02*
X139160000Y-66245800D01*
X140430000Y-57785000D02*
X140430000Y-57820000D01*
X140430000Y-57820000D02*
X139195000Y-59055000D01*
X140420000Y-83175000D02*
X140420000Y-83185000D01*
X140420000Y-83175000D02*
X140430000Y-83185000D01*
X139195000Y-59055000D02*
X139160000Y-59055000D01*
X139149000Y-66245800D02*
X139160000Y-66245800D01*
X139160000Y-66245800D02*
X139160000Y-81915000D01*
X139160000Y-81915000D02*
X140420000Y-83175000D01*
%TO.N,/A11*%
X142960000Y-83175000D02*
X142960000Y-83185000D01*
X141700000Y-81915000D02*
X141700000Y-59090000D01*
X142960000Y-83175000D02*
X141700000Y-81915000D01*
X141700000Y-59090000D02*
X142970000Y-57820000D01*
X142970000Y-57820000D02*
X142970000Y-57785000D01*
X142970000Y-83185000D02*
X142960000Y-83175000D01*
%TO.N,/A12*%
X144240000Y-81915000D02*
X144240000Y-74085000D01*
X144240000Y-59090000D02*
X145510000Y-57820000D01*
X144240000Y-73480000D02*
X144240000Y-59090000D01*
X144240000Y-74085000D02*
X144240000Y-73782500D01*
X144240000Y-74085000D02*
X144240000Y-73782500D01*
X145500000Y-83175000D02*
X144240000Y-81915000D01*
X145500000Y-83175000D02*
X145500000Y-83185000D01*
X144240000Y-73782500D02*
X144240000Y-73480000D01*
X144240000Y-73782500D02*
X144240000Y-73480000D01*
X145510000Y-57820000D02*
X145510000Y-57785000D01*
X145510000Y-83185000D02*
X145500000Y-83175000D01*
%TO.N,/D7*%
X168370000Y-57785000D02*
X167120000Y-59035000D01*
X169218000Y-85144000D02*
X169137000Y-85063200D01*
X167120000Y-59035000D02*
X167120000Y-81945000D01*
X167120000Y-81945000D02*
X168360000Y-83185000D01*
%TO.N,/D6*%
X169640000Y-59090000D02*
X170910000Y-57820000D01*
X170900000Y-83175000D02*
X169640000Y-81915000D01*
X170900000Y-83175000D02*
X170910000Y-83185000D01*
X170910000Y-57820000D02*
X170910000Y-57785000D01*
X169640000Y-81915000D02*
X169640000Y-59090000D01*
X170900000Y-83175000D02*
X170900000Y-83185000D01*
%TO.N,/D5*%
X172170000Y-59065000D02*
X172170000Y-81915000D01*
X173450000Y-57785000D02*
X172170000Y-59065000D01*
X172170000Y-81915000D02*
X173440000Y-83185000D01*
%TO.N,/D4*%
X174720000Y-59055000D02*
X174720000Y-81925000D01*
X174720000Y-81925000D02*
X175980000Y-83185000D01*
X175990000Y-57785000D02*
X174720000Y-59055000D01*
%TO.N,/D3*%
X178530000Y-57785000D02*
X177420000Y-58895000D01*
X178530000Y-57820000D02*
X178530000Y-57785000D01*
X177420000Y-58895000D02*
X177420000Y-82085000D01*
X177420000Y-82085000D02*
X178520000Y-83185000D01*
%TO.N,/A2*%
X120110000Y-62635000D02*
X120110000Y-62865000D01*
X120110000Y-62865000D02*
X120110000Y-62635000D01*
X120110000Y-62865000D02*
X120100000Y-62875000D01*
X120110000Y-62635000D02*
X120110000Y-60325000D01*
X120100000Y-62875000D02*
X120100000Y-80645000D01*
%TO.N,/A1*%
X122650000Y-74355000D02*
X122640000Y-74365000D01*
X123920000Y-82618300D02*
X122640000Y-81338300D01*
X138067000Y-85114200D02*
X138009000Y-85056800D01*
X125454000Y-85056800D02*
X123920000Y-83522800D01*
X123920000Y-83522800D02*
X123920000Y-82618300D01*
X138009000Y-85056800D02*
X125454000Y-85056800D01*
X122650000Y-74355000D02*
X122650000Y-60325000D01*
X122650000Y-74355000D02*
X122650000Y-80645000D01*
X122640000Y-74365000D02*
X122640000Y-80645000D01*
X122640000Y-81338300D02*
X122640000Y-80645000D01*
%TO.N,/A0*%
X127730000Y-79617700D02*
X127730000Y-80645000D01*
X127720000Y-79627700D02*
X127720000Y-80645000D01*
X127730000Y-79617700D02*
X127720000Y-79627700D01*
X127730000Y-79617700D02*
X127730000Y-60325000D01*
%TO.N,/RW*%
X165820000Y-80635000D02*
X165820000Y-80645000D01*
X165870000Y-80585000D02*
X165870000Y-60365000D01*
X165830000Y-80645000D02*
X165820000Y-80635000D01*
X165820000Y-80635000D02*
X165870000Y-80585000D01*
X165870000Y-60365000D02*
X165830000Y-60325000D01*
%TO.N,/D0*%
X173440000Y-80635000D02*
X173450000Y-80645000D01*
X173470000Y-64482100D02*
X173470000Y-80605000D01*
X173450000Y-64462100D02*
X173470000Y-64482100D01*
X173470000Y-80605000D02*
X173440000Y-80635000D01*
X173450000Y-60325000D02*
X173450000Y-64462100D01*
X173440000Y-80635000D02*
X173440000Y-80645000D01*
%TO.N,/D1*%
X175990000Y-80635000D02*
X175980000Y-80645000D01*
X175980000Y-80635000D02*
X175980000Y-80645000D01*
X175990000Y-80645000D02*
X175980000Y-80635000D01*
X175990000Y-60325000D02*
X175990000Y-80635000D01*
%TO.N,/D2*%
X178530000Y-80635000D02*
X178520000Y-80645000D01*
X178530000Y-60325000D02*
X178530000Y-80635000D01*
%TO.N,/SP0*%
X109940000Y-83175000D02*
X108680000Y-81915000D01*
X109950000Y-57820000D02*
X109950000Y-57785000D01*
X109940000Y-83175000D02*
X109940000Y-83185000D01*
X107395000Y-78410000D02*
X107395000Y-75010000D01*
X109940000Y-83175000D02*
X109950000Y-83185000D01*
X108680000Y-73725000D02*
X108680000Y-59090000D01*
X107395000Y-75010000D02*
X108680000Y-73725000D01*
X108680000Y-81915000D02*
X108680000Y-79695000D01*
X108680000Y-79695000D02*
X107395000Y-78410000D01*
X108680000Y-59090000D02*
X109950000Y-57820000D01*
%TO.N,/SP1*%
X111220000Y-81915000D02*
X112480000Y-83175000D01*
X110670000Y-79085000D02*
X111220000Y-79635000D01*
X111220000Y-75285000D02*
X110670000Y-75835000D01*
X110670000Y-75835000D02*
X110670000Y-79085000D01*
X111220000Y-79635000D02*
X111220000Y-81915000D01*
X112480000Y-83175000D02*
X112480000Y-83185000D01*
X112490000Y-57820000D02*
X111220000Y-59090000D01*
X112490000Y-57785000D02*
X112490000Y-57820000D01*
X112480000Y-83175000D02*
X112490000Y-83185000D01*
X111220000Y-59090000D02*
X111220000Y-75285000D01*
%TO.N,/DSMC*%
X113760000Y-81915000D02*
X115020000Y-83175000D01*
X113760000Y-74645000D02*
X113220000Y-75185000D01*
X114892000Y-57785000D02*
X115030000Y-57785000D01*
X113760000Y-79975000D02*
X113760000Y-81915000D01*
X115020000Y-83175000D02*
X115020000Y-83185000D01*
X113760000Y-59090000D02*
X113760000Y-74645000D01*
X115030000Y-57785000D02*
X115030000Y-57820000D01*
X113220000Y-79435000D02*
X113760000Y-79975000D01*
X113220000Y-75185000D02*
X113220000Y-79435000D01*
X115030000Y-57820000D02*
X113760000Y-59090000D01*
X115030000Y-83185000D02*
X115020000Y-83175000D01*
%TO.N,/SP2*%
X117570000Y-57820000D02*
X116300000Y-59090000D01*
X117570000Y-57785000D02*
X117570000Y-57820000D01*
X117560000Y-83175000D02*
X117560000Y-83185000D01*
X116300000Y-81915000D02*
X117560000Y-83175000D01*
X117560000Y-83175000D02*
X117570000Y-83185000D01*
X116300000Y-59090000D02*
X116300000Y-81915000D01*
%TO.N,/A13*%
X146780000Y-69176800D02*
X146820000Y-69136800D01*
X148040000Y-83175000D02*
X148040000Y-83185000D01*
X146820000Y-69136800D02*
X146820000Y-68185000D01*
X146780000Y-69176800D02*
X146780000Y-81915000D01*
X146780000Y-81915000D02*
X148040000Y-83175000D01*
X148050000Y-57785000D02*
X148050000Y-57820000D01*
X146780000Y-59090000D02*
X146780000Y-69176800D01*
X148050000Y-57820000D02*
X146780000Y-59090000D01*
X148040000Y-83175000D02*
X148050000Y-83185000D01*
%TO.N,/A14*%
X150590000Y-57820000D02*
X150590000Y-57785000D01*
X149320000Y-73935000D02*
X149320000Y-59090000D01*
X149320000Y-59090000D02*
X150590000Y-57820000D01*
X149320000Y-81915000D02*
X149320000Y-73935000D01*
X150590000Y-83185000D02*
X150580000Y-83175000D01*
X150580000Y-83175000D02*
X150580000Y-83185000D01*
X150580000Y-83175000D02*
X149320000Y-81915000D01*
%TO.N,/A16*%
X156920000Y-72572500D02*
X156920000Y-59109800D01*
X157658000Y-58371800D02*
X158210000Y-57820000D01*
X156940000Y-78867000D02*
X156940000Y-81925000D01*
X156920000Y-77406500D02*
X156920000Y-78847000D01*
X156467500Y-73025000D02*
X156920000Y-73477500D01*
X157658000Y-58371800D02*
X158210000Y-57819800D01*
X156920000Y-73477500D02*
X156920000Y-77406500D01*
X158210000Y-57819800D02*
X158210000Y-57785000D01*
X158210000Y-83185000D02*
X158200000Y-83185000D01*
X156940000Y-81925000D02*
X158200000Y-83185000D01*
X156467500Y-73025000D02*
X156920000Y-72572500D01*
X156920000Y-59109800D02*
X157658000Y-58371800D01*
X156920000Y-77400000D02*
X156920000Y-77406500D01*
X156920000Y-78847000D02*
X156940000Y-78867000D01*
%TO.N,/A17*%
X159470000Y-71685000D02*
X159480000Y-71695000D01*
X159470000Y-71685000D02*
X159470000Y-59065000D01*
X160750000Y-57785000D02*
X160670000Y-57785000D01*
X160750000Y-83185000D02*
X160740000Y-83175000D01*
X160740000Y-83175000D02*
X160740000Y-83185000D01*
X160670000Y-57785000D02*
X158871000Y-55985700D01*
X159480000Y-71695000D02*
X159480000Y-81915000D01*
X159480000Y-81915000D02*
X160740000Y-83175000D01*
X159470000Y-59065000D02*
X160424000Y-58110600D01*
X160424000Y-58110600D02*
X160750000Y-57785000D01*
X158871000Y-55985700D02*
X149074000Y-55985700D01*
%TO.N,/A18*%
X162044000Y-70485000D02*
X162044000Y-74561300D01*
X162170000Y-82064600D02*
X162020000Y-81914600D01*
X163290000Y-57820000D02*
X163290000Y-57785000D01*
X163280000Y-83174800D02*
X163280000Y-83185000D01*
X162020000Y-81914600D02*
X162020000Y-74585500D01*
X162730000Y-82624800D02*
X163280000Y-83174800D01*
X162020000Y-59090000D02*
X163290000Y-57820000D01*
X162020000Y-74585500D02*
X162020000Y-59090000D01*
X162730000Y-82624800D02*
X162170000Y-82064600D01*
X162044000Y-74561300D02*
X162020000Y-74585500D01*
X163290000Y-83185000D02*
X162730000Y-82624800D01*
%TO.N,/A19*%
X164639000Y-73066000D02*
X164670000Y-73035000D01*
X164670000Y-73035000D02*
X164639000Y-73004000D01*
X165820000Y-83185000D02*
X164639000Y-82004000D01*
X164639000Y-73004000D02*
X164639000Y-58976300D01*
X164639000Y-82004000D02*
X164639000Y-73066000D01*
X164639000Y-58976300D02*
X165830000Y-57785000D01*
%TO.N,/SP3*%
X117560000Y-74365000D02*
X117560000Y-80645000D01*
X117570000Y-74355000D02*
X117570000Y-80645000D01*
X117570000Y-74355000D02*
X117560000Y-74365000D01*
X117570000Y-60325000D02*
X117570000Y-74355000D01*
%TO.N,/VPA*%
X142970000Y-62135000D02*
X142970000Y-60325000D01*
X142970000Y-62135000D02*
X142970000Y-62865000D01*
X142970000Y-62865000D02*
X142970000Y-77939800D01*
X142970000Y-77939800D02*
X142960000Y-77949800D01*
X142970000Y-77939800D02*
X142970000Y-80645000D01*
X142960000Y-77949800D02*
X142960000Y-80645000D01*
%TO.N,/E*%
X148050000Y-62585000D02*
X148050000Y-62865000D01*
X148040000Y-76211800D02*
X148040000Y-80645000D01*
X148050000Y-76201800D02*
X148040000Y-76211800D01*
X148050000Y-62865000D02*
X148050000Y-76201800D01*
X148050000Y-62585000D02*
X148050000Y-62865000D01*
X148050000Y-76201800D02*
X148050000Y-80645000D01*
X148050000Y-60325000D02*
X148050000Y-62585000D01*
%TO.N,/RESET*%
X153120000Y-79544100D02*
X153120000Y-80645000D01*
X153130000Y-79534100D02*
X153130000Y-80645000D01*
X153130000Y-79534100D02*
X153130000Y-60325000D01*
X153130000Y-79534100D02*
X153120000Y-79544100D01*
%TO.N,/A15*%
X122520000Y-86285000D02*
X139511800Y-86285000D01*
X102170000Y-85335000D02*
X121570000Y-85335000D01*
X155660000Y-79080000D02*
X155660000Y-80645000D01*
X155670000Y-79070000D02*
X155660000Y-79080000D01*
X101520000Y-64835000D02*
X100370000Y-65985000D01*
X121570000Y-85335000D02*
X122520000Y-86285000D01*
X155670000Y-60325000D02*
X155670000Y-75127500D01*
X155670000Y-75127500D02*
X155670000Y-79070000D01*
X139511800Y-86285000D02*
X140641000Y-85155800D01*
X100370000Y-83535000D02*
X102170000Y-85335000D01*
X100370000Y-65985000D02*
X100370000Y-83535000D01*
%TO.N,/DS*%
X168381000Y-75746000D02*
X168381000Y-72383600D01*
X168381000Y-72383600D02*
X168370000Y-72372500D01*
X168370000Y-60325000D02*
X168370000Y-72372500D01*
X168370000Y-80645000D02*
X168360000Y-80635000D01*
X168370000Y-72372500D02*
X168370000Y-80635000D01*
X168420000Y-75785000D02*
X168381000Y-75746000D01*
X168370000Y-80635000D02*
X168360000Y-80645000D01*
X168360000Y-80635000D02*
X168360000Y-80645000D01*
%TO.N,/AS*%
X170915000Y-64267000D02*
X170910000Y-64262000D01*
X170915000Y-75379700D02*
X170915000Y-64267000D01*
X170900000Y-79549100D02*
X170900000Y-80645000D01*
X170915000Y-79534100D02*
X170915000Y-75685000D01*
X170915000Y-75379700D02*
X170915000Y-75685000D01*
X170915000Y-79534100D02*
X170900000Y-79549100D01*
X170915000Y-75685000D02*
X170915000Y-75379700D01*
X170910000Y-64262000D02*
X170910000Y-60325000D01*
X170915000Y-79534100D02*
X170915000Y-80640000D01*
%TO.N,/DTACK*%
X163270000Y-60345000D02*
X163290000Y-60325000D01*
X163270000Y-66865000D02*
X163270000Y-80635000D01*
X163270000Y-66222500D02*
X163270000Y-60345000D01*
X163060000Y-66432500D02*
X163270000Y-66222500D01*
X163270000Y-80635000D02*
X163280000Y-80645000D01*
X163060000Y-66432500D02*
X163060000Y-66655000D01*
X163060000Y-66655000D02*
X163270000Y-66865000D01*
%TO.N,/BG*%
X160750000Y-79701800D02*
X160740000Y-79711800D01*
X160740000Y-79711800D02*
X160740000Y-80645000D01*
X160750000Y-79701800D02*
X160750000Y-80645000D01*
X160750000Y-60325000D02*
X160750000Y-79701800D01*
%TO.N,/BR*%
X158200000Y-79702500D02*
X158200000Y-80645000D01*
X158210000Y-60325000D02*
X158210000Y-79692500D01*
X158210000Y-79692500D02*
X158200000Y-79702500D01*
X158210000Y-79692500D02*
X158210000Y-80645000D01*
%TO.N,/CSYNC*%
X150590000Y-76201800D02*
X150580000Y-76211800D01*
X150590000Y-60325000D02*
X150590000Y-76201800D01*
X150590000Y-76201800D02*
X150590000Y-80645000D01*
X150580000Y-76211800D02*
X150580000Y-80645000D01*
%TO.N,/VSYNC*%
X145510000Y-80635000D02*
X145510000Y-60325000D01*
X145500000Y-80645000D02*
X145510000Y-80635000D01*
%TO.N,/GREEN*%
X140430000Y-60325000D02*
X140430000Y-76895000D01*
X140430000Y-76895000D02*
X140430000Y-80645000D01*
X140430000Y-76895000D02*
X140420000Y-76905000D01*
X140420000Y-76905000D02*
X140420000Y-80645000D01*
%TO.N,/BLUE*%
X137890000Y-60325000D02*
X137890000Y-62635000D01*
X137890000Y-62635000D02*
X137890000Y-62865000D01*
X137890000Y-74355000D02*
X137890000Y-80645000D01*
X137890000Y-74355000D02*
X137880000Y-74365000D01*
X137880000Y-74365000D02*
X137880000Y-80645000D01*
X137890000Y-62635000D02*
X137890000Y-62865000D01*
X137890000Y-62865000D02*
X137890000Y-74355000D01*
%TO.N,/FC2*%
X135340000Y-76905000D02*
X135340000Y-80645000D01*
X135350000Y-76895000D02*
X135350000Y-80645000D01*
X135350000Y-76895000D02*
X135350000Y-60325000D01*
X135350000Y-76895000D02*
X135340000Y-76905000D01*
%TO.N,/FC1*%
X132810000Y-78337300D02*
X132800000Y-78347300D01*
X132810000Y-62685000D02*
X132810000Y-60325000D01*
X132810000Y-62865000D02*
X132810000Y-78337300D01*
X132800000Y-78347300D02*
X132800000Y-80645000D01*
X132810000Y-62865000D02*
X132810000Y-62685000D01*
X132810000Y-62685000D02*
X132810000Y-62865000D01*
X132810000Y-78337300D02*
X132810000Y-80645000D01*
%TO.N,/FC0*%
X130270000Y-79618700D02*
X130270000Y-80645000D01*
X130270000Y-79618700D02*
X130260000Y-79628700D01*
X130270000Y-62585000D02*
X130270000Y-60325000D01*
X130260000Y-79628700D02*
X130260000Y-80645000D01*
X130270000Y-62865000D02*
X130270000Y-62585000D01*
X130270000Y-62865000D02*
X130270000Y-79618700D01*
%TO.N,/ROMOE*%
X125190000Y-62385000D02*
X125190000Y-60325000D01*
X125190000Y-77199900D02*
X125190000Y-80645000D01*
X125190000Y-62865000D02*
X125190000Y-62385000D01*
X125190000Y-77199900D02*
X125180000Y-77209900D01*
X125190000Y-62865000D02*
X125190000Y-77199900D01*
X125180000Y-77209900D02*
X125180000Y-80645000D01*
%TO.N,/IPL0*%
X115070000Y-60365000D02*
X115070000Y-74585000D01*
X115720000Y-79945000D02*
X115020000Y-80645000D01*
X115030000Y-60325000D02*
X115070000Y-60365000D01*
X115070000Y-74585000D02*
X115720000Y-75235000D01*
X115720000Y-75235000D02*
X115720000Y-79945000D01*
%TO.N,/BERR*%
X112490000Y-60325000D02*
X112490000Y-76350000D01*
X112490000Y-76350000D02*
X111955000Y-76885000D01*
%TO.N,/IPL1*%
X109950000Y-80645000D02*
X109950000Y-79365000D01*
X109940000Y-79375000D02*
X109940000Y-80645000D01*
X108020000Y-76135000D02*
X109950000Y-74205000D01*
X109950000Y-79365000D02*
X108020000Y-77435000D01*
X109950000Y-74205000D02*
X109950000Y-60325000D01*
X108020000Y-77435000D02*
X108020000Y-76135000D01*
X109950000Y-79365000D02*
X109940000Y-79375000D01*
%TO.N,/EXTINT*%
X107410000Y-73795000D02*
X106720000Y-74485000D01*
X106720000Y-74485000D02*
X106720000Y-79965000D01*
X107410000Y-60325000D02*
X107410000Y-73795000D01*
X107420000Y-80625000D02*
X107400000Y-80645000D01*
X106720000Y-79965000D02*
X107400000Y-80645000D01*
%TO.N,/CLKCPU*%
X154400000Y-66335000D02*
X154400000Y-59090000D01*
X154400000Y-59090000D02*
X155670000Y-57820000D01*
X154400000Y-66675000D02*
X154400000Y-66335000D01*
X155660000Y-83175000D02*
X155660000Y-83185000D01*
X155660000Y-83175000D02*
X154400000Y-81915000D01*
X154400000Y-81915000D02*
X154400000Y-66675000D01*
X154400000Y-66675000D02*
X154400000Y-66335000D01*
X155670000Y-57820000D02*
X155670000Y-57785000D01*
X155670000Y-83185000D02*
X155660000Y-83175000D01*
%TO.N,/RED*%
X153120000Y-83175000D02*
X153130000Y-83185000D01*
X153120000Y-83175000D02*
X153120000Y-83185000D01*
X153130000Y-57820000D02*
X151860000Y-59090000D01*
X153130000Y-57785000D02*
X153130000Y-57820000D01*
X151860000Y-81915000D02*
X153120000Y-83175000D01*
X151860000Y-59090000D02*
X151860000Y-81915000D01*
%TO.N,/DBG*%
X120110000Y-57820000D02*
X120110000Y-57785000D01*
X120100000Y-83175000D02*
X120100000Y-83185000D01*
X118840000Y-59090000D02*
X120110000Y-57820000D01*
X120100000Y-83175000D02*
X118840000Y-81915000D01*
X120110000Y-83185000D02*
X120100000Y-83175000D01*
X118840000Y-81915000D02*
X118840000Y-59090000D01*
%TO.N,/ma12v*%
X107400000Y-83175000D02*
X107410000Y-83185000D01*
X106140000Y-81915000D02*
X107400000Y-83175000D01*
X106140000Y-62905000D02*
X106140000Y-81915000D01*
X106140000Y-59090000D02*
X106140000Y-62905000D01*
X107410000Y-57820000D02*
X106140000Y-59090000D01*
X107410000Y-57785000D02*
X107410000Y-57820000D01*
X107400000Y-83175000D02*
X107400000Y-83185000D01*
%TO.N,/me12v*%
X104860000Y-83175000D02*
X104860000Y-83185000D01*
X103620000Y-63435000D02*
X103620000Y-59035000D01*
X103620000Y-59035000D02*
X104870000Y-57785000D01*
X103600000Y-68455000D02*
X104870000Y-67185000D01*
X104870000Y-83185000D02*
X104860000Y-83175000D01*
X104860000Y-83175000D02*
X103600000Y-81915000D01*
X103620000Y-65935000D02*
X103620000Y-63335000D01*
X103600000Y-81915000D02*
X103600000Y-68455000D01*
X104870000Y-67185000D02*
X103620000Y-65935000D01*
%TO.N,Net-(JP3-Pin_1)*%
X114070000Y-55385000D02*
X106820000Y-55385000D01*
X101820000Y-85785000D02*
X99920000Y-83885000D01*
X100920000Y-55385000D02*
X106970000Y-55385000D01*
X113670000Y-86335000D02*
X113120000Y-85785000D01*
X187420000Y-60785000D02*
X184846000Y-58211000D01*
X99920000Y-83885000D02*
X99920000Y-56485000D01*
X113120000Y-85785000D02*
X101820000Y-85785000D01*
X118438000Y-55494500D02*
X118328000Y-55385000D01*
X99920000Y-56485000D02*
X100770000Y-55635000D01*
X100770000Y-55535000D02*
X100920000Y-55385000D01*
X118328000Y-55385000D02*
X114070000Y-55385000D01*
X100770000Y-55635000D02*
X100770000Y-55535000D01*
%TO.N,Net-(JP1-Pin_2)*%
X185170000Y-74435000D02*
X185270000Y-74535000D01*
X185270000Y-80585000D02*
X185870000Y-81185000D01*
X180170000Y-74365000D02*
X180170000Y-71935000D01*
X180100000Y-74435000D02*
X180170000Y-74365000D01*
X185270000Y-74535000D02*
X185270000Y-80585000D01*
%TO.N,Net-(JP2-Pin_2)*%
X188220000Y-71670000D02*
X188220000Y-73185000D01*
X187820000Y-73585000D02*
X186470000Y-73585000D01*
X188220000Y-73185000D02*
X187820000Y-73585000D01*
X186470000Y-73585000D02*
X184820000Y-71935000D01*
%TD*%
%TA.AperFunction,Conductor*%
%TO.N,GND*%
G36*
X190538039Y-52724685D02*
G01*
X190583794Y-52777489D01*
X190595000Y-52829000D01*
X190595000Y-88141000D01*
X190575315Y-88208039D01*
X190522511Y-88253794D01*
X190471000Y-88265000D01*
X92929000Y-88265000D01*
X92861961Y-88245315D01*
X92816206Y-88192511D01*
X92805000Y-88141000D01*
X92805000Y-83927852D01*
X99594500Y-83927852D01*
X99616682Y-84010640D01*
X99627358Y-84029130D01*
X99659535Y-84084862D01*
X99659536Y-84084863D01*
X99659537Y-84084864D01*
X101555194Y-85980520D01*
X101555204Y-85980531D01*
X101559534Y-85984861D01*
X101559535Y-85984862D01*
X101620138Y-86045465D01*
X101657250Y-86066891D01*
X101657252Y-86066893D01*
X101694358Y-86088317D01*
X101694360Y-86088317D01*
X101694361Y-86088318D01*
X101777147Y-86110501D01*
X101777149Y-86110501D01*
X101870449Y-86110501D01*
X101870465Y-86110500D01*
X112933811Y-86110500D01*
X113000850Y-86130185D01*
X113021492Y-86146819D01*
X113037988Y-86163315D01*
X113071473Y-86224638D01*
X113073246Y-86267181D01*
X113064318Y-86334998D01*
X113064318Y-86335001D01*
X113084955Y-86491760D01*
X113084956Y-86491762D01*
X113134138Y-86610499D01*
X113145464Y-86637841D01*
X113241718Y-86763282D01*
X113367159Y-86859536D01*
X113513238Y-86920044D01*
X113591619Y-86930363D01*
X113669999Y-86940682D01*
X113670000Y-86940682D01*
X113670001Y-86940682D01*
X113722254Y-86933802D01*
X113826762Y-86920044D01*
X113972841Y-86859536D01*
X114098282Y-86763282D01*
X114194536Y-86637841D01*
X114255044Y-86491762D01*
X114275682Y-86335000D01*
X114255044Y-86178238D01*
X114194536Y-86032159D01*
X114098282Y-85906718D01*
X114098280Y-85906717D01*
X114098280Y-85906716D01*
X114067210Y-85882876D01*
X114026007Y-85826448D01*
X114021852Y-85756702D01*
X114056064Y-85695782D01*
X114117781Y-85663029D01*
X114142696Y-85660500D01*
X121383811Y-85660500D01*
X121450850Y-85680185D01*
X121471492Y-85696819D01*
X122320138Y-86545465D01*
X122394361Y-86588318D01*
X122477147Y-86610500D01*
X122477149Y-86610500D01*
X139554651Y-86610500D01*
X139554653Y-86610500D01*
X139637439Y-86588318D01*
X139711662Y-86545465D01*
X140469316Y-85787809D01*
X140530637Y-85754326D01*
X140573181Y-85752553D01*
X140640999Y-85761482D01*
X140641000Y-85761482D01*
X140641001Y-85761482D01*
X140693254Y-85754602D01*
X140797762Y-85740844D01*
X140943841Y-85680336D01*
X141069282Y-85584082D01*
X141165536Y-85458641D01*
X141226044Y-85312562D01*
X141246682Y-85155800D01*
X141241205Y-85114201D01*
X141234491Y-85063201D01*
X168531318Y-85063201D01*
X168551955Y-85219960D01*
X168551956Y-85219962D01*
X168610010Y-85360118D01*
X168612464Y-85366041D01*
X168708718Y-85491482D01*
X168834159Y-85587736D01*
X168980238Y-85648244D01*
X169058619Y-85658563D01*
X169136999Y-85668882D01*
X169137000Y-85668882D01*
X169137001Y-85668882D01*
X169200668Y-85660500D01*
X169293762Y-85648244D01*
X169439841Y-85587736D01*
X169565282Y-85491482D01*
X169661536Y-85366041D01*
X169722044Y-85219962D01*
X169735968Y-85114198D01*
X169742682Y-85063201D01*
X169742682Y-85063198D01*
X169722044Y-84906439D01*
X169722044Y-84906438D01*
X169661536Y-84760359D01*
X169565282Y-84634918D01*
X169439841Y-84538664D01*
X169416884Y-84529155D01*
X169293762Y-84478156D01*
X169293760Y-84478155D01*
X169137001Y-84457518D01*
X169136999Y-84457518D01*
X168980239Y-84478155D01*
X168980237Y-84478156D01*
X168834160Y-84538663D01*
X168708718Y-84634918D01*
X168612463Y-84760360D01*
X168551956Y-84906437D01*
X168551955Y-84906439D01*
X168531318Y-85063198D01*
X168531318Y-85063201D01*
X141234491Y-85063201D01*
X141226044Y-84999039D01*
X141226044Y-84999038D01*
X141165536Y-84852959D01*
X141069282Y-84727518D01*
X140943841Y-84631264D01*
X140843407Y-84589663D01*
X140797762Y-84570756D01*
X140797760Y-84570755D01*
X140641001Y-84550118D01*
X140640999Y-84550118D01*
X140484239Y-84570755D01*
X140484237Y-84570756D01*
X140338160Y-84631263D01*
X140212718Y-84727518D01*
X140116463Y-84852960D01*
X140055956Y-84999037D01*
X140055955Y-84999039D01*
X140035318Y-85155798D01*
X140035318Y-85155801D01*
X140044246Y-85223617D01*
X140033480Y-85292652D01*
X140008988Y-85327483D01*
X139413292Y-85923181D01*
X139351969Y-85956666D01*
X139325611Y-85959500D01*
X138138794Y-85959500D01*
X138071755Y-85939815D01*
X138066303Y-85933523D01*
X138014312Y-85958019D01*
X137995206Y-85959500D01*
X122706189Y-85959500D01*
X122639150Y-85939815D01*
X122618508Y-85923181D01*
X121769864Y-85074537D01*
X121769862Y-85074535D01*
X121732750Y-85053108D01*
X121695640Y-85031682D01*
X121654246Y-85020591D01*
X121612853Y-85009500D01*
X121612852Y-85009500D01*
X102356189Y-85009500D01*
X102289150Y-84989815D01*
X102268508Y-84973181D01*
X100731819Y-83436492D01*
X100698334Y-83375169D01*
X100695500Y-83348811D01*
X100695500Y-83185000D01*
X101339780Y-83185000D01*
X101358614Y-83376229D01*
X101414396Y-83560118D01*
X101504973Y-83729575D01*
X101504977Y-83729582D01*
X101626879Y-83878120D01*
X101775417Y-84000022D01*
X101775424Y-84000026D01*
X101944881Y-84090603D01*
X101944883Y-84090603D01*
X101944886Y-84090605D01*
X102128769Y-84146385D01*
X102128768Y-84146385D01*
X102145562Y-84148039D01*
X102320000Y-84165220D01*
X102511231Y-84146385D01*
X102695114Y-84090605D01*
X102705859Y-84084862D01*
X102762900Y-84054372D01*
X102864581Y-84000023D01*
X103013120Y-83878120D01*
X103135023Y-83729581D01*
X103225605Y-83560114D01*
X103281385Y-83376231D01*
X103300220Y-83185000D01*
X103281385Y-82993769D01*
X103225605Y-82809886D01*
X103225603Y-82809883D01*
X103225603Y-82809881D01*
X103135026Y-82640424D01*
X103135022Y-82640417D01*
X103013120Y-82491879D01*
X102940835Y-82432556D01*
X102901501Y-82374810D01*
X102895500Y-82336703D01*
X102895500Y-81493295D01*
X102915185Y-81426256D01*
X102940833Y-81397443D01*
X103013120Y-81338120D01*
X103054646Y-81287519D01*
X103112392Y-81248185D01*
X103182236Y-81246314D01*
X103242005Y-81282501D01*
X103272721Y-81345256D01*
X103274500Y-81366184D01*
X103274500Y-81872147D01*
X103274500Y-81957853D01*
X103279266Y-81975640D01*
X103296682Y-82040640D01*
X103302456Y-82050640D01*
X103339535Y-82114862D01*
X103339537Y-82114864D01*
X103920498Y-82695825D01*
X103953983Y-82757148D01*
X103951478Y-82819501D01*
X103898614Y-82993770D01*
X103879780Y-83185000D01*
X103898614Y-83376229D01*
X103954396Y-83560118D01*
X104044973Y-83729575D01*
X104044977Y-83729582D01*
X104166879Y-83878120D01*
X104315417Y-84000022D01*
X104315424Y-84000026D01*
X104484881Y-84090603D01*
X104484883Y-84090603D01*
X104484886Y-84090605D01*
X104668769Y-84146385D01*
X104668768Y-84146385D01*
X104685562Y-84148039D01*
X104860000Y-84165220D01*
X105051231Y-84146385D01*
X105235114Y-84090605D01*
X105245859Y-84084862D01*
X105302900Y-84054372D01*
X105404581Y-84000023D01*
X105553120Y-83878120D01*
X105675023Y-83729581D01*
X105765605Y-83560114D01*
X105821385Y-83376231D01*
X105840220Y-83185000D01*
X105821385Y-82993769D01*
X105765605Y-82809886D01*
X105765603Y-82809883D01*
X105765603Y-82809881D01*
X105675026Y-82640424D01*
X105675022Y-82640417D01*
X105553120Y-82491879D01*
X105404582Y-82369977D01*
X105404575Y-82369973D01*
X105235118Y-82279396D01*
X105115699Y-82243171D01*
X105051231Y-82223615D01*
X105051229Y-82223614D01*
X105051231Y-82223614D01*
X104860000Y-82204780D01*
X104668770Y-82223614D01*
X104509846Y-82271823D01*
X104439979Y-82272446D01*
X104386170Y-82240843D01*
X103961819Y-81816492D01*
X103928334Y-81755169D01*
X103925500Y-81728811D01*
X103925500Y-81390554D01*
X103945185Y-81323515D01*
X103997989Y-81277760D01*
X104067147Y-81267816D01*
X104130703Y-81296841D01*
X104145351Y-81311886D01*
X104166879Y-81338119D01*
X104166881Y-81338121D01*
X104315417Y-81460022D01*
X104315424Y-81460026D01*
X104484881Y-81550603D01*
X104484883Y-81550603D01*
X104484886Y-81550605D01*
X104668769Y-81606385D01*
X104668768Y-81606385D01*
X104685914Y-81608073D01*
X104860000Y-81625220D01*
X105051231Y-81606385D01*
X105235114Y-81550605D01*
X105235122Y-81550601D01*
X105391464Y-81467034D01*
X105404581Y-81460023D01*
X105553120Y-81338120D01*
X105594646Y-81287519D01*
X105652392Y-81248185D01*
X105722236Y-81246314D01*
X105782005Y-81282501D01*
X105812721Y-81345256D01*
X105814500Y-81366184D01*
X105814500Y-81872147D01*
X105814500Y-81957853D01*
X105819266Y-81975640D01*
X105836682Y-82040640D01*
X105842456Y-82050640D01*
X105879535Y-82114862D01*
X105879537Y-82114864D01*
X106460498Y-82695825D01*
X106493983Y-82757148D01*
X106491478Y-82819501D01*
X106438614Y-82993770D01*
X106419780Y-83185000D01*
X106438614Y-83376229D01*
X106494396Y-83560118D01*
X106584973Y-83729575D01*
X106584977Y-83729582D01*
X106706879Y-83878120D01*
X106855417Y-84000022D01*
X106855424Y-84000026D01*
X107024881Y-84090603D01*
X107024883Y-84090603D01*
X107024886Y-84090605D01*
X107208769Y-84146385D01*
X107208768Y-84146385D01*
X107225562Y-84148039D01*
X107400000Y-84165220D01*
X107591231Y-84146385D01*
X107775114Y-84090605D01*
X107785859Y-84084862D01*
X107842900Y-84054372D01*
X107944581Y-84000023D01*
X108093120Y-83878120D01*
X108215023Y-83729581D01*
X108305605Y-83560114D01*
X108361385Y-83376231D01*
X108380220Y-83185000D01*
X108361385Y-82993769D01*
X108305605Y-82809886D01*
X108305603Y-82809883D01*
X108305603Y-82809881D01*
X108215026Y-82640424D01*
X108215022Y-82640417D01*
X108093120Y-82491879D01*
X107944582Y-82369977D01*
X107944575Y-82369973D01*
X107775118Y-82279396D01*
X107655699Y-82243171D01*
X107591231Y-82223615D01*
X107591229Y-82223614D01*
X107591231Y-82223614D01*
X107400000Y-82204780D01*
X107208770Y-82223614D01*
X107049846Y-82271823D01*
X106979979Y-82272446D01*
X106926170Y-82240843D01*
X106501819Y-81816492D01*
X106468334Y-81755169D01*
X106465500Y-81728811D01*
X106465500Y-81390554D01*
X106485185Y-81323515D01*
X106537989Y-81277760D01*
X106607147Y-81267816D01*
X106670703Y-81296841D01*
X106685351Y-81311886D01*
X106706879Y-81338119D01*
X106706881Y-81338121D01*
X106855417Y-81460022D01*
X106855424Y-81460026D01*
X107024881Y-81550603D01*
X107024883Y-81550603D01*
X107024886Y-81550605D01*
X107208769Y-81606385D01*
X107208768Y-81606385D01*
X107225914Y-81608073D01*
X107400000Y-81625220D01*
X107591231Y-81606385D01*
X107775114Y-81550605D01*
X107775122Y-81550601D01*
X107931464Y-81467034D01*
X107944581Y-81460023D01*
X108093120Y-81338120D01*
X108134646Y-81287519D01*
X108192392Y-81248185D01*
X108262236Y-81246314D01*
X108322005Y-81282501D01*
X108352721Y-81345256D01*
X108354500Y-81366184D01*
X108354500Y-81872147D01*
X108354500Y-81957853D01*
X108359266Y-81975640D01*
X108376682Y-82040640D01*
X108382456Y-82050640D01*
X108419535Y-82114862D01*
X108419537Y-82114864D01*
X109000498Y-82695825D01*
X109033983Y-82757148D01*
X109031478Y-82819501D01*
X108978614Y-82993770D01*
X108959780Y-83185000D01*
X108978614Y-83376229D01*
X109034396Y-83560118D01*
X109124973Y-83729575D01*
X109124977Y-83729582D01*
X109246879Y-83878120D01*
X109395417Y-84000022D01*
X109395424Y-84000026D01*
X109564881Y-84090603D01*
X109564883Y-84090603D01*
X109564886Y-84090605D01*
X109748769Y-84146385D01*
X109748768Y-84146385D01*
X109765562Y-84148039D01*
X109940000Y-84165220D01*
X110131231Y-84146385D01*
X110315114Y-84090605D01*
X110325859Y-84084862D01*
X110382900Y-84054372D01*
X110484581Y-84000023D01*
X110633120Y-83878120D01*
X110755023Y-83729581D01*
X110845605Y-83560114D01*
X110901385Y-83376231D01*
X110920220Y-83185000D01*
X110901385Y-82993769D01*
X110845605Y-82809886D01*
X110845603Y-82809883D01*
X110845603Y-82809881D01*
X110755026Y-82640424D01*
X110755022Y-82640417D01*
X110633120Y-82491879D01*
X110484582Y-82369977D01*
X110484575Y-82369973D01*
X110315118Y-82279396D01*
X110195699Y-82243171D01*
X110131231Y-82223615D01*
X110131229Y-82223614D01*
X110131231Y-82223614D01*
X109940000Y-82204780D01*
X109748770Y-82223614D01*
X109589846Y-82271823D01*
X109519979Y-82272446D01*
X109466170Y-82240843D01*
X109041819Y-81816492D01*
X109008334Y-81755169D01*
X109005500Y-81728811D01*
X109005500Y-81390554D01*
X109025185Y-81323515D01*
X109077989Y-81277760D01*
X109147147Y-81267816D01*
X109210703Y-81296841D01*
X109225351Y-81311886D01*
X109246879Y-81338119D01*
X109246881Y-81338121D01*
X109395417Y-81460022D01*
X109395424Y-81460026D01*
X109564881Y-81550603D01*
X109564883Y-81550603D01*
X109564886Y-81550605D01*
X109748769Y-81606385D01*
X109748768Y-81606385D01*
X109765914Y-81608073D01*
X109940000Y-81625220D01*
X110131231Y-81606385D01*
X110315114Y-81550605D01*
X110315122Y-81550601D01*
X110471464Y-81467034D01*
X110484581Y-81460023D01*
X110633120Y-81338120D01*
X110674646Y-81287519D01*
X110732392Y-81248185D01*
X110802236Y-81246314D01*
X110862005Y-81282501D01*
X110892721Y-81345256D01*
X110894500Y-81366184D01*
X110894500Y-81872147D01*
X110894500Y-81957853D01*
X110899266Y-81975640D01*
X110916682Y-82040640D01*
X110922456Y-82050640D01*
X110959535Y-82114862D01*
X110959537Y-82114864D01*
X111540498Y-82695825D01*
X111573983Y-82757148D01*
X111571478Y-82819501D01*
X111518614Y-82993770D01*
X111499780Y-83185000D01*
X111518614Y-83376229D01*
X111574396Y-83560118D01*
X111664973Y-83729575D01*
X111664977Y-83729582D01*
X111786879Y-83878120D01*
X111935417Y-84000022D01*
X111935424Y-84000026D01*
X112104881Y-84090603D01*
X112104883Y-84090603D01*
X112104886Y-84090605D01*
X112288769Y-84146385D01*
X112288768Y-84146385D01*
X112305562Y-84148039D01*
X112480000Y-84165220D01*
X112671231Y-84146385D01*
X112855114Y-84090605D01*
X112865859Y-84084862D01*
X112922900Y-84054372D01*
X113024581Y-84000023D01*
X113173120Y-83878120D01*
X113295023Y-83729581D01*
X113385605Y-83560114D01*
X113441385Y-83376231D01*
X113460220Y-83185000D01*
X113441385Y-82993769D01*
X113385605Y-82809886D01*
X113385603Y-82809883D01*
X113385603Y-82809881D01*
X113295026Y-82640424D01*
X113295022Y-82640417D01*
X113173120Y-82491879D01*
X113024582Y-82369977D01*
X113024575Y-82369973D01*
X112855118Y-82279396D01*
X112735699Y-82243171D01*
X112671231Y-82223615D01*
X112671229Y-82223614D01*
X112671231Y-82223614D01*
X112480000Y-82204780D01*
X112288770Y-82223614D01*
X112129846Y-82271823D01*
X112059979Y-82272446D01*
X112006170Y-82240843D01*
X111581819Y-81816492D01*
X111548334Y-81755169D01*
X111545500Y-81728811D01*
X111545500Y-81390554D01*
X111565185Y-81323515D01*
X111617989Y-81277760D01*
X111687147Y-81267816D01*
X111750703Y-81296841D01*
X111765351Y-81311886D01*
X111786879Y-81338119D01*
X111786881Y-81338121D01*
X111935417Y-81460022D01*
X111935424Y-81460026D01*
X112104881Y-81550603D01*
X112104883Y-81550603D01*
X112104886Y-81550605D01*
X112288769Y-81606385D01*
X112288768Y-81606385D01*
X112305914Y-81608073D01*
X112480000Y-81625220D01*
X112671231Y-81606385D01*
X112855114Y-81550605D01*
X112855122Y-81550601D01*
X113011464Y-81467034D01*
X113024581Y-81460023D01*
X113173120Y-81338120D01*
X113214646Y-81287519D01*
X113272392Y-81248185D01*
X113342236Y-81246314D01*
X113402005Y-81282501D01*
X113432721Y-81345256D01*
X113434500Y-81366184D01*
X113434500Y-81872147D01*
X113434500Y-81957853D01*
X113439266Y-81975640D01*
X113456682Y-82040640D01*
X113462456Y-82050640D01*
X113499535Y-82114862D01*
X113499537Y-82114864D01*
X114080498Y-82695825D01*
X114113983Y-82757148D01*
X114111478Y-82819501D01*
X114058614Y-82993770D01*
X114039780Y-83185000D01*
X114058614Y-83376229D01*
X114114396Y-83560118D01*
X114204973Y-83729575D01*
X114204977Y-83729582D01*
X114326879Y-83878120D01*
X114475417Y-84000022D01*
X114475424Y-84000026D01*
X114644881Y-84090603D01*
X114644883Y-84090603D01*
X114644886Y-84090605D01*
X114828769Y-84146385D01*
X114828768Y-84146385D01*
X114845562Y-84148039D01*
X115020000Y-84165220D01*
X115211231Y-84146385D01*
X115395114Y-84090605D01*
X115405859Y-84084862D01*
X115462900Y-84054372D01*
X115564581Y-84000023D01*
X115713120Y-83878120D01*
X115835023Y-83729581D01*
X115925605Y-83560114D01*
X115981385Y-83376231D01*
X116000220Y-83185000D01*
X115981385Y-82993769D01*
X115925605Y-82809886D01*
X115925603Y-82809883D01*
X115925603Y-82809881D01*
X115835026Y-82640424D01*
X115835022Y-82640417D01*
X115713120Y-82491879D01*
X115564582Y-82369977D01*
X115564575Y-82369973D01*
X115395118Y-82279396D01*
X115275699Y-82243171D01*
X115211231Y-82223615D01*
X115211229Y-82223614D01*
X115211231Y-82223614D01*
X115020000Y-82204780D01*
X114828770Y-82223614D01*
X114669846Y-82271823D01*
X114599979Y-82272446D01*
X114546170Y-82240843D01*
X114121819Y-81816492D01*
X114088334Y-81755169D01*
X114085500Y-81728811D01*
X114085500Y-81390554D01*
X114105185Y-81323515D01*
X114157989Y-81277760D01*
X114227147Y-81267816D01*
X114290703Y-81296841D01*
X114305351Y-81311886D01*
X114326879Y-81338119D01*
X114326881Y-81338121D01*
X114475417Y-81460022D01*
X114475424Y-81460026D01*
X114644881Y-81550603D01*
X114644883Y-81550603D01*
X114644886Y-81550605D01*
X114828769Y-81606385D01*
X114828768Y-81606385D01*
X114845914Y-81608073D01*
X115020000Y-81625220D01*
X115211231Y-81606385D01*
X115395114Y-81550605D01*
X115395122Y-81550601D01*
X115551464Y-81467034D01*
X115564581Y-81460023D01*
X115713120Y-81338120D01*
X115754646Y-81287519D01*
X115812392Y-81248185D01*
X115882236Y-81246314D01*
X115942005Y-81282501D01*
X115972721Y-81345256D01*
X115974500Y-81366184D01*
X115974500Y-81872147D01*
X115974500Y-81957853D01*
X115979266Y-81975640D01*
X115996682Y-82040640D01*
X116002456Y-82050640D01*
X116039535Y-82114862D01*
X116039537Y-82114864D01*
X116620498Y-82695825D01*
X116653983Y-82757148D01*
X116651478Y-82819501D01*
X116598614Y-82993770D01*
X116579780Y-83185000D01*
X116598614Y-83376229D01*
X116654396Y-83560118D01*
X116744973Y-83729575D01*
X116744977Y-83729582D01*
X116866879Y-83878120D01*
X117015417Y-84000022D01*
X117015424Y-84000026D01*
X117184881Y-84090603D01*
X117184883Y-84090603D01*
X117184886Y-84090605D01*
X117368769Y-84146385D01*
X117368768Y-84146385D01*
X117385562Y-84148039D01*
X117560000Y-84165220D01*
X117751231Y-84146385D01*
X117935114Y-84090605D01*
X117945859Y-84084862D01*
X118002900Y-84054372D01*
X118104581Y-84000023D01*
X118253120Y-83878120D01*
X118375023Y-83729581D01*
X118465605Y-83560114D01*
X118521385Y-83376231D01*
X118540220Y-83185000D01*
X118521385Y-82993769D01*
X118465605Y-82809886D01*
X118465603Y-82809883D01*
X118465603Y-82809881D01*
X118375026Y-82640424D01*
X118375022Y-82640417D01*
X118253120Y-82491879D01*
X118104582Y-82369977D01*
X118104575Y-82369973D01*
X117935118Y-82279396D01*
X117815699Y-82243171D01*
X117751231Y-82223615D01*
X117751229Y-82223614D01*
X117751231Y-82223614D01*
X117560000Y-82204780D01*
X117368770Y-82223614D01*
X117209846Y-82271823D01*
X117139979Y-82272446D01*
X117086170Y-82240843D01*
X116661819Y-81816492D01*
X116628334Y-81755169D01*
X116625500Y-81728811D01*
X116625500Y-81390554D01*
X116645185Y-81323515D01*
X116697989Y-81277760D01*
X116767147Y-81267816D01*
X116830703Y-81296841D01*
X116845351Y-81311886D01*
X116866879Y-81338119D01*
X116866881Y-81338121D01*
X117015417Y-81460022D01*
X117015424Y-81460026D01*
X117184881Y-81550603D01*
X117184883Y-81550603D01*
X117184886Y-81550605D01*
X117368769Y-81606385D01*
X117368768Y-81606385D01*
X117385914Y-81608073D01*
X117560000Y-81625220D01*
X117751231Y-81606385D01*
X117935114Y-81550605D01*
X117935122Y-81550601D01*
X118091464Y-81467034D01*
X118104581Y-81460023D01*
X118253120Y-81338120D01*
X118294646Y-81287519D01*
X118352392Y-81248185D01*
X118422236Y-81246314D01*
X118482005Y-81282501D01*
X118512721Y-81345256D01*
X118514500Y-81366184D01*
X118514500Y-81872147D01*
X118514500Y-81957853D01*
X118519266Y-81975640D01*
X118536682Y-82040640D01*
X118542456Y-82050640D01*
X118579535Y-82114862D01*
X118579537Y-82114864D01*
X119160498Y-82695825D01*
X119193983Y-82757148D01*
X119191478Y-82819501D01*
X119138614Y-82993770D01*
X119119780Y-83185000D01*
X119138614Y-83376229D01*
X119194396Y-83560118D01*
X119284973Y-83729575D01*
X119284977Y-83729582D01*
X119406879Y-83878120D01*
X119555417Y-84000022D01*
X119555424Y-84000026D01*
X119724881Y-84090603D01*
X119724883Y-84090603D01*
X119724886Y-84090605D01*
X119908769Y-84146385D01*
X119908768Y-84146385D01*
X119925562Y-84148039D01*
X120100000Y-84165220D01*
X120291231Y-84146385D01*
X120475114Y-84090605D01*
X120485859Y-84084862D01*
X120542900Y-84054372D01*
X120644581Y-84000023D01*
X120793120Y-83878120D01*
X120915023Y-83729581D01*
X121005605Y-83560114D01*
X121061385Y-83376231D01*
X121080220Y-83185000D01*
X121061385Y-82993769D01*
X121005605Y-82809886D01*
X121005603Y-82809883D01*
X121005603Y-82809881D01*
X120915026Y-82640424D01*
X120915022Y-82640417D01*
X120793120Y-82491879D01*
X120644582Y-82369977D01*
X120644575Y-82369973D01*
X120475118Y-82279396D01*
X120355699Y-82243171D01*
X120291231Y-82223615D01*
X120291229Y-82223614D01*
X120291231Y-82223614D01*
X120100000Y-82204780D01*
X119908770Y-82223614D01*
X119749846Y-82271823D01*
X119679979Y-82272446D01*
X119626170Y-82240843D01*
X119201819Y-81816492D01*
X119168334Y-81755169D01*
X119165500Y-81728811D01*
X119165500Y-81390554D01*
X119185185Y-81323515D01*
X119237989Y-81277760D01*
X119307147Y-81267816D01*
X119370703Y-81296841D01*
X119385351Y-81311886D01*
X119406879Y-81338119D01*
X119406881Y-81338121D01*
X119555417Y-81460022D01*
X119555424Y-81460026D01*
X119724881Y-81550603D01*
X119724883Y-81550603D01*
X119724886Y-81550605D01*
X119908769Y-81606385D01*
X119908768Y-81606385D01*
X119925914Y-81608073D01*
X120100000Y-81625220D01*
X120291231Y-81606385D01*
X120475114Y-81550605D01*
X120475122Y-81550601D01*
X120631464Y-81467034D01*
X120644581Y-81460023D01*
X120793120Y-81338120D01*
X120834646Y-81287519D01*
X120892392Y-81248185D01*
X120962236Y-81246314D01*
X121022005Y-81282501D01*
X121052721Y-81345256D01*
X121054500Y-81366184D01*
X121054500Y-81872147D01*
X121054500Y-81957853D01*
X121059266Y-81975640D01*
X121076682Y-82040640D01*
X121082456Y-82050640D01*
X121119535Y-82114862D01*
X121119537Y-82114864D01*
X121700498Y-82695825D01*
X121733983Y-82757148D01*
X121731478Y-82819501D01*
X121678614Y-82993770D01*
X121659780Y-83185000D01*
X121678614Y-83376229D01*
X121734396Y-83560118D01*
X121824973Y-83729575D01*
X121824977Y-83729582D01*
X121946879Y-83878120D01*
X122095417Y-84000022D01*
X122095424Y-84000026D01*
X122264881Y-84090603D01*
X122264883Y-84090603D01*
X122264886Y-84090605D01*
X122448769Y-84146385D01*
X122448768Y-84146385D01*
X122465562Y-84148039D01*
X122640000Y-84165220D01*
X122831231Y-84146385D01*
X123015114Y-84090605D01*
X123025859Y-84084862D01*
X123082900Y-84054372D01*
X123184581Y-84000023D01*
X123333120Y-83878120D01*
X123455023Y-83729581D01*
X123456548Y-83727299D01*
X123457656Y-83726372D01*
X123458888Y-83724872D01*
X123459172Y-83725105D01*
X123510158Y-83682491D01*
X123579483Y-83673781D01*
X123642512Y-83703933D01*
X123658029Y-83720698D01*
X123659532Y-83722657D01*
X123659535Y-83722662D01*
X123659538Y-83722665D01*
X123659539Y-83722666D01*
X125189194Y-85252320D01*
X125189204Y-85252331D01*
X125193534Y-85256661D01*
X125193535Y-85256662D01*
X125254138Y-85317265D01*
X125299648Y-85343540D01*
X125299649Y-85343541D01*
X125328356Y-85360115D01*
X125328359Y-85360117D01*
X125328361Y-85360117D01*
X125328362Y-85360118D01*
X125411147Y-85382301D01*
X125411149Y-85382301D01*
X125504449Y-85382301D01*
X125504465Y-85382300D01*
X137454656Y-85382300D01*
X137521695Y-85401985D01*
X137553030Y-85430811D01*
X137638718Y-85542482D01*
X137764159Y-85638736D01*
X137910238Y-85699244D01*
X137995175Y-85710426D01*
X138011391Y-85712561D01*
X138069810Y-85738404D01*
X138103859Y-85716523D01*
X138122609Y-85712561D01*
X138131423Y-85711400D01*
X138223762Y-85699244D01*
X138369841Y-85638736D01*
X138495282Y-85542482D01*
X138591536Y-85417041D01*
X138652044Y-85270962D01*
X138672682Y-85114200D01*
X138665967Y-85063198D01*
X138652044Y-84957439D01*
X138652044Y-84957438D01*
X138591536Y-84811359D01*
X138495282Y-84685918D01*
X138369841Y-84589664D01*
X138223762Y-84529156D01*
X138223760Y-84529155D01*
X138067001Y-84508518D01*
X138066999Y-84508518D01*
X137910239Y-84529155D01*
X137910237Y-84529156D01*
X137764160Y-84589663D01*
X137764159Y-84589664D01*
X137638718Y-84685918D01*
X137638716Y-84685919D01*
X137638711Y-84685924D01*
X137632967Y-84691668D01*
X137631274Y-84689974D01*
X137584698Y-84723987D01*
X137542745Y-84731300D01*
X125640188Y-84731300D01*
X125573149Y-84711615D01*
X125552507Y-84694981D01*
X125222231Y-84364705D01*
X125188746Y-84303382D01*
X125193730Y-84233690D01*
X125235602Y-84177757D01*
X125297757Y-84153621D01*
X125371231Y-84146385D01*
X125555114Y-84090605D01*
X125565859Y-84084862D01*
X125622900Y-84054372D01*
X125724581Y-84000023D01*
X125873120Y-83878120D01*
X125995023Y-83729581D01*
X126085605Y-83560114D01*
X126141385Y-83376231D01*
X126160220Y-83185000D01*
X126141385Y-82993769D01*
X126085605Y-82809886D01*
X126085603Y-82809883D01*
X126085603Y-82809881D01*
X125995026Y-82640424D01*
X125995022Y-82640417D01*
X125873120Y-82491879D01*
X125724582Y-82369977D01*
X125724575Y-82369973D01*
X125555118Y-82279396D01*
X125435699Y-82243171D01*
X125371231Y-82223615D01*
X125371229Y-82223614D01*
X125371231Y-82223614D01*
X125180000Y-82204780D01*
X124988770Y-82223614D01*
X124829846Y-82271823D01*
X124759979Y-82272446D01*
X124706170Y-82240843D01*
X124281819Y-81816492D01*
X124248334Y-81755169D01*
X124245500Y-81728811D01*
X124245500Y-81390554D01*
X124265185Y-81323515D01*
X124317989Y-81277760D01*
X124387147Y-81267816D01*
X124450703Y-81296841D01*
X124465351Y-81311886D01*
X124486879Y-81338119D01*
X124486881Y-81338121D01*
X124635417Y-81460022D01*
X124635424Y-81460026D01*
X124804881Y-81550603D01*
X124804883Y-81550603D01*
X124804886Y-81550605D01*
X124988769Y-81606385D01*
X124988768Y-81606385D01*
X125005914Y-81608073D01*
X125180000Y-81625220D01*
X125371231Y-81606385D01*
X125555114Y-81550605D01*
X125555122Y-81550601D01*
X125711464Y-81467034D01*
X125724581Y-81460023D01*
X125873120Y-81338120D01*
X125914646Y-81287519D01*
X125972392Y-81248185D01*
X126042236Y-81246314D01*
X126102005Y-81282501D01*
X126132721Y-81345256D01*
X126134500Y-81366184D01*
X126134500Y-81872147D01*
X126134500Y-81957853D01*
X126139266Y-81975640D01*
X126156682Y-82040640D01*
X126162456Y-82050640D01*
X126199535Y-82114862D01*
X126199537Y-82114864D01*
X126780498Y-82695825D01*
X126813983Y-82757148D01*
X126811478Y-82819501D01*
X126758614Y-82993770D01*
X126739780Y-83185000D01*
X126758614Y-83376229D01*
X126814396Y-83560118D01*
X126904973Y-83729575D01*
X126904977Y-83729582D01*
X127026879Y-83878120D01*
X127175417Y-84000022D01*
X127175424Y-84000026D01*
X127344881Y-84090603D01*
X127344883Y-84090603D01*
X127344886Y-84090605D01*
X127528769Y-84146385D01*
X127528768Y-84146385D01*
X127545562Y-84148039D01*
X127720000Y-84165220D01*
X127911231Y-84146385D01*
X128095114Y-84090605D01*
X128105859Y-84084862D01*
X128162900Y-84054372D01*
X128264581Y-84000023D01*
X128413120Y-83878120D01*
X128535023Y-83729581D01*
X128625605Y-83560114D01*
X128681385Y-83376231D01*
X128700220Y-83185000D01*
X128681385Y-82993769D01*
X128625605Y-82809886D01*
X128625603Y-82809883D01*
X128625603Y-82809881D01*
X128535026Y-82640424D01*
X128535022Y-82640417D01*
X128413120Y-82491879D01*
X128264582Y-82369977D01*
X128264575Y-82369973D01*
X128095118Y-82279396D01*
X127975699Y-82243171D01*
X127911231Y-82223615D01*
X127911229Y-82223614D01*
X127911231Y-82223614D01*
X127720000Y-82204780D01*
X127528770Y-82223614D01*
X127369846Y-82271823D01*
X127299979Y-82272446D01*
X127246170Y-82240843D01*
X126821819Y-81816492D01*
X126788334Y-81755169D01*
X126785500Y-81728811D01*
X126785500Y-81390554D01*
X126805185Y-81323515D01*
X126857989Y-81277760D01*
X126927147Y-81267816D01*
X126990703Y-81296841D01*
X127005351Y-81311886D01*
X127026879Y-81338119D01*
X127026881Y-81338121D01*
X127175417Y-81460022D01*
X127175424Y-81460026D01*
X127344881Y-81550603D01*
X127344883Y-81550603D01*
X127344886Y-81550605D01*
X127528769Y-81606385D01*
X127528768Y-81606385D01*
X127545914Y-81608073D01*
X127720000Y-81625220D01*
X127911231Y-81606385D01*
X128095114Y-81550605D01*
X128095122Y-81550601D01*
X128251464Y-81467034D01*
X128264581Y-81460023D01*
X128413120Y-81338120D01*
X128454646Y-81287519D01*
X128512392Y-81248185D01*
X128582236Y-81246314D01*
X128642005Y-81282501D01*
X128672721Y-81345256D01*
X128674500Y-81366184D01*
X128674500Y-81872147D01*
X128674500Y-81957853D01*
X128679266Y-81975640D01*
X128696682Y-82040640D01*
X128702456Y-82050640D01*
X128739535Y-82114862D01*
X128739537Y-82114864D01*
X129320498Y-82695825D01*
X129353983Y-82757148D01*
X129351478Y-82819501D01*
X129298614Y-82993770D01*
X129279780Y-83185000D01*
X129298614Y-83376229D01*
X129354396Y-83560118D01*
X129444973Y-83729575D01*
X129444977Y-83729582D01*
X129566879Y-83878120D01*
X129715417Y-84000022D01*
X129715424Y-84000026D01*
X129884881Y-84090603D01*
X129884883Y-84090603D01*
X129884886Y-84090605D01*
X130068769Y-84146385D01*
X130068768Y-84146385D01*
X130085562Y-84148039D01*
X130260000Y-84165220D01*
X130451231Y-84146385D01*
X130635114Y-84090605D01*
X130645859Y-84084862D01*
X130702900Y-84054372D01*
X130804581Y-84000023D01*
X130953120Y-83878120D01*
X131075023Y-83729581D01*
X131165605Y-83560114D01*
X131221385Y-83376231D01*
X131240220Y-83185000D01*
X131221385Y-82993769D01*
X131165605Y-82809886D01*
X131165603Y-82809883D01*
X131165603Y-82809881D01*
X131075026Y-82640424D01*
X131075022Y-82640417D01*
X130953120Y-82491879D01*
X130804582Y-82369977D01*
X130804575Y-82369973D01*
X130635118Y-82279396D01*
X130515699Y-82243171D01*
X130451231Y-82223615D01*
X130451229Y-82223614D01*
X130451231Y-82223614D01*
X130260000Y-82204780D01*
X130068770Y-82223614D01*
X129909846Y-82271823D01*
X129839979Y-82272446D01*
X129786170Y-82240843D01*
X129361819Y-81816492D01*
X129328334Y-81755169D01*
X129325500Y-81728811D01*
X129325500Y-81390554D01*
X129345185Y-81323515D01*
X129397989Y-81277760D01*
X129467147Y-81267816D01*
X129530703Y-81296841D01*
X129545351Y-81311886D01*
X129566879Y-81338119D01*
X129566881Y-81338121D01*
X129715417Y-81460022D01*
X129715424Y-81460026D01*
X129884881Y-81550603D01*
X129884883Y-81550603D01*
X129884886Y-81550605D01*
X130068769Y-81606385D01*
X130068768Y-81606385D01*
X130085914Y-81608073D01*
X130260000Y-81625220D01*
X130451231Y-81606385D01*
X130635114Y-81550605D01*
X130635122Y-81550601D01*
X130791464Y-81467034D01*
X130804581Y-81460023D01*
X130953120Y-81338120D01*
X130994646Y-81287519D01*
X131052392Y-81248185D01*
X131122236Y-81246314D01*
X131182005Y-81282501D01*
X131212721Y-81345256D01*
X131214500Y-81366184D01*
X131214500Y-81872147D01*
X131214500Y-81957853D01*
X131219266Y-81975640D01*
X131236682Y-82040640D01*
X131242456Y-82050640D01*
X131279535Y-82114862D01*
X131279537Y-82114864D01*
X131860498Y-82695825D01*
X131893983Y-82757148D01*
X131891478Y-82819501D01*
X131838614Y-82993770D01*
X131819780Y-83185000D01*
X131838614Y-83376229D01*
X131894396Y-83560118D01*
X131984973Y-83729575D01*
X131984977Y-83729582D01*
X132106879Y-83878120D01*
X132255417Y-84000022D01*
X132255424Y-84000026D01*
X132424881Y-84090603D01*
X132424883Y-84090603D01*
X132424886Y-84090605D01*
X132608769Y-84146385D01*
X132608768Y-84146385D01*
X132625562Y-84148039D01*
X132800000Y-84165220D01*
X132991231Y-84146385D01*
X133175114Y-84090605D01*
X133185859Y-84084862D01*
X133242900Y-84054372D01*
X133344581Y-84000023D01*
X133493120Y-83878120D01*
X133615023Y-83729581D01*
X133705605Y-83560114D01*
X133761385Y-83376231D01*
X133780220Y-83185000D01*
X133761385Y-82993769D01*
X133705605Y-82809886D01*
X133705603Y-82809883D01*
X133705603Y-82809881D01*
X133615026Y-82640424D01*
X133615022Y-82640417D01*
X133493120Y-82491879D01*
X133344582Y-82369977D01*
X133344575Y-82369973D01*
X133175118Y-82279396D01*
X133055699Y-82243171D01*
X132991231Y-82223615D01*
X132991229Y-82223614D01*
X132991231Y-82223614D01*
X132800000Y-82204780D01*
X132608770Y-82223614D01*
X132449846Y-82271823D01*
X132379979Y-82272446D01*
X132326170Y-82240843D01*
X131901819Y-81816492D01*
X131868334Y-81755169D01*
X131865500Y-81728811D01*
X131865500Y-81390554D01*
X131885185Y-81323515D01*
X131937989Y-81277760D01*
X132007147Y-81267816D01*
X132070703Y-81296841D01*
X132085351Y-81311886D01*
X132106879Y-81338119D01*
X132106881Y-81338121D01*
X132255417Y-81460022D01*
X132255424Y-81460026D01*
X132424881Y-81550603D01*
X132424883Y-81550603D01*
X132424886Y-81550605D01*
X132608769Y-81606385D01*
X132608768Y-81606385D01*
X132625914Y-81608073D01*
X132800000Y-81625220D01*
X132991231Y-81606385D01*
X133175114Y-81550605D01*
X133175122Y-81550601D01*
X133331464Y-81467034D01*
X133344581Y-81460023D01*
X133493120Y-81338120D01*
X133534646Y-81287519D01*
X133592392Y-81248185D01*
X133662236Y-81246314D01*
X133722005Y-81282501D01*
X133752721Y-81345256D01*
X133754500Y-81366184D01*
X133754500Y-81872147D01*
X133754500Y-81957853D01*
X133759266Y-81975640D01*
X133776682Y-82040640D01*
X133782456Y-82050640D01*
X133819535Y-82114862D01*
X133819537Y-82114864D01*
X134400498Y-82695825D01*
X134433983Y-82757148D01*
X134431478Y-82819501D01*
X134378614Y-82993770D01*
X134359780Y-83185000D01*
X134378614Y-83376229D01*
X134434396Y-83560118D01*
X134524973Y-83729575D01*
X134524977Y-83729582D01*
X134646879Y-83878120D01*
X134795417Y-84000022D01*
X134795424Y-84000026D01*
X134964881Y-84090603D01*
X134964883Y-84090603D01*
X134964886Y-84090605D01*
X135148769Y-84146385D01*
X135148768Y-84146385D01*
X135165562Y-84148039D01*
X135340000Y-84165220D01*
X135531231Y-84146385D01*
X135715114Y-84090605D01*
X135725859Y-84084862D01*
X135782900Y-84054372D01*
X135884581Y-84000023D01*
X136033120Y-83878120D01*
X136155023Y-83729581D01*
X136245605Y-83560114D01*
X136301385Y-83376231D01*
X136320220Y-83185000D01*
X136301385Y-82993769D01*
X136245605Y-82809886D01*
X136245603Y-82809883D01*
X136245603Y-82809881D01*
X136155026Y-82640424D01*
X136155022Y-82640417D01*
X136033120Y-82491879D01*
X135884582Y-82369977D01*
X135884575Y-82369973D01*
X135715118Y-82279396D01*
X135595699Y-82243171D01*
X135531231Y-82223615D01*
X135531229Y-82223614D01*
X135531231Y-82223614D01*
X135340000Y-82204780D01*
X135148770Y-82223614D01*
X134989846Y-82271823D01*
X134919979Y-82272446D01*
X134866170Y-82240843D01*
X134441819Y-81816492D01*
X134408334Y-81755169D01*
X134405500Y-81728811D01*
X134405500Y-81390554D01*
X134425185Y-81323515D01*
X134477989Y-81277760D01*
X134547147Y-81267816D01*
X134610703Y-81296841D01*
X134625351Y-81311886D01*
X134646879Y-81338119D01*
X134646881Y-81338121D01*
X134795417Y-81460022D01*
X134795424Y-81460026D01*
X134964881Y-81550603D01*
X134964883Y-81550603D01*
X134964886Y-81550605D01*
X135148769Y-81606385D01*
X135148768Y-81606385D01*
X135165914Y-81608073D01*
X135340000Y-81625220D01*
X135531231Y-81606385D01*
X135715114Y-81550605D01*
X135715122Y-81550601D01*
X135871464Y-81467034D01*
X135884581Y-81460023D01*
X136033120Y-81338120D01*
X136074646Y-81287519D01*
X136132392Y-81248185D01*
X136202236Y-81246314D01*
X136262005Y-81282501D01*
X136292721Y-81345256D01*
X136294500Y-81366184D01*
X136294500Y-81872147D01*
X136294500Y-81957853D01*
X136299266Y-81975640D01*
X136316682Y-82040640D01*
X136322456Y-82050640D01*
X136359535Y-82114862D01*
X136359537Y-82114864D01*
X136940498Y-82695825D01*
X136973983Y-82757148D01*
X136971478Y-82819501D01*
X136918614Y-82993770D01*
X136899780Y-83185000D01*
X136918614Y-83376229D01*
X136974396Y-83560118D01*
X137064973Y-83729575D01*
X137064977Y-83729582D01*
X137186879Y-83878120D01*
X137335417Y-84000022D01*
X137335424Y-84000026D01*
X137504881Y-84090603D01*
X137504883Y-84090603D01*
X137504886Y-84090605D01*
X137688769Y-84146385D01*
X137688768Y-84146385D01*
X137705562Y-84148039D01*
X137880000Y-84165220D01*
X138071231Y-84146385D01*
X138255114Y-84090605D01*
X138265859Y-84084862D01*
X138322900Y-84054372D01*
X138424581Y-84000023D01*
X138573120Y-83878120D01*
X138695023Y-83729581D01*
X138785605Y-83560114D01*
X138841385Y-83376231D01*
X138860220Y-83185000D01*
X138841385Y-82993769D01*
X138785605Y-82809886D01*
X138785603Y-82809883D01*
X138785603Y-82809881D01*
X138695026Y-82640424D01*
X138695022Y-82640417D01*
X138573120Y-82491879D01*
X138424582Y-82369977D01*
X138424575Y-82369973D01*
X138255118Y-82279396D01*
X138135699Y-82243171D01*
X138071231Y-82223615D01*
X138071229Y-82223614D01*
X138071231Y-82223614D01*
X137880000Y-82204780D01*
X137688770Y-82223614D01*
X137529846Y-82271823D01*
X137459979Y-82272446D01*
X137406170Y-82240843D01*
X136981819Y-81816492D01*
X136948334Y-81755169D01*
X136945500Y-81728811D01*
X136945500Y-81390554D01*
X136965185Y-81323515D01*
X137017989Y-81277760D01*
X137087147Y-81267816D01*
X137150703Y-81296841D01*
X137165351Y-81311886D01*
X137186879Y-81338119D01*
X137186881Y-81338121D01*
X137335417Y-81460022D01*
X137335424Y-81460026D01*
X137504881Y-81550603D01*
X137504883Y-81550603D01*
X137504886Y-81550605D01*
X137688769Y-81606385D01*
X137688768Y-81606385D01*
X137705914Y-81608073D01*
X137880000Y-81625220D01*
X138071231Y-81606385D01*
X138255114Y-81550605D01*
X138255122Y-81550601D01*
X138411464Y-81467034D01*
X138424581Y-81460023D01*
X138573120Y-81338120D01*
X138614646Y-81287519D01*
X138672392Y-81248185D01*
X138742236Y-81246314D01*
X138802005Y-81282501D01*
X138832721Y-81345256D01*
X138834500Y-81366184D01*
X138834500Y-81872147D01*
X138834500Y-81957853D01*
X138839266Y-81975640D01*
X138856682Y-82040640D01*
X138862456Y-82050640D01*
X138899535Y-82114862D01*
X138899537Y-82114864D01*
X139480498Y-82695825D01*
X139513983Y-82757148D01*
X139511478Y-82819501D01*
X139458614Y-82993770D01*
X139439780Y-83185000D01*
X139458614Y-83376229D01*
X139514396Y-83560118D01*
X139604973Y-83729575D01*
X139604977Y-83729582D01*
X139726879Y-83878120D01*
X139875417Y-84000022D01*
X139875424Y-84000026D01*
X140044881Y-84090603D01*
X140044883Y-84090603D01*
X140044886Y-84090605D01*
X140228769Y-84146385D01*
X140228768Y-84146385D01*
X140245562Y-84148039D01*
X140420000Y-84165220D01*
X140611231Y-84146385D01*
X140795114Y-84090605D01*
X140805859Y-84084862D01*
X140862900Y-84054372D01*
X140964581Y-84000023D01*
X141113120Y-83878120D01*
X141235023Y-83729581D01*
X141325605Y-83560114D01*
X141381385Y-83376231D01*
X141400220Y-83185000D01*
X141381385Y-82993769D01*
X141325605Y-82809886D01*
X141325603Y-82809883D01*
X141325603Y-82809881D01*
X141235026Y-82640424D01*
X141235022Y-82640417D01*
X141113120Y-82491879D01*
X140964582Y-82369977D01*
X140964575Y-82369973D01*
X140795118Y-82279396D01*
X140675699Y-82243171D01*
X140611231Y-82223615D01*
X140611229Y-82223614D01*
X140611231Y-82223614D01*
X140420000Y-82204780D01*
X140228770Y-82223614D01*
X140069846Y-82271823D01*
X139999979Y-82272446D01*
X139946170Y-82240843D01*
X139521819Y-81816492D01*
X139488334Y-81755169D01*
X139485500Y-81728811D01*
X139485500Y-81390554D01*
X139505185Y-81323515D01*
X139557989Y-81277760D01*
X139627147Y-81267816D01*
X139690703Y-81296841D01*
X139705351Y-81311886D01*
X139726879Y-81338119D01*
X139726881Y-81338121D01*
X139875417Y-81460022D01*
X139875424Y-81460026D01*
X140044881Y-81550603D01*
X140044883Y-81550603D01*
X140044886Y-81550605D01*
X140228769Y-81606385D01*
X140228768Y-81606385D01*
X140245914Y-81608073D01*
X140420000Y-81625220D01*
X140611231Y-81606385D01*
X140795114Y-81550605D01*
X140795122Y-81550601D01*
X140951464Y-81467034D01*
X140964581Y-81460023D01*
X141113120Y-81338120D01*
X141154646Y-81287519D01*
X141212392Y-81248185D01*
X141282236Y-81246314D01*
X141342005Y-81282501D01*
X141372721Y-81345256D01*
X141374500Y-81366184D01*
X141374500Y-81872147D01*
X141374500Y-81957853D01*
X141379266Y-81975640D01*
X141396682Y-82040640D01*
X141402456Y-82050640D01*
X141439535Y-82114862D01*
X141439537Y-82114864D01*
X142020498Y-82695825D01*
X142053983Y-82757148D01*
X142051478Y-82819501D01*
X141998614Y-82993770D01*
X141979780Y-83185000D01*
X141998614Y-83376229D01*
X142054396Y-83560118D01*
X142144973Y-83729575D01*
X142144977Y-83729582D01*
X142266879Y-83878120D01*
X142415417Y-84000022D01*
X142415424Y-84000026D01*
X142584881Y-84090603D01*
X142584883Y-84090603D01*
X142584886Y-84090605D01*
X142768769Y-84146385D01*
X142768768Y-84146385D01*
X142785562Y-84148039D01*
X142960000Y-84165220D01*
X143151231Y-84146385D01*
X143335114Y-84090605D01*
X143345859Y-84084862D01*
X143402900Y-84054372D01*
X143504581Y-84000023D01*
X143653120Y-83878120D01*
X143775023Y-83729581D01*
X143865605Y-83560114D01*
X143921385Y-83376231D01*
X143940220Y-83185000D01*
X143921385Y-82993769D01*
X143865605Y-82809886D01*
X143865603Y-82809883D01*
X143865603Y-82809881D01*
X143775026Y-82640424D01*
X143775022Y-82640417D01*
X143653120Y-82491879D01*
X143504582Y-82369977D01*
X143504575Y-82369973D01*
X143335118Y-82279396D01*
X143215699Y-82243171D01*
X143151231Y-82223615D01*
X143151229Y-82223614D01*
X143151231Y-82223614D01*
X142960000Y-82204780D01*
X142768770Y-82223614D01*
X142609846Y-82271823D01*
X142539979Y-82272446D01*
X142486170Y-82240843D01*
X142061819Y-81816492D01*
X142028334Y-81755169D01*
X142025500Y-81728811D01*
X142025500Y-81390554D01*
X142045185Y-81323515D01*
X142097989Y-81277760D01*
X142167147Y-81267816D01*
X142230703Y-81296841D01*
X142245351Y-81311886D01*
X142266879Y-81338119D01*
X142266881Y-81338121D01*
X142415417Y-81460022D01*
X142415424Y-81460026D01*
X142584881Y-81550603D01*
X142584883Y-81550603D01*
X142584886Y-81550605D01*
X142768769Y-81606385D01*
X142768768Y-81606385D01*
X142785914Y-81608073D01*
X142960000Y-81625220D01*
X143151231Y-81606385D01*
X143335114Y-81550605D01*
X143335122Y-81550601D01*
X143491464Y-81467034D01*
X143504581Y-81460023D01*
X143653120Y-81338120D01*
X143694646Y-81287519D01*
X143752392Y-81248185D01*
X143822236Y-81246314D01*
X143882005Y-81282501D01*
X143912721Y-81345256D01*
X143914500Y-81366184D01*
X143914500Y-81872147D01*
X143914500Y-81957853D01*
X143919266Y-81975640D01*
X143936682Y-82040640D01*
X143942456Y-82050640D01*
X143979535Y-82114862D01*
X143979537Y-82114864D01*
X144560498Y-82695825D01*
X144593983Y-82757148D01*
X144591478Y-82819501D01*
X144538614Y-82993770D01*
X144519780Y-83185000D01*
X144538614Y-83376229D01*
X144594396Y-83560118D01*
X144684973Y-83729575D01*
X144684977Y-83729582D01*
X144806879Y-83878120D01*
X144955417Y-84000022D01*
X144955424Y-84000026D01*
X145124881Y-84090603D01*
X145124883Y-84090603D01*
X145124886Y-84090605D01*
X145308769Y-84146385D01*
X145308768Y-84146385D01*
X145325562Y-84148039D01*
X145500000Y-84165220D01*
X145691231Y-84146385D01*
X145875114Y-84090605D01*
X145885859Y-84084862D01*
X145942900Y-84054372D01*
X146044581Y-84000023D01*
X146193120Y-83878120D01*
X146315023Y-83729581D01*
X146405605Y-83560114D01*
X146461385Y-83376231D01*
X146480220Y-83185000D01*
X146461385Y-82993769D01*
X146405605Y-82809886D01*
X146405603Y-82809883D01*
X146405603Y-82809881D01*
X146315026Y-82640424D01*
X146315022Y-82640417D01*
X146193120Y-82491879D01*
X146044582Y-82369977D01*
X146044575Y-82369973D01*
X145875118Y-82279396D01*
X145755699Y-82243171D01*
X145691231Y-82223615D01*
X145691229Y-82223614D01*
X145691231Y-82223614D01*
X145500000Y-82204780D01*
X145308770Y-82223614D01*
X145149846Y-82271823D01*
X145079979Y-82272446D01*
X145026170Y-82240843D01*
X144601819Y-81816492D01*
X144568334Y-81755169D01*
X144565500Y-81728811D01*
X144565500Y-81390554D01*
X144585185Y-81323515D01*
X144637989Y-81277760D01*
X144707147Y-81267816D01*
X144770703Y-81296841D01*
X144785351Y-81311886D01*
X144806879Y-81338119D01*
X144806881Y-81338121D01*
X144955417Y-81460022D01*
X144955424Y-81460026D01*
X145124881Y-81550603D01*
X145124883Y-81550603D01*
X145124886Y-81550605D01*
X145308769Y-81606385D01*
X145308768Y-81606385D01*
X145325914Y-81608073D01*
X145500000Y-81625220D01*
X145691231Y-81606385D01*
X145875114Y-81550605D01*
X145875122Y-81550601D01*
X146031464Y-81467034D01*
X146044581Y-81460023D01*
X146193120Y-81338120D01*
X146234646Y-81287519D01*
X146292392Y-81248185D01*
X146362236Y-81246314D01*
X146422005Y-81282501D01*
X146452721Y-81345256D01*
X146454500Y-81366184D01*
X146454500Y-81872147D01*
X146454500Y-81957853D01*
X146459266Y-81975640D01*
X146476682Y-82040640D01*
X146482456Y-82050640D01*
X146519535Y-82114862D01*
X146519537Y-82114864D01*
X147100498Y-82695825D01*
X147133983Y-82757148D01*
X147131478Y-82819501D01*
X147078614Y-82993770D01*
X147059780Y-83185000D01*
X147078614Y-83376229D01*
X147134396Y-83560118D01*
X147224973Y-83729575D01*
X147224977Y-83729582D01*
X147346879Y-83878120D01*
X147495417Y-84000022D01*
X147495424Y-84000026D01*
X147664881Y-84090603D01*
X147664883Y-84090603D01*
X147664886Y-84090605D01*
X147848769Y-84146385D01*
X147848768Y-84146385D01*
X147865562Y-84148039D01*
X148040000Y-84165220D01*
X148231231Y-84146385D01*
X148415114Y-84090605D01*
X148425859Y-84084862D01*
X148482900Y-84054372D01*
X148584581Y-84000023D01*
X148733120Y-83878120D01*
X148855023Y-83729581D01*
X148945605Y-83560114D01*
X149001385Y-83376231D01*
X149020220Y-83185000D01*
X149001385Y-82993769D01*
X148945605Y-82809886D01*
X148945603Y-82809883D01*
X148945603Y-82809881D01*
X148855026Y-82640424D01*
X148855022Y-82640417D01*
X148733120Y-82491879D01*
X148584582Y-82369977D01*
X148584575Y-82369973D01*
X148415118Y-82279396D01*
X148295699Y-82243171D01*
X148231231Y-82223615D01*
X148231229Y-82223614D01*
X148231231Y-82223614D01*
X148040000Y-82204780D01*
X147848770Y-82223614D01*
X147689846Y-82271823D01*
X147619979Y-82272446D01*
X147566170Y-82240843D01*
X147141819Y-81816492D01*
X147108334Y-81755169D01*
X147105500Y-81728811D01*
X147105500Y-81390554D01*
X147125185Y-81323515D01*
X147177989Y-81277760D01*
X147247147Y-81267816D01*
X147310703Y-81296841D01*
X147325351Y-81311886D01*
X147346879Y-81338119D01*
X147346881Y-81338121D01*
X147495417Y-81460022D01*
X147495424Y-81460026D01*
X147664881Y-81550603D01*
X147664883Y-81550603D01*
X147664886Y-81550605D01*
X147848769Y-81606385D01*
X147848768Y-81606385D01*
X147865914Y-81608073D01*
X148040000Y-81625220D01*
X148231231Y-81606385D01*
X148415114Y-81550605D01*
X148415122Y-81550601D01*
X148571464Y-81467034D01*
X148584581Y-81460023D01*
X148733120Y-81338120D01*
X148774646Y-81287519D01*
X148832392Y-81248185D01*
X148902236Y-81246314D01*
X148962005Y-81282501D01*
X148992721Y-81345256D01*
X148994500Y-81366184D01*
X148994500Y-81872147D01*
X148994500Y-81957853D01*
X148999266Y-81975640D01*
X149016682Y-82040640D01*
X149022456Y-82050640D01*
X149059535Y-82114862D01*
X149059537Y-82114864D01*
X149640498Y-82695825D01*
X149673983Y-82757148D01*
X149671478Y-82819501D01*
X149618614Y-82993770D01*
X149599780Y-83185000D01*
X149618614Y-83376229D01*
X149674396Y-83560118D01*
X149764973Y-83729575D01*
X149764977Y-83729582D01*
X149886879Y-83878120D01*
X150035417Y-84000022D01*
X150035424Y-84000026D01*
X150204881Y-84090603D01*
X150204883Y-84090603D01*
X150204886Y-84090605D01*
X150388769Y-84146385D01*
X150388768Y-84146385D01*
X150405562Y-84148039D01*
X150580000Y-84165220D01*
X150771231Y-84146385D01*
X150955114Y-84090605D01*
X150965859Y-84084862D01*
X151022900Y-84054372D01*
X151124581Y-84000023D01*
X151273120Y-83878120D01*
X151395023Y-83729581D01*
X151485605Y-83560114D01*
X151541385Y-83376231D01*
X151560220Y-83185000D01*
X151541385Y-82993769D01*
X151485605Y-82809886D01*
X151485603Y-82809883D01*
X151485603Y-82809881D01*
X151395026Y-82640424D01*
X151395022Y-82640417D01*
X151273120Y-82491879D01*
X151124582Y-82369977D01*
X151124575Y-82369973D01*
X150955118Y-82279396D01*
X150835699Y-82243171D01*
X150771231Y-82223615D01*
X150771229Y-82223614D01*
X150771231Y-82223614D01*
X150580000Y-82204780D01*
X150388770Y-82223614D01*
X150229846Y-82271823D01*
X150159979Y-82272446D01*
X150106170Y-82240843D01*
X149681819Y-81816492D01*
X149648334Y-81755169D01*
X149645500Y-81728811D01*
X149645500Y-81390554D01*
X149665185Y-81323515D01*
X149717989Y-81277760D01*
X149787147Y-81267816D01*
X149850703Y-81296841D01*
X149865351Y-81311886D01*
X149886879Y-81338119D01*
X149886881Y-81338121D01*
X150035417Y-81460022D01*
X150035424Y-81460026D01*
X150204881Y-81550603D01*
X150204883Y-81550603D01*
X150204886Y-81550605D01*
X150388769Y-81606385D01*
X150388768Y-81606385D01*
X150405914Y-81608073D01*
X150580000Y-81625220D01*
X150771231Y-81606385D01*
X150955114Y-81550605D01*
X150955122Y-81550601D01*
X151111464Y-81467034D01*
X151124581Y-81460023D01*
X151273120Y-81338120D01*
X151314646Y-81287519D01*
X151372392Y-81248185D01*
X151442236Y-81246314D01*
X151502005Y-81282501D01*
X151532721Y-81345256D01*
X151534500Y-81366184D01*
X151534500Y-81872147D01*
X151534500Y-81957853D01*
X151539266Y-81975640D01*
X151556682Y-82040640D01*
X151562456Y-82050640D01*
X151599535Y-82114862D01*
X151599537Y-82114864D01*
X152180498Y-82695825D01*
X152213983Y-82757148D01*
X152211478Y-82819501D01*
X152158614Y-82993770D01*
X152139780Y-83185000D01*
X152158614Y-83376229D01*
X152214396Y-83560118D01*
X152304973Y-83729575D01*
X152304977Y-83729582D01*
X152426879Y-83878120D01*
X152575417Y-84000022D01*
X152575424Y-84000026D01*
X152744881Y-84090603D01*
X152744883Y-84090603D01*
X152744886Y-84090605D01*
X152928769Y-84146385D01*
X152928768Y-84146385D01*
X152945562Y-84148039D01*
X153120000Y-84165220D01*
X153311231Y-84146385D01*
X153495114Y-84090605D01*
X153505859Y-84084862D01*
X153562900Y-84054372D01*
X153664581Y-84000023D01*
X153813120Y-83878120D01*
X153935023Y-83729581D01*
X154025605Y-83560114D01*
X154081385Y-83376231D01*
X154100220Y-83185000D01*
X154081385Y-82993769D01*
X154025605Y-82809886D01*
X154025603Y-82809883D01*
X154025603Y-82809881D01*
X153935026Y-82640424D01*
X153935022Y-82640417D01*
X153813120Y-82491879D01*
X153664582Y-82369977D01*
X153664575Y-82369973D01*
X153495118Y-82279396D01*
X153375699Y-82243171D01*
X153311231Y-82223615D01*
X153311229Y-82223614D01*
X153311231Y-82223614D01*
X153120000Y-82204780D01*
X152928770Y-82223614D01*
X152769846Y-82271823D01*
X152699979Y-82272446D01*
X152646170Y-82240843D01*
X152221819Y-81816492D01*
X152188334Y-81755169D01*
X152185500Y-81728811D01*
X152185500Y-81390554D01*
X152205185Y-81323515D01*
X152257989Y-81277760D01*
X152327147Y-81267816D01*
X152390703Y-81296841D01*
X152405351Y-81311886D01*
X152426879Y-81338119D01*
X152426881Y-81338121D01*
X152575417Y-81460022D01*
X152575424Y-81460026D01*
X152744881Y-81550603D01*
X152744883Y-81550603D01*
X152744886Y-81550605D01*
X152928769Y-81606385D01*
X152928768Y-81606385D01*
X152945914Y-81608073D01*
X153120000Y-81625220D01*
X153311231Y-81606385D01*
X153495114Y-81550605D01*
X153495122Y-81550601D01*
X153651464Y-81467034D01*
X153664581Y-81460023D01*
X153813120Y-81338120D01*
X153854646Y-81287519D01*
X153912392Y-81248185D01*
X153982236Y-81246314D01*
X154042005Y-81282501D01*
X154072721Y-81345256D01*
X154074500Y-81366184D01*
X154074500Y-81872147D01*
X154074500Y-81957853D01*
X154079266Y-81975640D01*
X154096682Y-82040640D01*
X154102456Y-82050640D01*
X154139535Y-82114862D01*
X154139537Y-82114864D01*
X154720498Y-82695825D01*
X154753983Y-82757148D01*
X154751478Y-82819501D01*
X154698614Y-82993770D01*
X154679780Y-83185000D01*
X154698614Y-83376229D01*
X154754396Y-83560118D01*
X154844973Y-83729575D01*
X154844977Y-83729582D01*
X154966879Y-83878120D01*
X155115417Y-84000022D01*
X155115424Y-84000026D01*
X155284881Y-84090603D01*
X155284883Y-84090603D01*
X155284886Y-84090605D01*
X155468769Y-84146385D01*
X155468768Y-84146385D01*
X155485562Y-84148039D01*
X155660000Y-84165220D01*
X155851231Y-84146385D01*
X156035114Y-84090605D01*
X156045859Y-84084862D01*
X156102900Y-84054372D01*
X156204581Y-84000023D01*
X156353120Y-83878120D01*
X156475023Y-83729581D01*
X156565605Y-83560114D01*
X156621385Y-83376231D01*
X156640220Y-83185000D01*
X156621385Y-82993769D01*
X156565605Y-82809886D01*
X156565603Y-82809883D01*
X156565603Y-82809881D01*
X156475026Y-82640424D01*
X156475022Y-82640417D01*
X156353120Y-82491879D01*
X156204582Y-82369977D01*
X156204575Y-82369973D01*
X156035118Y-82279396D01*
X155915699Y-82243171D01*
X155851231Y-82223615D01*
X155851229Y-82223614D01*
X155851231Y-82223614D01*
X155660000Y-82204780D01*
X155468770Y-82223614D01*
X155309846Y-82271823D01*
X155239979Y-82272446D01*
X155186170Y-82240843D01*
X154761819Y-81816492D01*
X154728334Y-81755169D01*
X154725500Y-81728811D01*
X154725500Y-81390554D01*
X154745185Y-81323515D01*
X154797989Y-81277760D01*
X154867147Y-81267816D01*
X154930703Y-81296841D01*
X154945351Y-81311886D01*
X154966879Y-81338119D01*
X154966881Y-81338121D01*
X155115417Y-81460022D01*
X155115424Y-81460026D01*
X155284881Y-81550603D01*
X155284883Y-81550603D01*
X155284886Y-81550605D01*
X155468769Y-81606385D01*
X155468768Y-81606385D01*
X155485914Y-81608073D01*
X155660000Y-81625220D01*
X155851231Y-81606385D01*
X156035114Y-81550605D01*
X156035122Y-81550601D01*
X156191464Y-81467034D01*
X156204581Y-81460023D01*
X156353120Y-81338120D01*
X156394646Y-81287519D01*
X156452392Y-81248185D01*
X156522236Y-81246314D01*
X156582005Y-81282501D01*
X156612721Y-81345256D01*
X156614500Y-81366184D01*
X156614500Y-81882147D01*
X156614500Y-81967853D01*
X156616587Y-81975641D01*
X156636682Y-82050640D01*
X156658108Y-82087750D01*
X156679535Y-82124862D01*
X156679537Y-82124864D01*
X157258170Y-82703497D01*
X157291655Y-82764820D01*
X157289150Y-82827172D01*
X157238614Y-82993769D01*
X157219780Y-83185000D01*
X157238614Y-83376229D01*
X157294396Y-83560118D01*
X157384973Y-83729575D01*
X157384977Y-83729582D01*
X157506879Y-83878120D01*
X157655417Y-84000022D01*
X157655424Y-84000026D01*
X157824881Y-84090603D01*
X157824883Y-84090603D01*
X157824886Y-84090605D01*
X158008769Y-84146385D01*
X158008768Y-84146385D01*
X158025562Y-84148039D01*
X158200000Y-84165220D01*
X158391231Y-84146385D01*
X158575114Y-84090605D01*
X158585859Y-84084862D01*
X158642900Y-84054372D01*
X158744581Y-84000023D01*
X158893120Y-83878120D01*
X159015023Y-83729581D01*
X159105605Y-83560114D01*
X159161385Y-83376231D01*
X159180220Y-83185000D01*
X159161385Y-82993769D01*
X159105605Y-82809886D01*
X159105603Y-82809883D01*
X159105603Y-82809881D01*
X159015026Y-82640424D01*
X159015022Y-82640417D01*
X158893120Y-82491879D01*
X158744582Y-82369977D01*
X158744575Y-82369973D01*
X158575118Y-82279396D01*
X158455699Y-82243171D01*
X158391231Y-82223615D01*
X158391229Y-82223614D01*
X158391231Y-82223614D01*
X158200000Y-82204780D01*
X158008769Y-82223614D01*
X157842172Y-82274150D01*
X157772305Y-82274773D01*
X157718497Y-82243170D01*
X157301819Y-81826492D01*
X157268334Y-81765169D01*
X157265500Y-81738811D01*
X157265500Y-81390554D01*
X157285185Y-81323515D01*
X157337989Y-81277760D01*
X157407147Y-81267816D01*
X157470703Y-81296841D01*
X157485351Y-81311886D01*
X157506879Y-81338119D01*
X157506881Y-81338121D01*
X157655417Y-81460022D01*
X157655424Y-81460026D01*
X157824881Y-81550603D01*
X157824883Y-81550603D01*
X157824886Y-81550605D01*
X158008769Y-81606385D01*
X158008768Y-81606385D01*
X158025914Y-81608073D01*
X158200000Y-81625220D01*
X158391231Y-81606385D01*
X158575114Y-81550605D01*
X158575122Y-81550601D01*
X158731464Y-81467034D01*
X158744581Y-81460023D01*
X158893120Y-81338120D01*
X158934646Y-81287519D01*
X158992392Y-81248185D01*
X159062236Y-81246314D01*
X159122005Y-81282501D01*
X159152721Y-81345256D01*
X159154500Y-81366184D01*
X159154500Y-81872147D01*
X159154500Y-81957853D01*
X159159266Y-81975640D01*
X159176682Y-82040640D01*
X159182456Y-82050640D01*
X159219535Y-82114862D01*
X159219537Y-82114864D01*
X159800498Y-82695825D01*
X159833983Y-82757148D01*
X159831478Y-82819501D01*
X159778614Y-82993770D01*
X159759780Y-83185000D01*
X159778614Y-83376229D01*
X159834396Y-83560118D01*
X159924973Y-83729575D01*
X159924977Y-83729582D01*
X160046879Y-83878120D01*
X160195417Y-84000022D01*
X160195424Y-84000026D01*
X160364881Y-84090603D01*
X160364883Y-84090603D01*
X160364886Y-84090605D01*
X160548769Y-84146385D01*
X160548768Y-84146385D01*
X160565562Y-84148039D01*
X160740000Y-84165220D01*
X160931231Y-84146385D01*
X161115114Y-84090605D01*
X161125859Y-84084862D01*
X161182900Y-84054372D01*
X161284581Y-84000023D01*
X161433120Y-83878120D01*
X161555023Y-83729581D01*
X161645605Y-83560114D01*
X161701385Y-83376231D01*
X161720220Y-83185000D01*
X161701385Y-82993769D01*
X161645605Y-82809886D01*
X161645603Y-82809883D01*
X161645603Y-82809881D01*
X161555026Y-82640424D01*
X161555022Y-82640417D01*
X161433120Y-82491879D01*
X161284582Y-82369977D01*
X161284575Y-82369973D01*
X161115118Y-82279396D01*
X160995699Y-82243171D01*
X160931231Y-82223615D01*
X160931229Y-82223614D01*
X160931231Y-82223614D01*
X160740000Y-82204780D01*
X160548770Y-82223614D01*
X160389846Y-82271823D01*
X160319979Y-82272446D01*
X160266170Y-82240843D01*
X159841819Y-81816492D01*
X159808334Y-81755169D01*
X159805500Y-81728811D01*
X159805500Y-81390554D01*
X159825185Y-81323515D01*
X159877989Y-81277760D01*
X159947147Y-81267816D01*
X160010703Y-81296841D01*
X160025351Y-81311886D01*
X160046879Y-81338119D01*
X160046881Y-81338121D01*
X160195417Y-81460022D01*
X160195424Y-81460026D01*
X160364881Y-81550603D01*
X160364883Y-81550603D01*
X160364886Y-81550605D01*
X160548769Y-81606385D01*
X160548768Y-81606385D01*
X160565914Y-81608073D01*
X160740000Y-81625220D01*
X160931231Y-81606385D01*
X161115114Y-81550605D01*
X161115122Y-81550601D01*
X161271464Y-81467034D01*
X161284581Y-81460023D01*
X161433120Y-81338120D01*
X161474646Y-81287519D01*
X161532392Y-81248185D01*
X161602236Y-81246314D01*
X161662005Y-81282501D01*
X161692721Y-81345256D01*
X161694500Y-81366184D01*
X161694500Y-81871747D01*
X161694500Y-81957453D01*
X161705591Y-81998846D01*
X161716682Y-82040240D01*
X161734234Y-82070640D01*
X161759535Y-82114462D01*
X161759537Y-82114464D01*
X161940372Y-82295299D01*
X161940383Y-82295319D01*
X161940388Y-82295315D01*
X162340574Y-82695643D01*
X162374048Y-82756972D01*
X162371538Y-82819304D01*
X162318614Y-82993770D01*
X162299780Y-83185000D01*
X162318614Y-83376229D01*
X162374396Y-83560118D01*
X162464973Y-83729575D01*
X162464977Y-83729582D01*
X162586879Y-83878120D01*
X162735417Y-84000022D01*
X162735424Y-84000026D01*
X162904881Y-84090603D01*
X162904883Y-84090603D01*
X162904886Y-84090605D01*
X163088769Y-84146385D01*
X163088768Y-84146385D01*
X163105562Y-84148039D01*
X163280000Y-84165220D01*
X163471231Y-84146385D01*
X163655114Y-84090605D01*
X163665859Y-84084862D01*
X163722900Y-84054372D01*
X163824581Y-84000023D01*
X163973120Y-83878120D01*
X164095023Y-83729581D01*
X164185605Y-83560114D01*
X164241385Y-83376231D01*
X164260220Y-83185000D01*
X164241385Y-82993769D01*
X164185605Y-82809886D01*
X164185603Y-82809883D01*
X164185603Y-82809881D01*
X164095026Y-82640424D01*
X164095022Y-82640417D01*
X163973120Y-82491879D01*
X163824582Y-82369977D01*
X163824575Y-82369973D01*
X163655118Y-82279396D01*
X163535699Y-82243171D01*
X163471231Y-82223615D01*
X163471229Y-82223614D01*
X163471231Y-82223614D01*
X163280000Y-82204780D01*
X163088770Y-82223614D01*
X162930042Y-82271764D01*
X162860175Y-82272387D01*
X162806350Y-82240769D01*
X162436603Y-81870890D01*
X162436503Y-81870775D01*
X162398005Y-81832278D01*
X162397993Y-81832256D01*
X162397989Y-81832261D01*
X162381803Y-81816069D01*
X162348329Y-81754740D01*
X162345500Y-81728404D01*
X162345500Y-81390554D01*
X162365185Y-81323515D01*
X162417989Y-81277760D01*
X162487147Y-81267816D01*
X162550703Y-81296841D01*
X162565351Y-81311886D01*
X162586879Y-81338119D01*
X162586881Y-81338121D01*
X162735417Y-81460022D01*
X162735424Y-81460026D01*
X162904881Y-81550603D01*
X162904883Y-81550603D01*
X162904886Y-81550605D01*
X163088769Y-81606385D01*
X163088768Y-81606385D01*
X163105914Y-81608073D01*
X163280000Y-81625220D01*
X163471231Y-81606385D01*
X163655114Y-81550605D01*
X163655122Y-81550601D01*
X163811464Y-81467034D01*
X163824581Y-81460023D01*
X163973120Y-81338120D01*
X163995106Y-81311330D01*
X164093647Y-81191258D01*
X164151392Y-81151924D01*
X164221237Y-81150053D01*
X164281005Y-81186240D01*
X164311721Y-81248996D01*
X164313500Y-81269923D01*
X164313500Y-81961147D01*
X164313500Y-82046853D01*
X164319081Y-82067683D01*
X164335682Y-82129640D01*
X164344470Y-82144861D01*
X164378535Y-82203862D01*
X164378537Y-82203864D01*
X164878170Y-82703497D01*
X164911655Y-82764820D01*
X164909150Y-82827172D01*
X164858614Y-82993769D01*
X164839780Y-83185000D01*
X164858614Y-83376229D01*
X164914396Y-83560118D01*
X165004973Y-83729575D01*
X165004977Y-83729582D01*
X165126879Y-83878120D01*
X165275417Y-84000022D01*
X165275424Y-84000026D01*
X165444881Y-84090603D01*
X165444883Y-84090603D01*
X165444886Y-84090605D01*
X165628769Y-84146385D01*
X165628768Y-84146385D01*
X165645562Y-84148039D01*
X165820000Y-84165220D01*
X166011231Y-84146385D01*
X166195114Y-84090605D01*
X166205859Y-84084862D01*
X166262900Y-84054372D01*
X166364581Y-84000023D01*
X166513120Y-83878120D01*
X166635023Y-83729581D01*
X166725605Y-83560114D01*
X166781385Y-83376231D01*
X166800220Y-83185000D01*
X166781385Y-82993769D01*
X166725605Y-82809886D01*
X166725603Y-82809883D01*
X166725603Y-82809881D01*
X166635026Y-82640424D01*
X166635022Y-82640417D01*
X166513120Y-82491879D01*
X166364582Y-82369977D01*
X166364575Y-82369973D01*
X166195118Y-82279396D01*
X166075699Y-82243171D01*
X166011231Y-82223615D01*
X166011229Y-82223614D01*
X166011231Y-82223614D01*
X165820000Y-82204780D01*
X165628769Y-82223614D01*
X165462172Y-82274150D01*
X165392305Y-82274773D01*
X165338497Y-82243170D01*
X165000819Y-81905492D01*
X164967334Y-81844169D01*
X164964500Y-81817811D01*
X164964500Y-81467034D01*
X164984185Y-81399995D01*
X165036989Y-81354240D01*
X165106147Y-81344296D01*
X165167164Y-81371180D01*
X165181444Y-81382899D01*
X165275417Y-81460022D01*
X165275424Y-81460026D01*
X165444881Y-81550603D01*
X165444883Y-81550603D01*
X165444886Y-81550605D01*
X165628769Y-81606385D01*
X165628768Y-81606385D01*
X165645914Y-81608073D01*
X165820000Y-81625220D01*
X166011231Y-81606385D01*
X166195114Y-81550605D01*
X166195122Y-81550601D01*
X166351464Y-81467034D01*
X166364581Y-81460023D01*
X166513120Y-81338120D01*
X166574646Y-81263149D01*
X166632392Y-81223815D01*
X166702236Y-81221944D01*
X166762005Y-81258131D01*
X166792721Y-81320887D01*
X166794500Y-81341814D01*
X166794500Y-81987852D01*
X166816682Y-82070640D01*
X166838108Y-82107750D01*
X166859535Y-82144862D01*
X167147229Y-82432556D01*
X167418171Y-82703497D01*
X167451656Y-82764820D01*
X167449151Y-82827173D01*
X167398614Y-82993770D01*
X167379780Y-83185000D01*
X167398614Y-83376229D01*
X167454396Y-83560118D01*
X167544973Y-83729575D01*
X167544977Y-83729582D01*
X167666879Y-83878120D01*
X167815417Y-84000022D01*
X167815424Y-84000026D01*
X167984881Y-84090603D01*
X167984883Y-84090603D01*
X167984886Y-84090605D01*
X168168769Y-84146385D01*
X168168768Y-84146385D01*
X168185562Y-84148039D01*
X168360000Y-84165220D01*
X168551231Y-84146385D01*
X168735114Y-84090605D01*
X168745859Y-84084862D01*
X168802900Y-84054372D01*
X168904581Y-84000023D01*
X169053120Y-83878120D01*
X169175023Y-83729581D01*
X169265605Y-83560114D01*
X169321385Y-83376231D01*
X169340220Y-83185000D01*
X169321385Y-82993769D01*
X169265605Y-82809886D01*
X169265603Y-82809883D01*
X169265603Y-82809881D01*
X169175026Y-82640424D01*
X169175022Y-82640417D01*
X169053120Y-82491879D01*
X168904582Y-82369977D01*
X168904575Y-82369973D01*
X168735118Y-82279396D01*
X168615699Y-82243171D01*
X168551231Y-82223615D01*
X168551229Y-82223614D01*
X168551231Y-82223614D01*
X168360000Y-82204780D01*
X168168770Y-82223614D01*
X168002173Y-82274151D01*
X167932306Y-82274774D01*
X167878497Y-82243171D01*
X167685966Y-82050640D01*
X167481819Y-81846492D01*
X167448334Y-81785169D01*
X167445500Y-81758811D01*
X167445500Y-81414925D01*
X167465185Y-81347886D01*
X167517989Y-81302131D01*
X167587147Y-81292187D01*
X167650703Y-81321212D01*
X167665354Y-81336261D01*
X167666880Y-81338120D01*
X167815417Y-81460022D01*
X167815424Y-81460026D01*
X167984881Y-81550603D01*
X167984883Y-81550603D01*
X167984886Y-81550605D01*
X168168769Y-81606385D01*
X168168768Y-81606385D01*
X168185914Y-81608073D01*
X168360000Y-81625220D01*
X168551231Y-81606385D01*
X168735114Y-81550605D01*
X168735122Y-81550601D01*
X168891464Y-81467034D01*
X168904581Y-81460023D01*
X169053120Y-81338120D01*
X169094646Y-81287519D01*
X169152392Y-81248185D01*
X169222236Y-81246314D01*
X169282005Y-81282501D01*
X169312721Y-81345256D01*
X169314500Y-81366184D01*
X169314500Y-81872147D01*
X169314500Y-81957853D01*
X169319266Y-81975640D01*
X169336682Y-82040640D01*
X169342456Y-82050640D01*
X169379535Y-82114862D01*
X169379537Y-82114864D01*
X169960498Y-82695825D01*
X169993983Y-82757148D01*
X169991478Y-82819501D01*
X169938614Y-82993770D01*
X169919780Y-83185000D01*
X169938614Y-83376229D01*
X169994396Y-83560118D01*
X170084973Y-83729575D01*
X170084977Y-83729582D01*
X170206879Y-83878120D01*
X170355417Y-84000022D01*
X170355424Y-84000026D01*
X170524881Y-84090603D01*
X170524883Y-84090603D01*
X170524886Y-84090605D01*
X170708769Y-84146385D01*
X170708768Y-84146385D01*
X170725562Y-84148039D01*
X170900000Y-84165220D01*
X171091231Y-84146385D01*
X171275114Y-84090605D01*
X171285859Y-84084862D01*
X171342900Y-84054372D01*
X171444581Y-84000023D01*
X171593120Y-83878120D01*
X171715023Y-83729581D01*
X171805605Y-83560114D01*
X171861385Y-83376231D01*
X171880220Y-83185000D01*
X171861385Y-82993769D01*
X171805605Y-82809886D01*
X171805603Y-82809883D01*
X171805603Y-82809881D01*
X171715026Y-82640424D01*
X171715022Y-82640417D01*
X171593120Y-82491879D01*
X171444582Y-82369977D01*
X171444575Y-82369973D01*
X171275118Y-82279396D01*
X171155699Y-82243171D01*
X171091231Y-82223615D01*
X171091229Y-82223614D01*
X171091231Y-82223614D01*
X170900000Y-82204780D01*
X170708770Y-82223614D01*
X170549846Y-82271823D01*
X170479979Y-82272446D01*
X170426170Y-82240843D01*
X170001819Y-81816492D01*
X169968334Y-81755169D01*
X169965500Y-81728811D01*
X169965500Y-81390554D01*
X169985185Y-81323515D01*
X170037989Y-81277760D01*
X170107147Y-81267816D01*
X170170703Y-81296841D01*
X170185351Y-81311886D01*
X170206879Y-81338119D01*
X170206881Y-81338121D01*
X170355417Y-81460022D01*
X170355424Y-81460026D01*
X170524881Y-81550603D01*
X170524883Y-81550603D01*
X170524886Y-81550605D01*
X170708769Y-81606385D01*
X170708768Y-81606385D01*
X170725914Y-81608073D01*
X170900000Y-81625220D01*
X171091231Y-81606385D01*
X171275114Y-81550605D01*
X171275122Y-81550601D01*
X171431464Y-81467034D01*
X171444581Y-81460023D01*
X171593120Y-81338120D01*
X171624646Y-81299704D01*
X171682391Y-81260370D01*
X171752236Y-81258499D01*
X171812005Y-81294686D01*
X171842721Y-81357441D01*
X171844500Y-81378369D01*
X171844500Y-81872147D01*
X171844500Y-81957853D01*
X171849266Y-81975640D01*
X171866682Y-82040640D01*
X171872456Y-82050640D01*
X171909535Y-82114862D01*
X171909537Y-82114864D01*
X172498170Y-82703497D01*
X172531655Y-82764820D01*
X172529150Y-82827172D01*
X172478614Y-82993769D01*
X172459780Y-83185000D01*
X172478614Y-83376229D01*
X172534396Y-83560118D01*
X172624973Y-83729575D01*
X172624977Y-83729582D01*
X172746879Y-83878120D01*
X172895417Y-84000022D01*
X172895424Y-84000026D01*
X173064881Y-84090603D01*
X173064883Y-84090603D01*
X173064886Y-84090605D01*
X173248769Y-84146385D01*
X173248768Y-84146385D01*
X173265562Y-84148039D01*
X173440000Y-84165220D01*
X173631231Y-84146385D01*
X173815114Y-84090605D01*
X173825859Y-84084862D01*
X173882900Y-84054372D01*
X173984581Y-84000023D01*
X174133120Y-83878120D01*
X174255023Y-83729581D01*
X174345605Y-83560114D01*
X174401385Y-83376231D01*
X174420220Y-83185000D01*
X174401385Y-82993769D01*
X174345605Y-82809886D01*
X174345603Y-82809883D01*
X174345603Y-82809881D01*
X174255026Y-82640424D01*
X174255022Y-82640417D01*
X174133120Y-82491879D01*
X173984582Y-82369977D01*
X173984575Y-82369973D01*
X173815118Y-82279396D01*
X173695699Y-82243171D01*
X173631231Y-82223615D01*
X173631229Y-82223614D01*
X173631231Y-82223614D01*
X173440000Y-82204780D01*
X173248769Y-82223614D01*
X173082172Y-82274150D01*
X173012305Y-82274773D01*
X172958497Y-82243170D01*
X172531819Y-81816492D01*
X172498334Y-81755169D01*
X172495500Y-81728811D01*
X172495500Y-81378369D01*
X172515185Y-81311330D01*
X172567989Y-81265575D01*
X172637147Y-81255631D01*
X172700703Y-81284656D01*
X172715351Y-81299702D01*
X172732737Y-81320887D01*
X172746880Y-81338120D01*
X172895417Y-81460022D01*
X172895424Y-81460026D01*
X173064881Y-81550603D01*
X173064883Y-81550603D01*
X173064886Y-81550605D01*
X173248769Y-81606385D01*
X173248768Y-81606385D01*
X173265914Y-81608073D01*
X173440000Y-81625220D01*
X173631231Y-81606385D01*
X173815114Y-81550605D01*
X173815122Y-81550601D01*
X173971464Y-81467034D01*
X173984581Y-81460023D01*
X174133120Y-81338120D01*
X174174646Y-81287519D01*
X174232392Y-81248185D01*
X174302236Y-81246314D01*
X174362005Y-81282501D01*
X174392721Y-81345256D01*
X174394500Y-81366184D01*
X174394500Y-81882147D01*
X174394500Y-81967853D01*
X174396587Y-81975641D01*
X174416682Y-82050640D01*
X174438108Y-82087750D01*
X174459535Y-82124862D01*
X174459537Y-82124864D01*
X175038170Y-82703497D01*
X175071655Y-82764820D01*
X175069150Y-82827172D01*
X175018614Y-82993769D01*
X174999780Y-83185000D01*
X175018614Y-83376229D01*
X175074396Y-83560118D01*
X175164973Y-83729575D01*
X175164977Y-83729582D01*
X175286879Y-83878120D01*
X175435417Y-84000022D01*
X175435424Y-84000026D01*
X175604881Y-84090603D01*
X175604883Y-84090603D01*
X175604886Y-84090605D01*
X175788769Y-84146385D01*
X175788768Y-84146385D01*
X175805562Y-84148039D01*
X175980000Y-84165220D01*
X176171231Y-84146385D01*
X176355114Y-84090605D01*
X176365859Y-84084862D01*
X176422900Y-84054372D01*
X176524581Y-84000023D01*
X176673120Y-83878120D01*
X176795023Y-83729581D01*
X176885605Y-83560114D01*
X176941385Y-83376231D01*
X176960220Y-83185000D01*
X176941385Y-82993769D01*
X176885605Y-82809886D01*
X176885603Y-82809883D01*
X176885603Y-82809881D01*
X176795026Y-82640424D01*
X176795022Y-82640417D01*
X176673120Y-82491879D01*
X176524582Y-82369977D01*
X176524575Y-82369973D01*
X176355118Y-82279396D01*
X176235699Y-82243171D01*
X176171231Y-82223615D01*
X176171229Y-82223614D01*
X176171231Y-82223614D01*
X175980000Y-82204780D01*
X175788769Y-82223614D01*
X175622172Y-82274150D01*
X175552305Y-82274773D01*
X175498497Y-82243170D01*
X175081819Y-81826492D01*
X175048334Y-81765169D01*
X175045500Y-81738811D01*
X175045500Y-81390554D01*
X175065185Y-81323515D01*
X175117989Y-81277760D01*
X175187147Y-81267816D01*
X175250703Y-81296841D01*
X175265351Y-81311886D01*
X175286879Y-81338119D01*
X175286881Y-81338121D01*
X175435417Y-81460022D01*
X175435424Y-81460026D01*
X175604881Y-81550603D01*
X175604883Y-81550603D01*
X175604886Y-81550605D01*
X175788769Y-81606385D01*
X175788768Y-81606385D01*
X175805914Y-81608073D01*
X175980000Y-81625220D01*
X176171231Y-81606385D01*
X176355114Y-81550605D01*
X176355122Y-81550601D01*
X176511464Y-81467034D01*
X176524581Y-81460023D01*
X176673120Y-81338120D01*
X176795023Y-81189581D01*
X176833722Y-81117181D01*
X176861142Y-81065882D01*
X176910104Y-81016038D01*
X176978242Y-81000577D01*
X177043921Y-81024408D01*
X177086290Y-81079966D01*
X177094500Y-81124335D01*
X177094500Y-82042147D01*
X177094500Y-82127853D01*
X177099058Y-82144864D01*
X177116682Y-82210640D01*
X177138108Y-82247750D01*
X177159535Y-82284862D01*
X177159537Y-82284864D01*
X177578170Y-82703497D01*
X177611655Y-82764820D01*
X177609150Y-82827172D01*
X177558614Y-82993769D01*
X177539780Y-83185000D01*
X177558614Y-83376229D01*
X177614396Y-83560118D01*
X177704973Y-83729575D01*
X177704977Y-83729582D01*
X177826879Y-83878120D01*
X177975417Y-84000022D01*
X177975424Y-84000026D01*
X178144881Y-84090603D01*
X178144883Y-84090603D01*
X178144886Y-84090605D01*
X178328769Y-84146385D01*
X178328768Y-84146385D01*
X178345562Y-84148039D01*
X178520000Y-84165220D01*
X178711231Y-84146385D01*
X178895114Y-84090605D01*
X178905859Y-84084862D01*
X178962900Y-84054372D01*
X179064581Y-84000023D01*
X179213120Y-83878120D01*
X179335023Y-83729581D01*
X179425605Y-83560114D01*
X179481385Y-83376231D01*
X179500220Y-83185000D01*
X179481385Y-82993769D01*
X179425605Y-82809886D01*
X179425603Y-82809883D01*
X179425603Y-82809881D01*
X179335026Y-82640424D01*
X179335022Y-82640417D01*
X179213120Y-82491879D01*
X179064582Y-82369977D01*
X179064575Y-82369973D01*
X178895118Y-82279396D01*
X178775699Y-82243171D01*
X178711231Y-82223615D01*
X178711229Y-82223614D01*
X178711231Y-82223614D01*
X178520000Y-82204780D01*
X178328769Y-82223614D01*
X178162172Y-82274150D01*
X178092305Y-82274773D01*
X178038497Y-82243170D01*
X177781819Y-81986492D01*
X177748334Y-81925169D01*
X177745500Y-81898811D01*
X177745500Y-81533509D01*
X177765185Y-81466470D01*
X177817989Y-81420715D01*
X177887147Y-81410771D01*
X177948166Y-81437657D01*
X177975416Y-81460021D01*
X177975424Y-81460026D01*
X178144881Y-81550603D01*
X178144883Y-81550603D01*
X178144886Y-81550605D01*
X178328769Y-81606385D01*
X178328768Y-81606385D01*
X178345914Y-81608073D01*
X178520000Y-81625220D01*
X178711231Y-81606385D01*
X178895114Y-81550605D01*
X178895122Y-81550601D01*
X179051464Y-81467034D01*
X179064581Y-81460023D01*
X179213120Y-81338120D01*
X179335023Y-81189581D01*
X179396461Y-81074638D01*
X179425603Y-81020118D01*
X179425603Y-81020117D01*
X179425605Y-81020114D01*
X179481385Y-80836231D01*
X179500220Y-80645001D01*
X179780130Y-80645001D01*
X179799573Y-80867241D01*
X179799574Y-80867248D01*
X179857314Y-81082736D01*
X179857318Y-81082747D01*
X179951600Y-81284935D01*
X179951601Y-81284937D01*
X179998923Y-81352521D01*
X179998924Y-81352522D01*
X180577037Y-80774409D01*
X180594075Y-80837993D01*
X180659901Y-80952007D01*
X180752993Y-81045099D01*
X180867007Y-81110925D01*
X180930590Y-81127962D01*
X180352476Y-81706074D01*
X180352477Y-81706075D01*
X180367661Y-81716707D01*
X180411286Y-81771284D01*
X180418480Y-81840782D01*
X180386957Y-81903137D01*
X180335543Y-81935988D01*
X180215878Y-81975641D01*
X180215869Y-81975645D01*
X180066659Y-82067680D01*
X180066655Y-82067683D01*
X179942683Y-82191655D01*
X179942680Y-82191659D01*
X179850645Y-82340869D01*
X179850640Y-82340880D01*
X179795494Y-82507302D01*
X179785000Y-82610013D01*
X179785000Y-82935000D01*
X180626988Y-82935000D01*
X180594075Y-82992007D01*
X180560000Y-83119174D01*
X180560000Y-83250826D01*
X180594075Y-83377993D01*
X180626988Y-83435000D01*
X179785001Y-83435000D01*
X179785001Y-83759986D01*
X179795494Y-83862696D01*
X179795494Y-83862698D01*
X179850640Y-84029119D01*
X179850645Y-84029130D01*
X179942680Y-84178340D01*
X179942683Y-84178344D01*
X180066655Y-84302316D01*
X180066659Y-84302319D01*
X180215869Y-84394354D01*
X180215880Y-84394359D01*
X180382302Y-84449505D01*
X180485019Y-84459999D01*
X180809999Y-84459999D01*
X180810000Y-84459998D01*
X180810000Y-83618012D01*
X180867007Y-83650925D01*
X180994174Y-83685000D01*
X181125826Y-83685000D01*
X181252993Y-83650925D01*
X181310000Y-83618012D01*
X181310000Y-84459999D01*
X181634972Y-84459999D01*
X181634986Y-84459998D01*
X181737696Y-84449505D01*
X181737698Y-84449505D01*
X181904119Y-84394359D01*
X181904130Y-84394354D01*
X182053340Y-84302319D01*
X182053344Y-84302316D01*
X182177316Y-84178344D01*
X182177319Y-84178340D01*
X182269354Y-84029130D01*
X182269359Y-84029119D01*
X182324505Y-83862697D01*
X182334999Y-83759986D01*
X182335000Y-83759973D01*
X182335000Y-83435000D01*
X181493012Y-83435000D01*
X181525925Y-83377993D01*
X181560000Y-83250826D01*
X181560000Y-83119174D01*
X181525925Y-82992007D01*
X181493012Y-82935000D01*
X182334999Y-82935000D01*
X182334999Y-82610028D01*
X182334998Y-82610013D01*
X182324505Y-82507303D01*
X182324505Y-82507301D01*
X182269359Y-82340880D01*
X182269354Y-82340869D01*
X182177319Y-82191659D01*
X182177316Y-82191655D01*
X182053344Y-82067683D01*
X182053340Y-82067680D01*
X181904130Y-81975645D01*
X181904119Y-81975640D01*
X181784456Y-81935988D01*
X181727011Y-81896215D01*
X181700188Y-81831700D01*
X181712503Y-81762924D01*
X181752337Y-81716707D01*
X181767522Y-81706074D01*
X181189409Y-81127962D01*
X181252993Y-81110925D01*
X181367007Y-81045099D01*
X181460099Y-80952007D01*
X181525925Y-80837993D01*
X181542962Y-80774409D01*
X182121074Y-81352522D01*
X182168400Y-81284933D01*
X182168401Y-81284931D01*
X182262681Y-81082747D01*
X182262685Y-81082736D01*
X182320425Y-80867248D01*
X182320426Y-80867241D01*
X182339870Y-80645001D01*
X182339870Y-80644998D01*
X182320426Y-80422758D01*
X182320425Y-80422751D01*
X182262685Y-80207263D01*
X182262681Y-80207252D01*
X182168399Y-80005064D01*
X182168398Y-80005062D01*
X182121075Y-79937477D01*
X182121074Y-79937476D01*
X181542962Y-80515589D01*
X181525925Y-80452007D01*
X181460099Y-80337993D01*
X181367007Y-80244901D01*
X181252993Y-80179075D01*
X181189410Y-80162037D01*
X181767522Y-79583924D01*
X181767521Y-79583923D01*
X181699937Y-79536601D01*
X181699935Y-79536600D01*
X181497747Y-79442318D01*
X181497736Y-79442314D01*
X181282248Y-79384574D01*
X181282241Y-79384573D01*
X181060002Y-79365130D01*
X181059998Y-79365130D01*
X180837758Y-79384573D01*
X180837751Y-79384574D01*
X180622263Y-79442314D01*
X180622252Y-79442318D01*
X180420066Y-79536598D01*
X180352477Y-79583924D01*
X180930590Y-80162037D01*
X180867007Y-80179075D01*
X180752993Y-80244901D01*
X180659901Y-80337993D01*
X180594075Y-80452007D01*
X180577037Y-80515590D01*
X179998924Y-79937477D01*
X179951598Y-80005066D01*
X179857318Y-80207252D01*
X179857314Y-80207263D01*
X179799574Y-80422751D01*
X179799573Y-80422758D01*
X179780130Y-80644998D01*
X179780130Y-80645001D01*
X179500220Y-80645001D01*
X179500220Y-80645000D01*
X179481385Y-80453769D01*
X179425605Y-80269886D01*
X179425603Y-80269883D01*
X179425603Y-80269881D01*
X179335026Y-80100424D01*
X179335022Y-80100417D01*
X179213120Y-79951879D01*
X179064582Y-79829977D01*
X179064579Y-79829975D01*
X178921046Y-79753255D01*
X178871202Y-79704293D01*
X178855500Y-79643897D01*
X178855500Y-70769578D01*
X178875185Y-70702539D01*
X178927989Y-70656784D01*
X178997147Y-70646840D01*
X179053812Y-70670312D01*
X179077910Y-70688352D01*
X179077913Y-70688354D01*
X179212620Y-70738596D01*
X179212627Y-70738598D01*
X179272155Y-70744999D01*
X179272172Y-70745000D01*
X179672813Y-70745000D01*
X179739852Y-70764685D01*
X179785607Y-70817489D01*
X179795551Y-70886647D01*
X179766526Y-70950203D01*
X179731267Y-70978357D01*
X179583550Y-71057315D01*
X179583548Y-71057316D01*
X179583547Y-71057317D01*
X179423589Y-71188589D01*
X179292317Y-71348547D01*
X179292315Y-71348550D01*
X179274350Y-71382160D01*
X179194769Y-71531043D01*
X179134699Y-71729067D01*
X179114417Y-71935000D01*
X179134699Y-72140932D01*
X179146121Y-72178586D01*
X179194768Y-72338954D01*
X179292315Y-72521450D01*
X179292809Y-72522052D01*
X179423589Y-72681410D01*
X179485428Y-72732159D01*
X179583550Y-72812685D01*
X179766046Y-72910232D01*
X179766051Y-72910233D01*
X179767951Y-72911021D01*
X179768796Y-72911701D01*
X179771419Y-72913104D01*
X179771153Y-72913601D01*
X179822355Y-72954862D01*
X179844421Y-73021156D01*
X179844500Y-73025583D01*
X179844500Y-73812988D01*
X179824815Y-73880027D01*
X179795986Y-73911364D01*
X179671719Y-74006716D01*
X179575463Y-74132160D01*
X179514956Y-74278237D01*
X179514955Y-74278239D01*
X179494318Y-74434998D01*
X179494318Y-74435001D01*
X179514955Y-74591760D01*
X179514956Y-74591762D01*
X179564196Y-74710639D01*
X179575464Y-74737841D01*
X179671718Y-74863282D01*
X179797159Y-74959536D01*
X179943238Y-75020044D01*
X180012580Y-75029173D01*
X180099999Y-75040682D01*
X180100000Y-75040682D01*
X180100001Y-75040682D01*
X180157105Y-75033164D01*
X180256762Y-75020044D01*
X180402841Y-74959536D01*
X180528282Y-74863282D01*
X180624536Y-74737841D01*
X180685044Y-74591762D01*
X180702547Y-74458811D01*
X180705682Y-74435001D01*
X184564318Y-74435001D01*
X184584955Y-74591760D01*
X184584956Y-74591762D01*
X184634196Y-74710639D01*
X184645464Y-74737841D01*
X184741718Y-74863282D01*
X184867159Y-74959536D01*
X184867944Y-74959861D01*
X184868507Y-74960315D01*
X184874196Y-74963599D01*
X184873684Y-74964485D01*
X184922350Y-75003697D01*
X184944421Y-75069989D01*
X184944500Y-75074425D01*
X184944500Y-80542147D01*
X184944500Y-80627853D01*
X184949095Y-80645001D01*
X184966682Y-80710640D01*
X184988108Y-80747750D01*
X185009535Y-80784862D01*
X185009537Y-80784864D01*
X185237988Y-81013315D01*
X185271473Y-81074638D01*
X185273246Y-81117181D01*
X185264318Y-81184998D01*
X185264318Y-81185001D01*
X185284955Y-81341760D01*
X185284956Y-81341762D01*
X185333942Y-81460026D01*
X185345464Y-81487841D01*
X185441718Y-81613282D01*
X185567159Y-81709536D01*
X185713238Y-81770044D01*
X185790176Y-81780173D01*
X185869999Y-81790682D01*
X185870000Y-81790682D01*
X185870001Y-81790682D01*
X185949824Y-81780173D01*
X186026762Y-81770044D01*
X186172841Y-81709536D01*
X186298282Y-81613282D01*
X186394536Y-81487841D01*
X186455044Y-81341762D01*
X186475682Y-81185000D01*
X186471327Y-81151924D01*
X186455044Y-81028239D01*
X186455044Y-81028238D01*
X186394536Y-80882159D01*
X186298282Y-80756718D01*
X186172841Y-80660464D01*
X186135505Y-80644999D01*
X186026762Y-80599956D01*
X186026760Y-80599955D01*
X185870001Y-80579318D01*
X185869999Y-80579318D01*
X185802181Y-80588246D01*
X185733145Y-80577480D01*
X185698315Y-80552988D01*
X185631819Y-80486492D01*
X185598334Y-80425169D01*
X185595500Y-80398811D01*
X185595500Y-74908999D01*
X185615185Y-74841960D01*
X185621110Y-74833531D01*
X185694536Y-74737841D01*
X185755044Y-74591762D01*
X185772547Y-74458811D01*
X185775682Y-74435001D01*
X185775682Y-74434998D01*
X185755044Y-74278239D01*
X185755044Y-74278238D01*
X185694536Y-74132159D01*
X185598282Y-74006718D01*
X185472841Y-73910464D01*
X185442943Y-73898080D01*
X185326762Y-73849956D01*
X185326760Y-73849955D01*
X185170001Y-73829318D01*
X185169999Y-73829318D01*
X185013239Y-73849955D01*
X185013237Y-73849956D01*
X184867160Y-73910463D01*
X184741718Y-74006718D01*
X184645463Y-74132160D01*
X184584956Y-74278237D01*
X184584955Y-74278239D01*
X184564318Y-74434998D01*
X184564318Y-74435001D01*
X180705682Y-74435001D01*
X180705682Y-74434998D01*
X180685044Y-74278239D01*
X180685044Y-74278238D01*
X180624536Y-74132159D01*
X180528282Y-74006718D01*
X180528279Y-74006716D01*
X180523334Y-74000271D01*
X180525468Y-73998633D01*
X180498328Y-73948904D01*
X180495500Y-73922573D01*
X180495500Y-73025583D01*
X180515185Y-72958544D01*
X180567989Y-72912789D01*
X180572049Y-72911021D01*
X180573945Y-72910234D01*
X180573954Y-72910232D01*
X180756450Y-72812685D01*
X180916410Y-72681410D01*
X181047685Y-72521450D01*
X181145232Y-72338954D01*
X181205300Y-72140934D01*
X181225583Y-71935000D01*
X181205300Y-71729066D01*
X181145232Y-71531046D01*
X181047685Y-71348550D01*
X180972321Y-71256718D01*
X180916410Y-71188589D01*
X180756452Y-71057317D01*
X180756453Y-71057317D01*
X180756450Y-71057315D01*
X180608732Y-70978357D01*
X180558889Y-70929395D01*
X180543429Y-70861257D01*
X180567261Y-70795578D01*
X180622819Y-70753209D01*
X180667187Y-70745000D01*
X181067828Y-70745000D01*
X181067844Y-70744999D01*
X181127372Y-70738598D01*
X181127379Y-70738596D01*
X181262086Y-70688354D01*
X181262093Y-70688350D01*
X181377187Y-70602190D01*
X181377190Y-70602187D01*
X181463350Y-70487093D01*
X181463354Y-70487086D01*
X181513596Y-70352379D01*
X181513598Y-70352372D01*
X181519999Y-70292844D01*
X183470000Y-70292844D01*
X183476401Y-70352372D01*
X183476403Y-70352379D01*
X183526645Y-70487086D01*
X183526649Y-70487093D01*
X183612809Y-70602187D01*
X183612812Y-70602190D01*
X183727906Y-70688350D01*
X183727913Y-70688354D01*
X183862620Y-70738596D01*
X183862627Y-70738598D01*
X183922155Y-70744999D01*
X183922172Y-70745000D01*
X184322813Y-70745000D01*
X184389852Y-70764685D01*
X184435607Y-70817489D01*
X184445551Y-70886647D01*
X184416526Y-70950203D01*
X184381267Y-70978357D01*
X184233550Y-71057315D01*
X184233548Y-71057316D01*
X184233547Y-71057317D01*
X184073589Y-71188589D01*
X183942317Y-71348547D01*
X183942315Y-71348550D01*
X183924350Y-71382160D01*
X183844769Y-71531043D01*
X183784699Y-71729067D01*
X183764417Y-71935000D01*
X183784699Y-72140932D01*
X183796121Y-72178586D01*
X183844768Y-72338954D01*
X183942315Y-72521450D01*
X183942809Y-72522052D01*
X184073589Y-72681410D01*
X184135428Y-72732159D01*
X184233550Y-72812685D01*
X184416046Y-72910232D01*
X184614066Y-72970300D01*
X184614065Y-72970300D01*
X184632529Y-72972118D01*
X184820000Y-72990583D01*
X185025934Y-72970300D01*
X185223954Y-72910232D01*
X185223969Y-72910223D01*
X185225843Y-72909448D01*
X185226918Y-72909332D01*
X185229784Y-72908463D01*
X185229948Y-72909005D01*
X185295311Y-72901969D01*
X185357795Y-72933234D01*
X185360994Y-72936321D01*
X186209534Y-73784861D01*
X186209535Y-73784862D01*
X186270138Y-73845465D01*
X186270140Y-73845466D01*
X186270144Y-73845469D01*
X186330001Y-73880027D01*
X186344362Y-73888318D01*
X186427147Y-73910500D01*
X186427149Y-73910500D01*
X187862851Y-73910500D01*
X187862853Y-73910500D01*
X187945639Y-73888318D01*
X188019862Y-73845465D01*
X188480465Y-73384862D01*
X188498074Y-73354362D01*
X188523318Y-73310638D01*
X188545500Y-73227853D01*
X188545500Y-72238298D01*
X188565185Y-72171259D01*
X188594010Y-72139925D01*
X188648282Y-72098282D01*
X188744536Y-71972841D01*
X188805044Y-71826762D01*
X188823707Y-71685000D01*
X188825682Y-71670001D01*
X188825682Y-71669998D01*
X188805044Y-71513239D01*
X188805044Y-71513238D01*
X188744536Y-71367159D01*
X188648282Y-71241718D01*
X188522841Y-71145464D01*
X188376762Y-71084956D01*
X188376760Y-71084955D01*
X188220001Y-71064318D01*
X188219999Y-71064318D01*
X188063239Y-71084955D01*
X188063237Y-71084956D01*
X187917160Y-71145463D01*
X187791718Y-71241718D01*
X187695463Y-71367160D01*
X187634956Y-71513237D01*
X187634955Y-71513239D01*
X187614318Y-71669998D01*
X187614318Y-71670001D01*
X187634955Y-71826760D01*
X187634956Y-71826762D01*
X187695464Y-71972841D01*
X187791718Y-72098282D01*
X187845987Y-72139924D01*
X187887189Y-72196349D01*
X187894500Y-72238298D01*
X187894500Y-72998811D01*
X187874815Y-73065850D01*
X187858181Y-73086492D01*
X187721492Y-73223181D01*
X187660169Y-73256666D01*
X187633811Y-73259500D01*
X186656189Y-73259500D01*
X186589150Y-73239815D01*
X186568508Y-73223181D01*
X185821321Y-72475994D01*
X185787836Y-72414671D01*
X185792820Y-72344979D01*
X185794448Y-72340843D01*
X185795223Y-72338969D01*
X185795232Y-72338954D01*
X185855300Y-72140934D01*
X185875583Y-71935000D01*
X185855300Y-71729066D01*
X185795232Y-71531046D01*
X185697685Y-71348550D01*
X185622321Y-71256718D01*
X185566410Y-71188589D01*
X185406452Y-71057317D01*
X185406453Y-71057317D01*
X185406450Y-71057315D01*
X185258732Y-70978357D01*
X185208889Y-70929395D01*
X185193429Y-70861257D01*
X185217261Y-70795578D01*
X185272819Y-70753209D01*
X185317187Y-70745000D01*
X185717828Y-70745000D01*
X185717844Y-70744999D01*
X185777372Y-70738598D01*
X185777379Y-70738596D01*
X185912086Y-70688354D01*
X185912093Y-70688350D01*
X186027187Y-70602190D01*
X186027190Y-70602187D01*
X186113350Y-70487093D01*
X186113354Y-70487086D01*
X186163596Y-70352379D01*
X186163598Y-70352372D01*
X186169999Y-70292844D01*
X186170000Y-70292827D01*
X186170000Y-69645000D01*
X185253012Y-69645000D01*
X185285925Y-69587993D01*
X185320000Y-69460826D01*
X185320000Y-69329174D01*
X185306639Y-69279311D01*
X187319500Y-69279311D01*
X187325697Y-69302436D01*
X187325697Y-69302439D01*
X187325698Y-69302439D01*
X187350201Y-69393887D01*
X187409511Y-69496614D01*
X187409513Y-69496616D01*
X187479084Y-69566187D01*
X187512569Y-69627510D01*
X187514204Y-69662500D01*
X187514355Y-69662500D01*
X187514355Y-69665731D01*
X187514499Y-69668813D01*
X187514355Y-69669999D01*
X187534859Y-69838869D01*
X187534860Y-69838874D01*
X187595182Y-69997931D01*
X187657475Y-70088177D01*
X187691817Y-70137929D01*
X187741743Y-70182159D01*
X187819150Y-70250736D01*
X187966816Y-70328237D01*
X187969775Y-70329790D01*
X188134944Y-70370500D01*
X188305056Y-70370500D01*
X188470225Y-70329790D01*
X188549692Y-70288081D01*
X188620849Y-70250736D01*
X188620850Y-70250734D01*
X188620852Y-70250734D01*
X188748183Y-70137929D01*
X188844818Y-69997930D01*
X188905140Y-69838872D01*
X188925645Y-69670000D01*
X188905140Y-69501128D01*
X188844818Y-69342070D01*
X188835916Y-69329174D01*
X188795038Y-69269952D01*
X188748183Y-69202071D01*
X188626136Y-69093947D01*
X188620849Y-69089263D01*
X188470226Y-69010210D01*
X188314825Y-68971907D01*
X188254444Y-68936751D01*
X188222656Y-68874531D01*
X188220500Y-68851510D01*
X188220500Y-65359500D01*
X188240185Y-65292461D01*
X188292989Y-65246706D01*
X188344500Y-65235500D01*
X188355056Y-65235500D01*
X188520225Y-65194790D01*
X188628735Y-65137839D01*
X188670849Y-65115736D01*
X188670850Y-65115734D01*
X188670852Y-65115734D01*
X188798183Y-65002929D01*
X188894818Y-64862930D01*
X188955140Y-64703872D01*
X188975645Y-64535000D01*
X188955140Y-64366128D01*
X188954562Y-64364605D01*
X188903255Y-64229318D01*
X188894818Y-64207070D01*
X188798183Y-64067071D01*
X188670852Y-63954266D01*
X188670849Y-63954263D01*
X188520226Y-63875210D01*
X188355056Y-63834500D01*
X188184944Y-63834500D01*
X188019773Y-63875210D01*
X187869150Y-63954263D01*
X187741816Y-64067072D01*
X187645182Y-64207068D01*
X187584860Y-64366125D01*
X187584859Y-64366130D01*
X187564355Y-64535000D01*
X187564355Y-64535009D01*
X187564499Y-64536196D01*
X187564355Y-64537061D01*
X187564355Y-64542500D01*
X187563450Y-64542500D01*
X187553032Y-64605118D01*
X187529084Y-64638810D01*
X187409514Y-64758382D01*
X187409509Y-64758389D01*
X187350201Y-64861112D01*
X187350200Y-64861117D01*
X187319500Y-64975691D01*
X187319500Y-69279311D01*
X185306639Y-69279311D01*
X185285925Y-69202007D01*
X185253012Y-69145000D01*
X186170000Y-69145000D01*
X186170000Y-68497172D01*
X186169999Y-68497155D01*
X186163598Y-68437627D01*
X186163596Y-68437620D01*
X186113354Y-68302913D01*
X186113350Y-68302906D01*
X186027190Y-68187812D01*
X186027187Y-68187809D01*
X185912093Y-68101649D01*
X185912086Y-68101645D01*
X185777379Y-68051403D01*
X185777372Y-68051401D01*
X185717844Y-68045000D01*
X185070000Y-68045000D01*
X185070000Y-68961988D01*
X185012993Y-68929075D01*
X184885826Y-68895000D01*
X184754174Y-68895000D01*
X184627007Y-68929075D01*
X184570000Y-68961988D01*
X184570000Y-68045000D01*
X183922155Y-68045000D01*
X183862627Y-68051401D01*
X183862620Y-68051403D01*
X183727913Y-68101645D01*
X183727906Y-68101649D01*
X183612812Y-68187809D01*
X183612809Y-68187812D01*
X183526649Y-68302906D01*
X183526645Y-68302913D01*
X183476403Y-68437620D01*
X183476401Y-68437627D01*
X183470000Y-68497155D01*
X183470000Y-69145000D01*
X184386988Y-69145000D01*
X184354075Y-69202007D01*
X184320000Y-69329174D01*
X184320000Y-69460826D01*
X184354075Y-69587993D01*
X184386988Y-69645000D01*
X183470000Y-69645000D01*
X183470000Y-70292844D01*
X181519999Y-70292844D01*
X181520000Y-70292827D01*
X181520000Y-69645000D01*
X180603012Y-69645000D01*
X180635925Y-69587993D01*
X180670000Y-69460826D01*
X180670000Y-69329174D01*
X180635925Y-69202007D01*
X180603012Y-69145000D01*
X181520000Y-69145000D01*
X181520000Y-68497172D01*
X181519999Y-68497155D01*
X181513598Y-68437627D01*
X181513596Y-68437620D01*
X181463354Y-68302913D01*
X181463350Y-68302906D01*
X181377190Y-68187812D01*
X181377187Y-68187809D01*
X181262093Y-68101649D01*
X181262086Y-68101645D01*
X181127379Y-68051403D01*
X181127372Y-68051401D01*
X181067844Y-68045000D01*
X180420000Y-68045000D01*
X180420000Y-68961988D01*
X180362993Y-68929075D01*
X180235826Y-68895000D01*
X180104174Y-68895000D01*
X179977007Y-68929075D01*
X179920000Y-68961988D01*
X179920000Y-68045000D01*
X179272155Y-68045000D01*
X179212627Y-68051401D01*
X179212620Y-68051403D01*
X179077913Y-68101645D01*
X179077907Y-68101649D01*
X179053810Y-68119688D01*
X178988346Y-68144105D01*
X178920073Y-68129253D01*
X178870668Y-68079848D01*
X178855500Y-68020421D01*
X178855500Y-61331447D01*
X178875185Y-61264408D01*
X178921047Y-61222089D01*
X179074575Y-61140026D01*
X179074579Y-61140024D01*
X179074581Y-61140023D01*
X179223120Y-61018120D01*
X179345023Y-60869581D01*
X179423374Y-60722997D01*
X179435603Y-60700118D01*
X179435603Y-60700117D01*
X179435605Y-60700114D01*
X179491385Y-60516231D01*
X179510220Y-60325001D01*
X179790130Y-60325001D01*
X179809573Y-60547241D01*
X179809574Y-60547248D01*
X179867314Y-60762736D01*
X179867318Y-60762747D01*
X179961600Y-60964935D01*
X179961601Y-60964937D01*
X180008923Y-61032521D01*
X180008924Y-61032522D01*
X180587037Y-60454409D01*
X180604075Y-60517993D01*
X180669901Y-60632007D01*
X180762993Y-60725099D01*
X180877007Y-60790925D01*
X180940590Y-60807962D01*
X180362476Y-61386074D01*
X180362477Y-61386075D01*
X180430062Y-61433398D01*
X180430064Y-61433399D01*
X180632252Y-61527681D01*
X180632263Y-61527685D01*
X180847751Y-61585425D01*
X180847758Y-61585426D01*
X181069998Y-61604870D01*
X181070002Y-61604870D01*
X181292241Y-61585426D01*
X181292248Y-61585425D01*
X181507736Y-61527685D01*
X181507747Y-61527681D01*
X181709931Y-61433401D01*
X181709933Y-61433400D01*
X181777522Y-61386074D01*
X181199409Y-60807962D01*
X181262993Y-60790925D01*
X181377007Y-60725099D01*
X181470099Y-60632007D01*
X181535925Y-60517993D01*
X181552962Y-60454410D01*
X182131074Y-61032522D01*
X182178400Y-60964933D01*
X182178401Y-60964931D01*
X182272681Y-60762747D01*
X182272685Y-60762736D01*
X182330425Y-60547248D01*
X182330426Y-60547241D01*
X182349870Y-60325001D01*
X182349870Y-60324998D01*
X182330426Y-60102758D01*
X182330425Y-60102751D01*
X182272685Y-59887263D01*
X182272681Y-59887252D01*
X182178399Y-59685064D01*
X182178398Y-59685062D01*
X182131075Y-59617477D01*
X182131074Y-59617476D01*
X181552962Y-60195589D01*
X181535925Y-60132007D01*
X181470099Y-60017993D01*
X181377007Y-59924901D01*
X181262993Y-59859075D01*
X181199410Y-59842037D01*
X181777522Y-59263924D01*
X181777521Y-59263923D01*
X181762338Y-59253292D01*
X181718713Y-59198715D01*
X181711519Y-59129217D01*
X181743042Y-59066862D01*
X181794458Y-59034011D01*
X181914117Y-58994360D01*
X181914130Y-58994354D01*
X182063340Y-58902319D01*
X182063344Y-58902316D01*
X182187316Y-58778344D01*
X182187319Y-58778340D01*
X182279354Y-58629130D01*
X182279359Y-58629119D01*
X182334505Y-58462697D01*
X182344999Y-58359986D01*
X182345000Y-58359973D01*
X182345000Y-58211001D01*
X184240318Y-58211001D01*
X184260955Y-58367760D01*
X184260956Y-58367762D01*
X184321464Y-58513841D01*
X184417718Y-58639282D01*
X184543159Y-58735536D01*
X184689238Y-58796044D01*
X184717548Y-58799771D01*
X184845999Y-58816682D01*
X184846000Y-58816682D01*
X184846001Y-58816682D01*
X184881708Y-58811980D01*
X184913818Y-58807753D01*
X184982853Y-58818518D01*
X185017685Y-58843011D01*
X186793805Y-60619131D01*
X186827290Y-60680454D01*
X186829063Y-60722997D01*
X186814318Y-60834998D01*
X186814318Y-60835001D01*
X186834955Y-60991760D01*
X186834956Y-60991762D01*
X186862545Y-61058369D01*
X186895464Y-61137841D01*
X186991718Y-61263282D01*
X187117159Y-61359536D01*
X187263238Y-61420044D01*
X187341619Y-61430363D01*
X187419999Y-61440682D01*
X187420000Y-61440682D01*
X187420001Y-61440682D01*
X187475328Y-61433398D01*
X187576762Y-61420044D01*
X187722841Y-61359536D01*
X187848282Y-61263282D01*
X187944536Y-61137841D01*
X188005044Y-60991762D01*
X188025682Y-60835000D01*
X188024365Y-60825000D01*
X188009850Y-60714747D01*
X188005044Y-60678238D01*
X187944536Y-60532159D01*
X187848282Y-60406718D01*
X187722841Y-60310464D01*
X187576762Y-60249956D01*
X187576760Y-60249955D01*
X187420001Y-60229318D01*
X187420000Y-60229318D01*
X187408676Y-60230808D01*
X187396360Y-60232430D01*
X187327325Y-60221662D01*
X187292497Y-60197171D01*
X185478011Y-58382685D01*
X185444526Y-58321362D01*
X185442753Y-58278818D01*
X185451682Y-58211000D01*
X185451682Y-58210998D01*
X185431044Y-58054239D01*
X185431044Y-58054238D01*
X185370536Y-57908159D01*
X185274282Y-57782718D01*
X185148841Y-57686464D01*
X185002762Y-57625956D01*
X185002760Y-57625955D01*
X184846001Y-57605318D01*
X184845999Y-57605318D01*
X184689239Y-57625955D01*
X184689237Y-57625956D01*
X184543160Y-57686463D01*
X184417718Y-57782718D01*
X184321463Y-57908160D01*
X184260956Y-58054237D01*
X184260955Y-58054239D01*
X184240318Y-58210998D01*
X184240318Y-58211001D01*
X182345000Y-58211001D01*
X182345000Y-58035000D01*
X181503012Y-58035000D01*
X181535925Y-57977993D01*
X181570000Y-57850826D01*
X181570000Y-57719174D01*
X181535925Y-57592007D01*
X181503012Y-57535000D01*
X182344999Y-57535000D01*
X182344999Y-57210028D01*
X182344998Y-57210013D01*
X182334505Y-57107303D01*
X182334505Y-57107301D01*
X182279359Y-56940880D01*
X182279354Y-56940869D01*
X182187319Y-56791659D01*
X182187316Y-56791655D01*
X182063344Y-56667683D01*
X182063340Y-56667680D01*
X181914130Y-56575645D01*
X181914119Y-56575640D01*
X181747697Y-56520494D01*
X181644986Y-56510000D01*
X181320000Y-56510000D01*
X181320000Y-57351988D01*
X181262993Y-57319075D01*
X181135826Y-57285000D01*
X181004174Y-57285000D01*
X180877007Y-57319075D01*
X180820000Y-57351988D01*
X180820000Y-56510000D01*
X180495028Y-56510000D01*
X180495012Y-56510001D01*
X180392303Y-56520494D01*
X180392301Y-56520494D01*
X180225880Y-56575640D01*
X180225869Y-56575645D01*
X180076659Y-56667680D01*
X180076655Y-56667683D01*
X179952683Y-56791655D01*
X179952680Y-56791659D01*
X179860645Y-56940869D01*
X179860640Y-56940880D01*
X179805494Y-57107302D01*
X179795000Y-57210013D01*
X179795000Y-57535000D01*
X180636988Y-57535000D01*
X180604075Y-57592007D01*
X180570000Y-57719174D01*
X180570000Y-57850826D01*
X180604075Y-57977993D01*
X180636988Y-58035000D01*
X179795001Y-58035000D01*
X179795001Y-58359986D01*
X179805494Y-58462696D01*
X179805494Y-58462698D01*
X179860640Y-58629119D01*
X179860645Y-58629130D01*
X179952680Y-58778340D01*
X179952683Y-58778344D01*
X180076655Y-58902316D01*
X180076659Y-58902319D01*
X180225869Y-58994354D01*
X180225880Y-58994359D01*
X180345542Y-59034011D01*
X180402987Y-59073783D01*
X180429810Y-59138299D01*
X180417495Y-59207075D01*
X180377660Y-59253293D01*
X180362476Y-59263923D01*
X180940590Y-59842037D01*
X180877007Y-59859075D01*
X180762993Y-59924901D01*
X180669901Y-60017993D01*
X180604075Y-60132007D01*
X180587037Y-60195590D01*
X180008924Y-59617477D01*
X179961598Y-59685066D01*
X179867318Y-59887252D01*
X179867314Y-59887263D01*
X179809574Y-60102751D01*
X179809573Y-60102758D01*
X179790130Y-60324998D01*
X179790130Y-60325001D01*
X179510220Y-60325001D01*
X179510220Y-60325000D01*
X179491385Y-60133769D01*
X179435605Y-59949886D01*
X179435603Y-59949883D01*
X179435603Y-59949881D01*
X179345026Y-59780424D01*
X179345022Y-59780417D01*
X179223120Y-59631879D01*
X179074582Y-59509977D01*
X179074575Y-59509973D01*
X178905118Y-59419396D01*
X178813172Y-59391505D01*
X178721231Y-59363615D01*
X178721229Y-59363614D01*
X178721231Y-59363614D01*
X178530000Y-59344780D01*
X178338770Y-59363614D01*
X178154881Y-59419396D01*
X177985424Y-59509973D01*
X177985417Y-59509978D01*
X177948165Y-59540550D01*
X177883855Y-59567863D01*
X177814987Y-59556072D01*
X177763427Y-59508920D01*
X177745500Y-59444697D01*
X177745500Y-59081188D01*
X177765185Y-59014149D01*
X177781815Y-58993511D01*
X178048499Y-58726826D01*
X178109820Y-58693343D01*
X178172169Y-58695847D01*
X178338769Y-58746385D01*
X178530000Y-58765220D01*
X178721231Y-58746385D01*
X178905114Y-58690605D01*
X179074581Y-58600023D01*
X179223120Y-58478120D01*
X179345023Y-58329581D01*
X179435605Y-58160114D01*
X179491385Y-57976231D01*
X179510220Y-57785000D01*
X179491385Y-57593769D01*
X179435605Y-57409886D01*
X179435603Y-57409883D01*
X179435603Y-57409881D01*
X179345026Y-57240424D01*
X179345022Y-57240417D01*
X179223120Y-57091879D01*
X179074582Y-56969977D01*
X179074575Y-56969973D01*
X178905118Y-56879396D01*
X178813172Y-56851505D01*
X178721231Y-56823615D01*
X178721229Y-56823614D01*
X178721231Y-56823614D01*
X178530000Y-56804780D01*
X178338770Y-56823614D01*
X178154881Y-56879396D01*
X177985424Y-56969973D01*
X177985417Y-56969977D01*
X177836879Y-57091879D01*
X177714977Y-57240417D01*
X177714973Y-57240424D01*
X177624396Y-57409881D01*
X177568614Y-57593770D01*
X177549780Y-57785000D01*
X177568614Y-57976227D01*
X177568614Y-57976229D01*
X177568615Y-57976231D01*
X177619151Y-58142826D01*
X177619774Y-58212690D01*
X177588171Y-58266500D01*
X177159537Y-58695135D01*
X177159535Y-58695138D01*
X177116682Y-58769360D01*
X177114781Y-58776456D01*
X177099057Y-58835141D01*
X177095251Y-58849344D01*
X177094500Y-58852144D01*
X177094500Y-59826955D01*
X177074815Y-59893994D01*
X177022011Y-59939749D01*
X176952853Y-59949693D01*
X176889297Y-59920668D01*
X176861142Y-59885408D01*
X176805027Y-59780424D01*
X176805022Y-59780417D01*
X176683120Y-59631879D01*
X176534582Y-59509977D01*
X176534575Y-59509973D01*
X176365118Y-59419396D01*
X176273172Y-59391505D01*
X176181231Y-59363615D01*
X176181229Y-59363614D01*
X176181231Y-59363614D01*
X175990000Y-59344780D01*
X175798770Y-59363614D01*
X175614881Y-59419396D01*
X175445424Y-59509973D01*
X175445417Y-59509977D01*
X175296879Y-59631879D01*
X175265353Y-59670295D01*
X175207607Y-59709629D01*
X175137763Y-59711500D01*
X175077995Y-59675312D01*
X175047279Y-59612557D01*
X175045500Y-59591630D01*
X175045500Y-59241188D01*
X175065185Y-59174149D01*
X175081815Y-59153511D01*
X175508499Y-58726826D01*
X175569820Y-58693343D01*
X175632169Y-58695847D01*
X175798769Y-58746385D01*
X175990000Y-58765220D01*
X176181231Y-58746385D01*
X176365114Y-58690605D01*
X176534581Y-58600023D01*
X176683120Y-58478120D01*
X176805023Y-58329581D01*
X176895605Y-58160114D01*
X176951385Y-57976231D01*
X176970220Y-57785000D01*
X176951385Y-57593769D01*
X176895605Y-57409886D01*
X176895603Y-57409883D01*
X176895603Y-57409881D01*
X176805026Y-57240424D01*
X176805022Y-57240417D01*
X176683120Y-57091879D01*
X176534582Y-56969977D01*
X176534575Y-56969973D01*
X176365118Y-56879396D01*
X176273172Y-56851505D01*
X176181231Y-56823615D01*
X176181229Y-56823614D01*
X176181231Y-56823614D01*
X175990000Y-56804780D01*
X175798770Y-56823614D01*
X175614881Y-56879396D01*
X175445424Y-56969973D01*
X175445417Y-56969977D01*
X175296879Y-57091879D01*
X175174977Y-57240417D01*
X175174973Y-57240424D01*
X175084396Y-57409881D01*
X175028614Y-57593770D01*
X175009780Y-57785000D01*
X175028614Y-57976227D01*
X175028614Y-57976229D01*
X175028615Y-57976231D01*
X175079151Y-58142826D01*
X175079774Y-58212690D01*
X175048171Y-58266500D01*
X174459537Y-58855135D01*
X174459535Y-58855138D01*
X174432297Y-58902316D01*
X174416682Y-58929361D01*
X174407304Y-58964361D01*
X174407304Y-58964362D01*
X174407303Y-58964361D01*
X174394500Y-59012145D01*
X174394500Y-59591630D01*
X174374815Y-59658669D01*
X174322011Y-59704424D01*
X174252853Y-59714368D01*
X174189297Y-59685343D01*
X174174647Y-59670295D01*
X174143120Y-59631879D01*
X173994582Y-59509977D01*
X173994575Y-59509973D01*
X173825118Y-59419396D01*
X173733172Y-59391505D01*
X173641231Y-59363615D01*
X173641229Y-59363614D01*
X173641231Y-59363614D01*
X173450000Y-59344780D01*
X173258770Y-59363614D01*
X173074881Y-59419396D01*
X172905424Y-59509973D01*
X172905417Y-59509977D01*
X172756879Y-59631879D01*
X172715353Y-59682480D01*
X172657607Y-59721814D01*
X172587763Y-59723685D01*
X172527995Y-59687497D01*
X172497279Y-59624742D01*
X172495500Y-59603815D01*
X172495500Y-59251188D01*
X172515185Y-59184149D01*
X172531815Y-59163511D01*
X172968499Y-58726826D01*
X173029820Y-58693343D01*
X173092169Y-58695847D01*
X173258769Y-58746385D01*
X173450000Y-58765220D01*
X173641231Y-58746385D01*
X173825114Y-58690605D01*
X173994581Y-58600023D01*
X174143120Y-58478120D01*
X174265023Y-58329581D01*
X174355605Y-58160114D01*
X174411385Y-57976231D01*
X174430220Y-57785000D01*
X174411385Y-57593769D01*
X174355605Y-57409886D01*
X174355603Y-57409883D01*
X174355603Y-57409881D01*
X174265026Y-57240424D01*
X174265022Y-57240417D01*
X174143120Y-57091879D01*
X173994582Y-56969977D01*
X173994575Y-56969973D01*
X173825118Y-56879396D01*
X173733172Y-56851505D01*
X173641231Y-56823615D01*
X173641229Y-56823614D01*
X173641231Y-56823614D01*
X173450000Y-56804780D01*
X173258770Y-56823614D01*
X173074881Y-56879396D01*
X172905424Y-56969973D01*
X172905417Y-56969977D01*
X172756879Y-57091879D01*
X172634977Y-57240417D01*
X172634973Y-57240424D01*
X172544396Y-57409881D01*
X172488614Y-57593770D01*
X172469780Y-57785000D01*
X172488614Y-57976227D01*
X172488614Y-57976229D01*
X172488615Y-57976231D01*
X172539151Y-58142826D01*
X172539774Y-58212690D01*
X172508171Y-58266500D01*
X171909537Y-58865135D01*
X171909535Y-58865138D01*
X171866681Y-58939361D01*
X171859982Y-58964360D01*
X171859983Y-58964361D01*
X171844500Y-59022145D01*
X171844500Y-59579445D01*
X171824815Y-59646484D01*
X171772011Y-59692239D01*
X171702853Y-59702183D01*
X171639297Y-59673158D01*
X171624647Y-59658110D01*
X171603120Y-59631879D01*
X171454582Y-59509977D01*
X171454575Y-59509973D01*
X171285118Y-59419396D01*
X171193172Y-59391505D01*
X171101231Y-59363615D01*
X171101229Y-59363614D01*
X171101231Y-59363614D01*
X170910000Y-59344780D01*
X170718770Y-59363614D01*
X170534881Y-59419396D01*
X170365424Y-59509973D01*
X170365417Y-59509977D01*
X170216879Y-59631879D01*
X170185353Y-59670295D01*
X170127607Y-59709629D01*
X170057763Y-59711500D01*
X169997995Y-59675312D01*
X169967279Y-59612557D01*
X169965500Y-59591630D01*
X169965500Y-59276188D01*
X169985185Y-59209149D01*
X170001815Y-59188511D01*
X170455353Y-58734972D01*
X170516674Y-58701489D01*
X170579027Y-58703994D01*
X170713132Y-58744675D01*
X170718766Y-58746384D01*
X170718768Y-58746385D01*
X170735914Y-58748073D01*
X170910000Y-58765220D01*
X171101231Y-58746385D01*
X171285114Y-58690605D01*
X171454581Y-58600023D01*
X171603120Y-58478120D01*
X171725023Y-58329581D01*
X171815605Y-58160114D01*
X171871385Y-57976231D01*
X171890220Y-57785000D01*
X171871385Y-57593769D01*
X171815605Y-57409886D01*
X171815603Y-57409883D01*
X171815603Y-57409881D01*
X171725026Y-57240424D01*
X171725022Y-57240417D01*
X171603120Y-57091879D01*
X171454582Y-56969977D01*
X171454575Y-56969973D01*
X171285118Y-56879396D01*
X171193172Y-56851505D01*
X171101231Y-56823615D01*
X171101229Y-56823614D01*
X171101231Y-56823614D01*
X170910000Y-56804780D01*
X170718770Y-56823614D01*
X170534881Y-56879396D01*
X170365424Y-56969973D01*
X170365417Y-56969977D01*
X170216879Y-57091879D01*
X170094977Y-57240417D01*
X170094973Y-57240424D01*
X170004396Y-57409881D01*
X169948614Y-57593770D01*
X169929780Y-57785000D01*
X169948614Y-57976229D01*
X169948615Y-57976231D01*
X169999192Y-58142963D01*
X170006164Y-58165944D01*
X170004413Y-58166475D01*
X170010954Y-58227419D01*
X169979668Y-58289893D01*
X169976609Y-58293062D01*
X169379537Y-58890135D01*
X169379535Y-58890138D01*
X169336680Y-58964362D01*
X169329237Y-58992146D01*
X169314500Y-59047145D01*
X169314500Y-59591630D01*
X169294815Y-59658669D01*
X169242011Y-59704424D01*
X169172853Y-59714368D01*
X169109297Y-59685343D01*
X169094647Y-59670295D01*
X169063120Y-59631879D01*
X168914582Y-59509977D01*
X168914575Y-59509973D01*
X168745118Y-59419396D01*
X168653172Y-59391505D01*
X168561231Y-59363615D01*
X168561229Y-59363614D01*
X168561231Y-59363614D01*
X168370000Y-59344780D01*
X168178770Y-59363614D01*
X167994881Y-59419396D01*
X167825424Y-59509973D01*
X167825417Y-59509977D01*
X167676877Y-59631881D01*
X167665351Y-59645926D01*
X167607604Y-59685259D01*
X167537760Y-59687128D01*
X167477992Y-59650939D01*
X167447278Y-59588182D01*
X167445500Y-59567259D01*
X167445500Y-59221188D01*
X167465185Y-59154149D01*
X167481815Y-59133511D01*
X167888499Y-58726826D01*
X167949820Y-58693343D01*
X168012169Y-58695847D01*
X168178769Y-58746385D01*
X168370000Y-58765220D01*
X168561231Y-58746385D01*
X168745114Y-58690605D01*
X168914581Y-58600023D01*
X169063120Y-58478120D01*
X169185023Y-58329581D01*
X169275605Y-58160114D01*
X169331385Y-57976231D01*
X169350220Y-57785000D01*
X169331385Y-57593769D01*
X169275605Y-57409886D01*
X169275603Y-57409883D01*
X169275603Y-57409881D01*
X169185026Y-57240424D01*
X169185022Y-57240417D01*
X169063120Y-57091879D01*
X168914582Y-56969977D01*
X168914575Y-56969973D01*
X168745118Y-56879396D01*
X168653172Y-56851505D01*
X168561231Y-56823615D01*
X168561229Y-56823614D01*
X168561231Y-56823614D01*
X168370000Y-56804780D01*
X168178770Y-56823614D01*
X167994881Y-56879396D01*
X167825424Y-56969973D01*
X167825417Y-56969977D01*
X167676879Y-57091879D01*
X167554977Y-57240417D01*
X167554973Y-57240424D01*
X167464396Y-57409881D01*
X167408614Y-57593770D01*
X167389780Y-57785000D01*
X167408614Y-57976227D01*
X167408614Y-57976229D01*
X167408615Y-57976231D01*
X167459151Y-58142826D01*
X167459774Y-58212690D01*
X167428171Y-58266500D01*
X166859537Y-58835135D01*
X166859533Y-58835141D01*
X166816681Y-58909361D01*
X166808627Y-58939423D01*
X166808627Y-58939424D01*
X166808627Y-58939425D01*
X166794501Y-58992146D01*
X166794500Y-58992148D01*
X166794500Y-59616000D01*
X166774815Y-59683039D01*
X166722011Y-59728794D01*
X166652853Y-59738738D01*
X166589297Y-59709713D01*
X166574647Y-59694665D01*
X166523120Y-59631879D01*
X166374582Y-59509977D01*
X166374575Y-59509973D01*
X166205118Y-59419396D01*
X166113172Y-59391505D01*
X166021231Y-59363615D01*
X166021229Y-59363614D01*
X166021231Y-59363614D01*
X165830000Y-59344780D01*
X165638770Y-59363614D01*
X165454881Y-59419396D01*
X165285424Y-59509973D01*
X165285417Y-59509977D01*
X165167165Y-59607025D01*
X165102855Y-59634338D01*
X165033987Y-59622547D01*
X164982427Y-59575395D01*
X164964500Y-59511172D01*
X164964500Y-59162454D01*
X164984185Y-59095415D01*
X165000804Y-59074787D01*
X165348623Y-58726880D01*
X165409942Y-58693388D01*
X165472308Y-58695889D01*
X165638769Y-58746385D01*
X165638768Y-58746385D01*
X165655914Y-58748073D01*
X165830000Y-58765220D01*
X166021231Y-58746385D01*
X166205114Y-58690605D01*
X166374581Y-58600023D01*
X166523120Y-58478120D01*
X166645023Y-58329581D01*
X166735605Y-58160114D01*
X166791385Y-57976231D01*
X166810220Y-57785000D01*
X166791385Y-57593769D01*
X166735605Y-57409886D01*
X166735603Y-57409883D01*
X166735603Y-57409881D01*
X166645026Y-57240424D01*
X166645022Y-57240417D01*
X166523120Y-57091879D01*
X166374582Y-56969977D01*
X166374575Y-56969973D01*
X166205118Y-56879396D01*
X166113172Y-56851505D01*
X166021231Y-56823615D01*
X166021229Y-56823614D01*
X166021231Y-56823614D01*
X165830000Y-56804780D01*
X165638770Y-56823614D01*
X165454881Y-56879396D01*
X165285424Y-56969973D01*
X165285417Y-56969977D01*
X165136879Y-57091879D01*
X165014977Y-57240417D01*
X165014973Y-57240424D01*
X164924396Y-57409881D01*
X164868614Y-57593770D01*
X164849780Y-57785000D01*
X164868614Y-57976229D01*
X164919192Y-58142963D01*
X164919815Y-58212830D01*
X164888223Y-58266628D01*
X164410305Y-58744666D01*
X164410297Y-58744675D01*
X164378519Y-58776453D01*
X164355977Y-58815508D01*
X164355973Y-58815515D01*
X164335671Y-58850680D01*
X164335666Y-58850699D01*
X164323478Y-58896206D01*
X164319800Y-58909935D01*
X164313497Y-58933456D01*
X164313494Y-58933483D01*
X164313500Y-58980236D01*
X164313500Y-59687891D01*
X164293815Y-59754930D01*
X164241011Y-59800685D01*
X164171853Y-59810629D01*
X164108297Y-59781604D01*
X164093647Y-59766556D01*
X163983120Y-59631879D01*
X163834582Y-59509977D01*
X163834575Y-59509973D01*
X163665118Y-59419396D01*
X163573172Y-59391505D01*
X163481231Y-59363615D01*
X163481229Y-59363614D01*
X163481231Y-59363614D01*
X163290000Y-59344780D01*
X163098770Y-59363614D01*
X162914881Y-59419396D01*
X162745424Y-59509973D01*
X162745417Y-59509977D01*
X162596879Y-59631879D01*
X162565353Y-59670295D01*
X162507607Y-59709629D01*
X162437763Y-59711500D01*
X162377995Y-59675312D01*
X162347279Y-59612557D01*
X162345500Y-59591630D01*
X162345500Y-59276188D01*
X162365185Y-59209149D01*
X162381815Y-59188511D01*
X162835353Y-58734972D01*
X162896674Y-58701489D01*
X162959027Y-58703994D01*
X163093132Y-58744675D01*
X163098766Y-58746384D01*
X163098768Y-58746385D01*
X163115914Y-58748073D01*
X163290000Y-58765220D01*
X163481231Y-58746385D01*
X163665114Y-58690605D01*
X163834581Y-58600023D01*
X163983120Y-58478120D01*
X164105023Y-58329581D01*
X164195605Y-58160114D01*
X164251385Y-57976231D01*
X164270220Y-57785000D01*
X164251385Y-57593769D01*
X164195605Y-57409886D01*
X164195603Y-57409883D01*
X164195603Y-57409881D01*
X164105026Y-57240424D01*
X164105022Y-57240417D01*
X163983120Y-57091879D01*
X163834582Y-56969977D01*
X163834575Y-56969973D01*
X163665118Y-56879396D01*
X163573172Y-56851505D01*
X163481231Y-56823615D01*
X163481229Y-56823614D01*
X163481231Y-56823614D01*
X163290000Y-56804780D01*
X163098770Y-56823614D01*
X162914881Y-56879396D01*
X162745424Y-56969973D01*
X162745417Y-56969977D01*
X162596879Y-57091879D01*
X162474977Y-57240417D01*
X162474973Y-57240424D01*
X162384396Y-57409881D01*
X162328614Y-57593770D01*
X162309780Y-57785000D01*
X162328614Y-57976229D01*
X162328615Y-57976231D01*
X162379192Y-58142963D01*
X162386164Y-58165944D01*
X162384413Y-58166475D01*
X162390954Y-58227419D01*
X162359668Y-58289893D01*
X162356609Y-58293062D01*
X161759537Y-58890135D01*
X161759535Y-58890138D01*
X161716680Y-58964362D01*
X161709237Y-58992146D01*
X161694500Y-59047145D01*
X161694500Y-59591630D01*
X161674815Y-59658669D01*
X161622011Y-59704424D01*
X161552853Y-59714368D01*
X161489297Y-59685343D01*
X161474647Y-59670295D01*
X161443120Y-59631879D01*
X161294582Y-59509977D01*
X161294575Y-59509973D01*
X161125118Y-59419396D01*
X161033172Y-59391505D01*
X160941231Y-59363615D01*
X160941229Y-59363614D01*
X160941231Y-59363614D01*
X160750000Y-59344780D01*
X160558770Y-59363614D01*
X160374881Y-59419396D01*
X160205424Y-59509973D01*
X160205417Y-59509977D01*
X160056879Y-59631879D01*
X160015353Y-59682480D01*
X159957607Y-59721814D01*
X159887763Y-59723685D01*
X159827995Y-59687497D01*
X159797279Y-59624742D01*
X159795500Y-59603815D01*
X159795500Y-59251133D01*
X159815185Y-59184094D01*
X159831796Y-59163473D01*
X160268297Y-58726790D01*
X160329613Y-58693293D01*
X160391988Y-58695792D01*
X160558769Y-58746385D01*
X160558768Y-58746385D01*
X160575914Y-58748073D01*
X160750000Y-58765220D01*
X160941231Y-58746385D01*
X161125114Y-58690605D01*
X161294581Y-58600023D01*
X161443120Y-58478120D01*
X161565023Y-58329581D01*
X161655605Y-58160114D01*
X161711385Y-57976231D01*
X161730220Y-57785000D01*
X161711385Y-57593769D01*
X161655605Y-57409886D01*
X161655603Y-57409883D01*
X161655603Y-57409881D01*
X161565026Y-57240424D01*
X161565022Y-57240417D01*
X161443120Y-57091879D01*
X161294582Y-56969977D01*
X161294575Y-56969973D01*
X161125118Y-56879396D01*
X161033172Y-56851505D01*
X160941231Y-56823615D01*
X160941229Y-56823614D01*
X160941231Y-56823614D01*
X160750000Y-56804780D01*
X160558770Y-56823614D01*
X160374883Y-56879396D01*
X160374882Y-56879396D01*
X160358206Y-56888310D01*
X160289803Y-56902551D01*
X160224560Y-56877550D01*
X160212066Y-56866625D01*
X159137321Y-55791701D01*
X159137272Y-55791645D01*
X159092985Y-55747358D01*
X159070883Y-55725252D01*
X159070882Y-55725251D01*
X159070871Y-55725240D01*
X159045340Y-55710500D01*
X159030162Y-55701737D01*
X158996664Y-55682393D01*
X158996647Y-55682383D01*
X158956285Y-55671568D01*
X158956279Y-55671564D01*
X158956279Y-55671567D01*
X158913869Y-55660200D01*
X158913853Y-55660200D01*
X158877149Y-55660200D01*
X158877134Y-55660199D01*
X158820129Y-55660195D01*
X158820053Y-55660200D01*
X149642299Y-55660200D01*
X149575260Y-55640515D01*
X149543923Y-55611686D01*
X149502283Y-55557419D01*
X149502282Y-55557418D01*
X149376841Y-55461164D01*
X149230762Y-55400656D01*
X149230760Y-55400655D01*
X149074001Y-55380018D01*
X149073999Y-55380018D01*
X148917239Y-55400655D01*
X148917237Y-55400656D01*
X148771160Y-55461163D01*
X148645718Y-55557418D01*
X148549463Y-55682860D01*
X148488956Y-55828937D01*
X148488955Y-55828939D01*
X148468318Y-55985698D01*
X148468318Y-55985701D01*
X148488955Y-56142460D01*
X148488956Y-56142462D01*
X148549464Y-56288541D01*
X148645718Y-56413982D01*
X148771159Y-56510236D01*
X148917238Y-56570744D01*
X148995619Y-56581063D01*
X149073999Y-56591382D01*
X149074000Y-56591382D01*
X149074001Y-56591382D01*
X149133824Y-56583506D01*
X149230762Y-56570744D01*
X149376841Y-56510236D01*
X149502282Y-56413982D01*
X149543923Y-56359713D01*
X149600351Y-56318511D01*
X149642299Y-56311200D01*
X158684788Y-56311200D01*
X158751827Y-56330885D01*
X158772477Y-56347526D01*
X159789583Y-57364803D01*
X159823062Y-57426129D01*
X159820555Y-57488470D01*
X159788615Y-57593767D01*
X159788614Y-57593769D01*
X159769780Y-57785000D01*
X159788614Y-57976229D01*
X159839095Y-58142641D01*
X159839718Y-58212508D01*
X159808134Y-58266299D01*
X159240544Y-58834128D01*
X159240528Y-58834144D01*
X159209510Y-58865163D01*
X159188217Y-58902061D01*
X159188206Y-58902080D01*
X159166675Y-58939373D01*
X159166661Y-58939408D01*
X159166656Y-58939423D01*
X159166656Y-58939425D01*
X159155729Y-58980236D01*
X159155634Y-58980592D01*
X159155628Y-58980611D01*
X159144500Y-59022144D01*
X159144490Y-59022215D01*
X159144500Y-59065067D01*
X159144500Y-59579445D01*
X159124815Y-59646484D01*
X159072011Y-59692239D01*
X159002853Y-59702183D01*
X158939297Y-59673158D01*
X158924647Y-59658110D01*
X158903120Y-59631879D01*
X158754582Y-59509977D01*
X158754575Y-59509973D01*
X158585118Y-59419396D01*
X158493172Y-59391505D01*
X158401231Y-59363615D01*
X158401229Y-59363614D01*
X158401231Y-59363614D01*
X158210000Y-59344780D01*
X158018770Y-59363614D01*
X157834881Y-59419396D01*
X157665424Y-59509973D01*
X157665417Y-59509977D01*
X157516879Y-59631879D01*
X157465353Y-59694665D01*
X157407607Y-59733999D01*
X157337763Y-59735870D01*
X157277995Y-59699682D01*
X157247279Y-59636927D01*
X157245500Y-59616000D01*
X157245500Y-59295987D01*
X157265185Y-59228948D01*
X157281815Y-59208310D01*
X157755199Y-58734925D01*
X157816520Y-58701442D01*
X157878871Y-58703947D01*
X158018766Y-58746384D01*
X158018768Y-58746385D01*
X158035914Y-58748073D01*
X158210000Y-58765220D01*
X158401231Y-58746385D01*
X158585114Y-58690605D01*
X158754581Y-58600023D01*
X158903120Y-58478120D01*
X159025023Y-58329581D01*
X159115605Y-58160114D01*
X159171385Y-57976231D01*
X159190220Y-57785000D01*
X159171385Y-57593769D01*
X159115605Y-57409886D01*
X159115603Y-57409883D01*
X159115603Y-57409881D01*
X159025026Y-57240424D01*
X159025022Y-57240417D01*
X158903120Y-57091879D01*
X158754582Y-56969977D01*
X158754575Y-56969973D01*
X158585118Y-56879396D01*
X158493172Y-56851505D01*
X158401231Y-56823615D01*
X158401229Y-56823614D01*
X158401231Y-56823614D01*
X158210000Y-56804780D01*
X158018770Y-56823614D01*
X157834881Y-56879396D01*
X157665424Y-56969973D01*
X157665417Y-56969977D01*
X157516879Y-57091879D01*
X157394977Y-57240417D01*
X157394973Y-57240424D01*
X157304396Y-57409881D01*
X157248614Y-57593770D01*
X157229780Y-57785000D01*
X157248614Y-57976229D01*
X157248615Y-57976231D01*
X157299192Y-58142963D01*
X157306164Y-58165944D01*
X157304368Y-58166488D01*
X157310898Y-58227267D01*
X157279618Y-58289743D01*
X157276551Y-58292921D01*
X156659537Y-58909935D01*
X156659535Y-58909938D01*
X156616682Y-58984159D01*
X156613951Y-58994354D01*
X156607295Y-59019194D01*
X156607295Y-59019195D01*
X156607294Y-59019194D01*
X156594500Y-59066943D01*
X156594500Y-59567259D01*
X156574815Y-59634298D01*
X156522011Y-59680053D01*
X156452853Y-59689997D01*
X156389297Y-59660972D01*
X156374649Y-59645926D01*
X156363122Y-59631881D01*
X156214582Y-59509977D01*
X156214575Y-59509973D01*
X156045118Y-59419396D01*
X155953172Y-59391505D01*
X155861231Y-59363615D01*
X155861229Y-59363614D01*
X155861231Y-59363614D01*
X155670000Y-59344780D01*
X155478770Y-59363614D01*
X155294881Y-59419396D01*
X155125424Y-59509973D01*
X155125417Y-59509977D01*
X154976879Y-59631879D01*
X154945353Y-59670295D01*
X154887607Y-59709629D01*
X154817763Y-59711500D01*
X154757995Y-59675312D01*
X154727279Y-59612557D01*
X154725500Y-59591630D01*
X154725500Y-59276188D01*
X154745185Y-59209149D01*
X154761815Y-59188511D01*
X155215353Y-58734972D01*
X155276674Y-58701489D01*
X155339027Y-58703994D01*
X155473132Y-58744675D01*
X155478766Y-58746384D01*
X155478768Y-58746385D01*
X155495914Y-58748073D01*
X155670000Y-58765220D01*
X155861231Y-58746385D01*
X156045114Y-58690605D01*
X156214581Y-58600023D01*
X156363120Y-58478120D01*
X156485023Y-58329581D01*
X156575605Y-58160114D01*
X156631385Y-57976231D01*
X156650220Y-57785000D01*
X156631385Y-57593769D01*
X156575605Y-57409886D01*
X156575603Y-57409883D01*
X156575603Y-57409881D01*
X156485026Y-57240424D01*
X156485022Y-57240417D01*
X156363120Y-57091879D01*
X156214582Y-56969977D01*
X156214575Y-56969973D01*
X156045118Y-56879396D01*
X155953172Y-56851505D01*
X155861231Y-56823615D01*
X155861229Y-56823614D01*
X155861231Y-56823614D01*
X155670000Y-56804780D01*
X155478770Y-56823614D01*
X155294881Y-56879396D01*
X155125424Y-56969973D01*
X155125417Y-56969977D01*
X154976879Y-57091879D01*
X154854977Y-57240417D01*
X154854973Y-57240424D01*
X154764396Y-57409881D01*
X154708614Y-57593770D01*
X154689780Y-57785000D01*
X154708614Y-57976229D01*
X154708615Y-57976231D01*
X154759192Y-58142963D01*
X154766164Y-58165944D01*
X154764413Y-58166475D01*
X154770954Y-58227419D01*
X154739668Y-58289893D01*
X154736609Y-58293062D01*
X154139537Y-58890135D01*
X154139535Y-58890138D01*
X154096680Y-58964362D01*
X154089237Y-58992146D01*
X154074500Y-59047145D01*
X154074500Y-59591630D01*
X154054815Y-59658669D01*
X154002011Y-59704424D01*
X153932853Y-59714368D01*
X153869297Y-59685343D01*
X153854647Y-59670295D01*
X153823120Y-59631879D01*
X153674582Y-59509977D01*
X153674575Y-59509973D01*
X153505118Y-59419396D01*
X153413172Y-59391505D01*
X153321231Y-59363615D01*
X153321229Y-59363614D01*
X153321231Y-59363614D01*
X153130000Y-59344780D01*
X152938770Y-59363614D01*
X152754881Y-59419396D01*
X152585424Y-59509973D01*
X152585417Y-59509977D01*
X152436879Y-59631879D01*
X152405353Y-59670295D01*
X152347607Y-59709629D01*
X152277763Y-59711500D01*
X152217995Y-59675312D01*
X152187279Y-59612557D01*
X152185500Y-59591630D01*
X152185500Y-59276188D01*
X152205185Y-59209149D01*
X152221815Y-59188511D01*
X152675353Y-58734972D01*
X152736674Y-58701489D01*
X152799027Y-58703994D01*
X152933132Y-58744675D01*
X152938766Y-58746384D01*
X152938768Y-58746385D01*
X152955914Y-58748073D01*
X153130000Y-58765220D01*
X153321231Y-58746385D01*
X153505114Y-58690605D01*
X153674581Y-58600023D01*
X153823120Y-58478120D01*
X153945023Y-58329581D01*
X154035605Y-58160114D01*
X154091385Y-57976231D01*
X154110220Y-57785000D01*
X154091385Y-57593769D01*
X154035605Y-57409886D01*
X154035603Y-57409883D01*
X154035603Y-57409881D01*
X153945026Y-57240424D01*
X153945022Y-57240417D01*
X153823120Y-57091879D01*
X153674582Y-56969977D01*
X153674575Y-56969973D01*
X153505118Y-56879396D01*
X153413172Y-56851505D01*
X153321231Y-56823615D01*
X153321229Y-56823614D01*
X153321231Y-56823614D01*
X153130000Y-56804780D01*
X152938770Y-56823614D01*
X152754881Y-56879396D01*
X152585424Y-56969973D01*
X152585417Y-56969977D01*
X152436879Y-57091879D01*
X152314977Y-57240417D01*
X152314973Y-57240424D01*
X152224396Y-57409881D01*
X152168614Y-57593770D01*
X152149780Y-57785000D01*
X152168614Y-57976229D01*
X152168615Y-57976231D01*
X152219192Y-58142963D01*
X152226164Y-58165944D01*
X152224413Y-58166475D01*
X152230954Y-58227419D01*
X152199668Y-58289893D01*
X152196609Y-58293062D01*
X151599537Y-58890135D01*
X151599535Y-58890138D01*
X151556680Y-58964362D01*
X151549237Y-58992146D01*
X151534500Y-59047145D01*
X151534500Y-59591630D01*
X151514815Y-59658669D01*
X151462011Y-59704424D01*
X151392853Y-59714368D01*
X151329297Y-59685343D01*
X151314647Y-59670295D01*
X151283120Y-59631879D01*
X151134582Y-59509977D01*
X151134575Y-59509973D01*
X150965118Y-59419396D01*
X150873172Y-59391505D01*
X150781231Y-59363615D01*
X150781229Y-59363614D01*
X150781231Y-59363614D01*
X150590000Y-59344780D01*
X150398770Y-59363614D01*
X150214881Y-59419396D01*
X150045424Y-59509973D01*
X150045417Y-59509977D01*
X149896879Y-59631879D01*
X149865353Y-59670295D01*
X149807607Y-59709629D01*
X149737763Y-59711500D01*
X149677995Y-59675312D01*
X149647279Y-59612557D01*
X149645500Y-59591630D01*
X149645500Y-59276188D01*
X149665185Y-59209149D01*
X149681815Y-59188511D01*
X150135353Y-58734972D01*
X150196674Y-58701489D01*
X150259027Y-58703994D01*
X150393132Y-58744675D01*
X150398766Y-58746384D01*
X150398768Y-58746385D01*
X150415914Y-58748073D01*
X150590000Y-58765220D01*
X150781231Y-58746385D01*
X150965114Y-58690605D01*
X151134581Y-58600023D01*
X151283120Y-58478120D01*
X151405023Y-58329581D01*
X151495605Y-58160114D01*
X151551385Y-57976231D01*
X151570220Y-57785000D01*
X151551385Y-57593769D01*
X151495605Y-57409886D01*
X151495603Y-57409883D01*
X151495603Y-57409881D01*
X151405026Y-57240424D01*
X151405022Y-57240417D01*
X151283120Y-57091879D01*
X151134582Y-56969977D01*
X151134575Y-56969973D01*
X150965118Y-56879396D01*
X150873172Y-56851505D01*
X150781231Y-56823615D01*
X150781229Y-56823614D01*
X150781231Y-56823614D01*
X150590000Y-56804780D01*
X150398770Y-56823614D01*
X150214881Y-56879396D01*
X150045424Y-56969973D01*
X150045417Y-56969977D01*
X149896879Y-57091879D01*
X149774977Y-57240417D01*
X149774973Y-57240424D01*
X149684396Y-57409881D01*
X149628614Y-57593770D01*
X149609780Y-57785000D01*
X149628614Y-57976229D01*
X149628615Y-57976231D01*
X149679192Y-58142963D01*
X149686164Y-58165944D01*
X149684413Y-58166475D01*
X149690954Y-58227419D01*
X149659668Y-58289893D01*
X149656609Y-58293062D01*
X149059537Y-58890135D01*
X149059535Y-58890138D01*
X149016680Y-58964362D01*
X149009237Y-58992146D01*
X148994500Y-59047145D01*
X148994500Y-59591630D01*
X148974815Y-59658669D01*
X148922011Y-59704424D01*
X148852853Y-59714368D01*
X148789297Y-59685343D01*
X148774647Y-59670295D01*
X148743120Y-59631879D01*
X148594582Y-59509977D01*
X148594575Y-59509973D01*
X148425118Y-59419396D01*
X148333172Y-59391505D01*
X148241231Y-59363615D01*
X148241229Y-59363614D01*
X148241231Y-59363614D01*
X148050000Y-59344780D01*
X147858770Y-59363614D01*
X147674881Y-59419396D01*
X147505424Y-59509973D01*
X147505417Y-59509977D01*
X147356879Y-59631879D01*
X147325353Y-59670295D01*
X147267607Y-59709629D01*
X147197763Y-59711500D01*
X147137995Y-59675312D01*
X147107279Y-59612557D01*
X147105500Y-59591630D01*
X147105500Y-59276188D01*
X147125185Y-59209149D01*
X147141815Y-59188511D01*
X147595353Y-58734972D01*
X147656674Y-58701489D01*
X147719027Y-58703994D01*
X147853132Y-58744675D01*
X147858766Y-58746384D01*
X147858768Y-58746385D01*
X147875914Y-58748073D01*
X148050000Y-58765220D01*
X148241231Y-58746385D01*
X148425114Y-58690605D01*
X148594581Y-58600023D01*
X148743120Y-58478120D01*
X148865023Y-58329581D01*
X148955605Y-58160114D01*
X149011385Y-57976231D01*
X149030220Y-57785000D01*
X149011385Y-57593769D01*
X148955605Y-57409886D01*
X148955603Y-57409883D01*
X148955603Y-57409881D01*
X148865026Y-57240424D01*
X148865022Y-57240417D01*
X148743120Y-57091879D01*
X148594582Y-56969977D01*
X148594575Y-56969973D01*
X148425118Y-56879396D01*
X148333172Y-56851505D01*
X148241231Y-56823615D01*
X148241229Y-56823614D01*
X148241231Y-56823614D01*
X148050000Y-56804780D01*
X147858770Y-56823614D01*
X147674881Y-56879396D01*
X147505424Y-56969973D01*
X147505417Y-56969977D01*
X147356879Y-57091879D01*
X147234977Y-57240417D01*
X147234973Y-57240424D01*
X147144396Y-57409881D01*
X147088614Y-57593770D01*
X147069780Y-57785000D01*
X147088614Y-57976229D01*
X147088615Y-57976231D01*
X147139192Y-58142963D01*
X147146164Y-58165944D01*
X147144413Y-58166475D01*
X147150954Y-58227419D01*
X147119668Y-58289893D01*
X147116609Y-58293062D01*
X146519537Y-58890135D01*
X146519535Y-58890138D01*
X146476680Y-58964362D01*
X146469237Y-58992146D01*
X146454500Y-59047145D01*
X146454500Y-59591630D01*
X146434815Y-59658669D01*
X146382011Y-59704424D01*
X146312853Y-59714368D01*
X146249297Y-59685343D01*
X146234647Y-59670295D01*
X146203120Y-59631879D01*
X146054582Y-59509977D01*
X146054575Y-59509973D01*
X145885118Y-59419396D01*
X145793172Y-59391505D01*
X145701231Y-59363615D01*
X145701229Y-59363614D01*
X145701231Y-59363614D01*
X145510000Y-59344780D01*
X145318770Y-59363614D01*
X145134881Y-59419396D01*
X144965424Y-59509973D01*
X144965417Y-59509977D01*
X144816879Y-59631879D01*
X144785353Y-59670295D01*
X144727607Y-59709629D01*
X144657763Y-59711500D01*
X144597995Y-59675312D01*
X144567279Y-59612557D01*
X144565500Y-59591630D01*
X144565500Y-59276188D01*
X144585185Y-59209149D01*
X144601815Y-59188511D01*
X145055353Y-58734972D01*
X145116674Y-58701489D01*
X145179027Y-58703994D01*
X145313132Y-58744675D01*
X145318766Y-58746384D01*
X145318768Y-58746385D01*
X145335914Y-58748073D01*
X145510000Y-58765220D01*
X145701231Y-58746385D01*
X145885114Y-58690605D01*
X146054581Y-58600023D01*
X146203120Y-58478120D01*
X146325023Y-58329581D01*
X146415605Y-58160114D01*
X146471385Y-57976231D01*
X146490220Y-57785000D01*
X146471385Y-57593769D01*
X146415605Y-57409886D01*
X146415603Y-57409883D01*
X146415603Y-57409881D01*
X146325026Y-57240424D01*
X146325022Y-57240417D01*
X146203120Y-57091879D01*
X146054582Y-56969977D01*
X146054575Y-56969973D01*
X145885118Y-56879396D01*
X145793172Y-56851505D01*
X145701231Y-56823615D01*
X145701229Y-56823614D01*
X145701231Y-56823614D01*
X145510000Y-56804780D01*
X145318770Y-56823614D01*
X145134881Y-56879396D01*
X144965424Y-56969973D01*
X144965417Y-56969977D01*
X144816879Y-57091879D01*
X144694977Y-57240417D01*
X144694973Y-57240424D01*
X144604396Y-57409881D01*
X144548614Y-57593770D01*
X144529780Y-57785000D01*
X144548614Y-57976229D01*
X144548615Y-57976231D01*
X144599192Y-58142963D01*
X144606164Y-58165944D01*
X144604413Y-58166475D01*
X144610954Y-58227419D01*
X144579668Y-58289893D01*
X144576609Y-58293062D01*
X143979537Y-58890135D01*
X143979535Y-58890138D01*
X143936680Y-58964362D01*
X143929237Y-58992146D01*
X143914500Y-59047145D01*
X143914500Y-59591630D01*
X143894815Y-59658669D01*
X143842011Y-59704424D01*
X143772853Y-59714368D01*
X143709297Y-59685343D01*
X143694647Y-59670295D01*
X143663120Y-59631879D01*
X143514582Y-59509977D01*
X143514575Y-59509973D01*
X143345118Y-59419396D01*
X143253172Y-59391505D01*
X143161231Y-59363615D01*
X143161229Y-59363614D01*
X143161231Y-59363614D01*
X142970000Y-59344780D01*
X142778770Y-59363614D01*
X142594881Y-59419396D01*
X142425424Y-59509973D01*
X142425417Y-59509977D01*
X142276879Y-59631879D01*
X142245353Y-59670295D01*
X142187607Y-59709629D01*
X142117763Y-59711500D01*
X142057995Y-59675312D01*
X142027279Y-59612557D01*
X142025500Y-59591630D01*
X142025500Y-59276188D01*
X142045185Y-59209149D01*
X142061815Y-59188511D01*
X142515353Y-58734972D01*
X142576674Y-58701489D01*
X142639027Y-58703994D01*
X142773132Y-58744675D01*
X142778766Y-58746384D01*
X142778768Y-58746385D01*
X142795914Y-58748073D01*
X142970000Y-58765220D01*
X143161231Y-58746385D01*
X143345114Y-58690605D01*
X143514581Y-58600023D01*
X143663120Y-58478120D01*
X143785023Y-58329581D01*
X143875605Y-58160114D01*
X143931385Y-57976231D01*
X143950220Y-57785000D01*
X143931385Y-57593769D01*
X143875605Y-57409886D01*
X143875603Y-57409883D01*
X143875603Y-57409881D01*
X143785026Y-57240424D01*
X143785022Y-57240417D01*
X143663120Y-57091879D01*
X143514582Y-56969977D01*
X143514575Y-56969973D01*
X143345118Y-56879396D01*
X143253172Y-56851505D01*
X143161231Y-56823615D01*
X143161229Y-56823614D01*
X143161231Y-56823614D01*
X142970000Y-56804780D01*
X142778770Y-56823614D01*
X142594881Y-56879396D01*
X142425424Y-56969973D01*
X142425417Y-56969977D01*
X142276879Y-57091879D01*
X142154977Y-57240417D01*
X142154973Y-57240424D01*
X142064396Y-57409881D01*
X142008614Y-57593770D01*
X141989780Y-57785000D01*
X142008614Y-57976229D01*
X142008615Y-57976231D01*
X142059192Y-58142963D01*
X142066164Y-58165944D01*
X142064413Y-58166475D01*
X142070954Y-58227419D01*
X142039668Y-58289893D01*
X142036609Y-58293062D01*
X141439537Y-58890135D01*
X141439535Y-58890138D01*
X141396680Y-58964362D01*
X141389237Y-58992146D01*
X141374500Y-59047145D01*
X141374500Y-59591630D01*
X141354815Y-59658669D01*
X141302011Y-59704424D01*
X141232853Y-59714368D01*
X141169297Y-59685343D01*
X141154647Y-59670295D01*
X141123120Y-59631879D01*
X140974582Y-59509977D01*
X140974575Y-59509973D01*
X140805118Y-59419396D01*
X140713172Y-59391505D01*
X140621231Y-59363615D01*
X140621229Y-59363614D01*
X140621231Y-59363614D01*
X140430000Y-59344780D01*
X140238770Y-59363614D01*
X140054881Y-59419396D01*
X139885424Y-59509973D01*
X139885417Y-59509977D01*
X139736879Y-59631879D01*
X139705353Y-59670295D01*
X139647607Y-59709629D01*
X139577763Y-59711500D01*
X139517995Y-59675312D01*
X139487279Y-59612557D01*
X139485500Y-59591630D01*
X139485500Y-59276188D01*
X139505185Y-59209149D01*
X139521819Y-59188507D01*
X139745966Y-58964360D01*
X139975353Y-58734972D01*
X140036674Y-58701489D01*
X140099027Y-58703994D01*
X140233132Y-58744675D01*
X140238766Y-58746384D01*
X140238768Y-58746385D01*
X140255914Y-58748073D01*
X140430000Y-58765220D01*
X140621231Y-58746385D01*
X140805114Y-58690605D01*
X140974581Y-58600023D01*
X141123120Y-58478120D01*
X141245023Y-58329581D01*
X141335605Y-58160114D01*
X141391385Y-57976231D01*
X141410220Y-57785000D01*
X141391385Y-57593769D01*
X141335605Y-57409886D01*
X141335603Y-57409883D01*
X141335603Y-57409881D01*
X141245026Y-57240424D01*
X141245022Y-57240417D01*
X141123120Y-57091879D01*
X140974582Y-56969977D01*
X140974575Y-56969973D01*
X140805118Y-56879396D01*
X140713172Y-56851505D01*
X140621231Y-56823615D01*
X140621229Y-56823614D01*
X140621231Y-56823614D01*
X140430000Y-56804780D01*
X140238770Y-56823614D01*
X140054881Y-56879396D01*
X139885424Y-56969973D01*
X139885417Y-56969977D01*
X139736879Y-57091879D01*
X139614977Y-57240417D01*
X139614973Y-57240424D01*
X139524396Y-57409881D01*
X139468614Y-57593770D01*
X139449780Y-57785000D01*
X139468614Y-57976229D01*
X139468615Y-57976231D01*
X139519192Y-58142963D01*
X139526164Y-58165944D01*
X139524413Y-58166475D01*
X139530954Y-58227419D01*
X139499668Y-58289893D01*
X139496609Y-58293062D01*
X139054490Y-58735181D01*
X139028809Y-58754887D01*
X138960141Y-58794532D01*
X138960136Y-58794536D01*
X138899536Y-58855136D01*
X138899530Y-58855144D01*
X138856685Y-58929355D01*
X138856682Y-58929362D01*
X138834500Y-59012147D01*
X138834500Y-59591630D01*
X138814815Y-59658669D01*
X138762011Y-59704424D01*
X138692853Y-59714368D01*
X138629297Y-59685343D01*
X138614647Y-59670295D01*
X138583120Y-59631879D01*
X138434582Y-59509977D01*
X138434575Y-59509973D01*
X138265118Y-59419396D01*
X138173172Y-59391505D01*
X138081231Y-59363615D01*
X138081229Y-59363614D01*
X138081231Y-59363614D01*
X137890000Y-59344780D01*
X137698770Y-59363614D01*
X137514881Y-59419396D01*
X137345424Y-59509973D01*
X137345417Y-59509977D01*
X137196879Y-59631879D01*
X137165353Y-59670295D01*
X137107607Y-59709629D01*
X137037763Y-59711500D01*
X136977995Y-59675312D01*
X136947279Y-59612557D01*
X136945500Y-59591630D01*
X136945500Y-59276188D01*
X136965185Y-59209149D01*
X136981815Y-59188511D01*
X137435353Y-58734972D01*
X137496674Y-58701489D01*
X137559027Y-58703994D01*
X137693132Y-58744675D01*
X137698766Y-58746384D01*
X137698768Y-58746385D01*
X137715914Y-58748073D01*
X137890000Y-58765220D01*
X138081231Y-58746385D01*
X138265114Y-58690605D01*
X138434581Y-58600023D01*
X138583120Y-58478120D01*
X138705023Y-58329581D01*
X138795605Y-58160114D01*
X138851385Y-57976231D01*
X138870220Y-57785000D01*
X138851385Y-57593769D01*
X138795605Y-57409886D01*
X138795603Y-57409883D01*
X138795603Y-57409881D01*
X138705026Y-57240424D01*
X138705022Y-57240417D01*
X138583120Y-57091879D01*
X138434582Y-56969977D01*
X138434575Y-56969973D01*
X138265118Y-56879396D01*
X138173172Y-56851505D01*
X138081231Y-56823615D01*
X138081229Y-56823614D01*
X138081231Y-56823614D01*
X137890000Y-56804780D01*
X137698770Y-56823614D01*
X137514881Y-56879396D01*
X137345424Y-56969973D01*
X137345417Y-56969977D01*
X137196879Y-57091879D01*
X137074977Y-57240417D01*
X137074973Y-57240424D01*
X136984396Y-57409881D01*
X136928614Y-57593770D01*
X136909780Y-57785000D01*
X136928614Y-57976229D01*
X136928615Y-57976231D01*
X136979192Y-58142963D01*
X136986164Y-58165944D01*
X136984413Y-58166475D01*
X136990954Y-58227419D01*
X136959668Y-58289893D01*
X136956609Y-58293062D01*
X136359537Y-58890135D01*
X136359535Y-58890138D01*
X136316680Y-58964362D01*
X136309237Y-58992146D01*
X136294500Y-59047145D01*
X136294500Y-59591630D01*
X136274815Y-59658669D01*
X136222011Y-59704424D01*
X136152853Y-59714368D01*
X136089297Y-59685343D01*
X136074647Y-59670295D01*
X136043120Y-59631879D01*
X135894582Y-59509977D01*
X135894575Y-59509973D01*
X135725118Y-59419396D01*
X135633172Y-59391505D01*
X135541231Y-59363615D01*
X135541229Y-59363614D01*
X135541231Y-59363614D01*
X135350000Y-59344780D01*
X135158770Y-59363614D01*
X134974881Y-59419396D01*
X134805424Y-59509973D01*
X134805417Y-59509977D01*
X134656879Y-59631879D01*
X134625353Y-59670295D01*
X134567607Y-59709629D01*
X134497763Y-59711500D01*
X134437995Y-59675312D01*
X134407279Y-59612557D01*
X134405500Y-59591630D01*
X134405500Y-59276188D01*
X134425185Y-59209149D01*
X134441815Y-59188511D01*
X134895353Y-58734972D01*
X134956674Y-58701489D01*
X135019027Y-58703994D01*
X135153132Y-58744675D01*
X135158766Y-58746384D01*
X135158768Y-58746385D01*
X135175914Y-58748073D01*
X135350000Y-58765220D01*
X135541231Y-58746385D01*
X135725114Y-58690605D01*
X135894581Y-58600023D01*
X136043120Y-58478120D01*
X136165023Y-58329581D01*
X136255605Y-58160114D01*
X136311385Y-57976231D01*
X136330220Y-57785000D01*
X136311385Y-57593769D01*
X136255605Y-57409886D01*
X136255603Y-57409883D01*
X136255603Y-57409881D01*
X136165026Y-57240424D01*
X136165022Y-57240417D01*
X136043120Y-57091879D01*
X135894582Y-56969977D01*
X135894575Y-56969973D01*
X135725118Y-56879396D01*
X135633172Y-56851505D01*
X135541231Y-56823615D01*
X135541229Y-56823614D01*
X135541231Y-56823614D01*
X135350000Y-56804780D01*
X135158770Y-56823614D01*
X134974881Y-56879396D01*
X134805424Y-56969973D01*
X134805417Y-56969977D01*
X134656879Y-57091879D01*
X134534977Y-57240417D01*
X134534973Y-57240424D01*
X134444396Y-57409881D01*
X134388614Y-57593770D01*
X134369780Y-57785000D01*
X134388614Y-57976229D01*
X134388615Y-57976231D01*
X134439192Y-58142963D01*
X134446164Y-58165944D01*
X134444413Y-58166475D01*
X134450954Y-58227419D01*
X134419668Y-58289893D01*
X134416609Y-58293062D01*
X133819537Y-58890135D01*
X133819535Y-58890138D01*
X133776680Y-58964362D01*
X133769237Y-58992146D01*
X133754500Y-59047145D01*
X133754500Y-59591630D01*
X133734815Y-59658669D01*
X133682011Y-59704424D01*
X133612853Y-59714368D01*
X133549297Y-59685343D01*
X133534647Y-59670295D01*
X133503120Y-59631879D01*
X133354582Y-59509977D01*
X133354575Y-59509973D01*
X133185118Y-59419396D01*
X133093172Y-59391505D01*
X133001231Y-59363615D01*
X133001229Y-59363614D01*
X133001231Y-59363614D01*
X132810000Y-59344780D01*
X132618770Y-59363614D01*
X132434881Y-59419396D01*
X132265424Y-59509973D01*
X132265417Y-59509977D01*
X132116879Y-59631879D01*
X132085353Y-59670295D01*
X132027607Y-59709629D01*
X131957763Y-59711500D01*
X131897995Y-59675312D01*
X131867279Y-59612557D01*
X131865500Y-59591630D01*
X131865500Y-59276188D01*
X131885185Y-59209149D01*
X131901815Y-59188511D01*
X132355353Y-58734972D01*
X132416674Y-58701489D01*
X132479027Y-58703994D01*
X132613132Y-58744675D01*
X132618766Y-58746384D01*
X132618768Y-58746385D01*
X132635914Y-58748073D01*
X132810000Y-58765220D01*
X133001231Y-58746385D01*
X133185114Y-58690605D01*
X133354581Y-58600023D01*
X133503120Y-58478120D01*
X133625023Y-58329581D01*
X133715605Y-58160114D01*
X133771385Y-57976231D01*
X133790220Y-57785000D01*
X133771385Y-57593769D01*
X133715605Y-57409886D01*
X133715603Y-57409883D01*
X133715603Y-57409881D01*
X133625026Y-57240424D01*
X133625022Y-57240417D01*
X133503120Y-57091879D01*
X133354582Y-56969977D01*
X133354575Y-56969973D01*
X133185118Y-56879396D01*
X133093172Y-56851505D01*
X133001231Y-56823615D01*
X133001229Y-56823614D01*
X133001231Y-56823614D01*
X132810000Y-56804780D01*
X132618770Y-56823614D01*
X132434881Y-56879396D01*
X132265424Y-56969973D01*
X132265417Y-56969977D01*
X132116879Y-57091879D01*
X131994977Y-57240417D01*
X131994973Y-57240424D01*
X131904396Y-57409881D01*
X131848614Y-57593770D01*
X131829780Y-57785000D01*
X131848614Y-57976229D01*
X131848615Y-57976231D01*
X131899192Y-58142963D01*
X131906164Y-58165944D01*
X131904413Y-58166475D01*
X131910954Y-58227419D01*
X131879668Y-58289893D01*
X131876609Y-58293062D01*
X131279537Y-58890135D01*
X131279535Y-58890138D01*
X131236680Y-58964362D01*
X131229237Y-58992146D01*
X131214500Y-59047145D01*
X131214500Y-59591630D01*
X131194815Y-59658669D01*
X131142011Y-59704424D01*
X131072853Y-59714368D01*
X131009297Y-59685343D01*
X130994647Y-59670295D01*
X130963120Y-59631879D01*
X130814582Y-59509977D01*
X130814575Y-59509973D01*
X130645118Y-59419396D01*
X130553172Y-59391505D01*
X130461231Y-59363615D01*
X130461229Y-59363614D01*
X130461231Y-59363614D01*
X130270000Y-59344780D01*
X130078770Y-59363614D01*
X129894881Y-59419396D01*
X129725424Y-59509973D01*
X129725417Y-59509977D01*
X129576879Y-59631879D01*
X129545353Y-59670295D01*
X129487607Y-59709629D01*
X129417763Y-59711500D01*
X129357995Y-59675312D01*
X129327279Y-59612557D01*
X129325500Y-59591630D01*
X129325500Y-59276188D01*
X129345185Y-59209149D01*
X129361815Y-59188511D01*
X129815353Y-58734972D01*
X129876674Y-58701489D01*
X129939027Y-58703994D01*
X130073132Y-58744675D01*
X130078766Y-58746384D01*
X130078768Y-58746385D01*
X130095914Y-58748073D01*
X130270000Y-58765220D01*
X130461231Y-58746385D01*
X130645114Y-58690605D01*
X130814581Y-58600023D01*
X130963120Y-58478120D01*
X131085023Y-58329581D01*
X131175605Y-58160114D01*
X131231385Y-57976231D01*
X131250220Y-57785000D01*
X131231385Y-57593769D01*
X131175605Y-57409886D01*
X131175603Y-57409883D01*
X131175603Y-57409881D01*
X131085026Y-57240424D01*
X131085022Y-57240417D01*
X130963120Y-57091879D01*
X130814582Y-56969977D01*
X130814575Y-56969973D01*
X130645118Y-56879396D01*
X130553172Y-56851505D01*
X130461231Y-56823615D01*
X130461229Y-56823614D01*
X130461231Y-56823614D01*
X130270000Y-56804780D01*
X130078770Y-56823614D01*
X129894881Y-56879396D01*
X129725424Y-56969973D01*
X129725417Y-56969977D01*
X129576879Y-57091879D01*
X129454977Y-57240417D01*
X129454973Y-57240424D01*
X129364396Y-57409881D01*
X129308614Y-57593770D01*
X129289780Y-57785000D01*
X129308614Y-57976229D01*
X129308615Y-57976231D01*
X129359192Y-58142963D01*
X129366164Y-58165944D01*
X129364413Y-58166475D01*
X129370954Y-58227419D01*
X129339668Y-58289893D01*
X129336609Y-58293062D01*
X128739537Y-58890135D01*
X128739535Y-58890138D01*
X128696680Y-58964362D01*
X128689237Y-58992146D01*
X128674500Y-59047145D01*
X128674500Y-59591630D01*
X128654815Y-59658669D01*
X128602011Y-59704424D01*
X128532853Y-59714368D01*
X128469297Y-59685343D01*
X128454647Y-59670295D01*
X128423120Y-59631879D01*
X128274582Y-59509977D01*
X128274575Y-59509973D01*
X128105118Y-59419396D01*
X128013172Y-59391505D01*
X127921231Y-59363615D01*
X127921229Y-59363614D01*
X127921231Y-59363614D01*
X127730000Y-59344780D01*
X127538770Y-59363614D01*
X127354881Y-59419396D01*
X127185424Y-59509973D01*
X127185417Y-59509977D01*
X127036879Y-59631879D01*
X127005353Y-59670295D01*
X126947607Y-59709629D01*
X126877763Y-59711500D01*
X126817995Y-59675312D01*
X126787279Y-59612557D01*
X126785500Y-59591630D01*
X126785500Y-59276188D01*
X126805185Y-59209149D01*
X126821815Y-59188511D01*
X127275353Y-58734972D01*
X127336674Y-58701489D01*
X127399027Y-58703994D01*
X127533132Y-58744675D01*
X127538766Y-58746384D01*
X127538768Y-58746385D01*
X127555914Y-58748073D01*
X127730000Y-58765220D01*
X127921231Y-58746385D01*
X128105114Y-58690605D01*
X128274581Y-58600023D01*
X128423120Y-58478120D01*
X128545023Y-58329581D01*
X128635605Y-58160114D01*
X128691385Y-57976231D01*
X128710220Y-57785000D01*
X128691385Y-57593769D01*
X128635605Y-57409886D01*
X128635603Y-57409883D01*
X128635603Y-57409881D01*
X128545026Y-57240424D01*
X128545022Y-57240417D01*
X128423120Y-57091879D01*
X128274582Y-56969977D01*
X128274575Y-56969973D01*
X128105118Y-56879396D01*
X128013172Y-56851505D01*
X127921231Y-56823615D01*
X127921229Y-56823614D01*
X127921231Y-56823614D01*
X127730000Y-56804780D01*
X127538770Y-56823614D01*
X127354881Y-56879396D01*
X127185424Y-56969973D01*
X127185417Y-56969977D01*
X127036879Y-57091879D01*
X126914977Y-57240417D01*
X126914973Y-57240424D01*
X126824396Y-57409881D01*
X126768614Y-57593770D01*
X126749780Y-57785000D01*
X126768614Y-57976229D01*
X126768615Y-57976231D01*
X126819192Y-58142963D01*
X126826164Y-58165944D01*
X126824413Y-58166475D01*
X126830954Y-58227419D01*
X126799668Y-58289893D01*
X126796609Y-58293062D01*
X126199537Y-58890135D01*
X126199535Y-58890138D01*
X126156680Y-58964362D01*
X126149237Y-58992146D01*
X126134500Y-59047145D01*
X126134500Y-59591630D01*
X126114815Y-59658669D01*
X126062011Y-59704424D01*
X125992853Y-59714368D01*
X125929297Y-59685343D01*
X125914647Y-59670295D01*
X125883120Y-59631879D01*
X125734582Y-59509977D01*
X125734575Y-59509973D01*
X125565118Y-59419396D01*
X125473172Y-59391505D01*
X125381231Y-59363615D01*
X125381229Y-59363614D01*
X125381231Y-59363614D01*
X125190000Y-59344780D01*
X124998770Y-59363614D01*
X124814881Y-59419396D01*
X124645424Y-59509973D01*
X124645417Y-59509977D01*
X124496879Y-59631879D01*
X124465353Y-59670295D01*
X124407607Y-59709629D01*
X124337763Y-59711500D01*
X124277995Y-59675312D01*
X124247279Y-59612557D01*
X124245500Y-59591630D01*
X124245500Y-59276188D01*
X124265185Y-59209149D01*
X124281815Y-59188511D01*
X124735353Y-58734972D01*
X124796674Y-58701489D01*
X124859027Y-58703994D01*
X124993132Y-58744675D01*
X124998766Y-58746384D01*
X124998768Y-58746385D01*
X125015914Y-58748073D01*
X125190000Y-58765220D01*
X125381231Y-58746385D01*
X125565114Y-58690605D01*
X125734581Y-58600023D01*
X125883120Y-58478120D01*
X126005023Y-58329581D01*
X126095605Y-58160114D01*
X126151385Y-57976231D01*
X126170220Y-57785000D01*
X126151385Y-57593769D01*
X126095605Y-57409886D01*
X126095603Y-57409883D01*
X126095603Y-57409881D01*
X126005026Y-57240424D01*
X126005022Y-57240417D01*
X125883120Y-57091879D01*
X125734582Y-56969977D01*
X125734575Y-56969973D01*
X125565118Y-56879396D01*
X125473172Y-56851505D01*
X125381231Y-56823615D01*
X125381229Y-56823614D01*
X125381231Y-56823614D01*
X125190000Y-56804780D01*
X124998770Y-56823614D01*
X124814881Y-56879396D01*
X124645424Y-56969973D01*
X124645417Y-56969977D01*
X124496879Y-57091879D01*
X124374977Y-57240417D01*
X124374973Y-57240424D01*
X124284396Y-57409881D01*
X124228614Y-57593770D01*
X124209780Y-57785000D01*
X124228614Y-57976229D01*
X124228615Y-57976231D01*
X124279192Y-58142963D01*
X124286164Y-58165944D01*
X124284413Y-58166475D01*
X124290954Y-58227419D01*
X124259668Y-58289893D01*
X124256609Y-58293062D01*
X123659537Y-58890135D01*
X123659535Y-58890138D01*
X123616680Y-58964362D01*
X123609237Y-58992146D01*
X123594500Y-59047145D01*
X123594500Y-59591630D01*
X123574815Y-59658669D01*
X123522011Y-59704424D01*
X123452853Y-59714368D01*
X123389297Y-59685343D01*
X123374647Y-59670295D01*
X123343120Y-59631879D01*
X123194582Y-59509977D01*
X123194575Y-59509973D01*
X123025118Y-59419396D01*
X122933172Y-59391505D01*
X122841231Y-59363615D01*
X122841229Y-59363614D01*
X122841231Y-59363614D01*
X122650000Y-59344780D01*
X122458770Y-59363614D01*
X122274881Y-59419396D01*
X122105424Y-59509973D01*
X122105417Y-59509977D01*
X121956879Y-59631879D01*
X121925353Y-59670295D01*
X121867607Y-59709629D01*
X121797763Y-59711500D01*
X121737995Y-59675312D01*
X121707279Y-59612557D01*
X121705500Y-59591630D01*
X121705500Y-59276188D01*
X121725185Y-59209149D01*
X121741815Y-59188511D01*
X122195353Y-58734972D01*
X122256674Y-58701489D01*
X122319027Y-58703994D01*
X122453132Y-58744675D01*
X122458766Y-58746384D01*
X122458768Y-58746385D01*
X122475914Y-58748073D01*
X122650000Y-58765220D01*
X122841231Y-58746385D01*
X123025114Y-58690605D01*
X123194581Y-58600023D01*
X123343120Y-58478120D01*
X123465023Y-58329581D01*
X123555605Y-58160114D01*
X123611385Y-57976231D01*
X123630220Y-57785000D01*
X123611385Y-57593769D01*
X123555605Y-57409886D01*
X123555603Y-57409883D01*
X123555603Y-57409881D01*
X123465026Y-57240424D01*
X123465022Y-57240417D01*
X123343120Y-57091879D01*
X123194582Y-56969977D01*
X123194575Y-56969973D01*
X123025118Y-56879396D01*
X122933172Y-56851505D01*
X122841231Y-56823615D01*
X122841229Y-56823614D01*
X122841231Y-56823614D01*
X122650000Y-56804780D01*
X122458770Y-56823614D01*
X122274881Y-56879396D01*
X122105424Y-56969973D01*
X122105417Y-56969977D01*
X121956879Y-57091879D01*
X121834977Y-57240417D01*
X121834973Y-57240424D01*
X121744396Y-57409881D01*
X121688614Y-57593770D01*
X121669780Y-57785000D01*
X121688614Y-57976229D01*
X121688615Y-57976231D01*
X121739192Y-58142963D01*
X121746164Y-58165944D01*
X121744413Y-58166475D01*
X121750954Y-58227419D01*
X121719668Y-58289893D01*
X121716609Y-58293062D01*
X121119537Y-58890135D01*
X121119535Y-58890138D01*
X121076680Y-58964362D01*
X121069237Y-58992146D01*
X121054500Y-59047145D01*
X121054500Y-59591630D01*
X121034815Y-59658669D01*
X120982011Y-59704424D01*
X120912853Y-59714368D01*
X120849297Y-59685343D01*
X120834647Y-59670295D01*
X120803120Y-59631879D01*
X120654582Y-59509977D01*
X120654575Y-59509973D01*
X120485118Y-59419396D01*
X120393172Y-59391505D01*
X120301231Y-59363615D01*
X120301229Y-59363614D01*
X120301231Y-59363614D01*
X120110000Y-59344780D01*
X119918770Y-59363614D01*
X119734881Y-59419396D01*
X119565424Y-59509973D01*
X119565417Y-59509977D01*
X119416879Y-59631879D01*
X119385353Y-59670295D01*
X119327607Y-59709629D01*
X119257763Y-59711500D01*
X119197995Y-59675312D01*
X119167279Y-59612557D01*
X119165500Y-59591630D01*
X119165500Y-59276188D01*
X119185185Y-59209149D01*
X119201815Y-59188511D01*
X119655353Y-58734972D01*
X119716674Y-58701489D01*
X119779027Y-58703994D01*
X119913132Y-58744675D01*
X119918766Y-58746384D01*
X119918768Y-58746385D01*
X119935914Y-58748073D01*
X120110000Y-58765220D01*
X120301231Y-58746385D01*
X120485114Y-58690605D01*
X120654581Y-58600023D01*
X120803120Y-58478120D01*
X120925023Y-58329581D01*
X121015605Y-58160114D01*
X121071385Y-57976231D01*
X121090220Y-57785000D01*
X121071385Y-57593769D01*
X121015605Y-57409886D01*
X121015603Y-57409883D01*
X121015603Y-57409881D01*
X120925026Y-57240424D01*
X120925022Y-57240417D01*
X120803120Y-57091879D01*
X120654582Y-56969977D01*
X120654575Y-56969973D01*
X120485118Y-56879396D01*
X120393172Y-56851505D01*
X120301231Y-56823615D01*
X120301229Y-56823614D01*
X120301231Y-56823614D01*
X120110000Y-56804780D01*
X119918770Y-56823614D01*
X119734881Y-56879396D01*
X119565424Y-56969973D01*
X119565417Y-56969977D01*
X119416879Y-57091879D01*
X119294977Y-57240417D01*
X119294973Y-57240424D01*
X119204396Y-57409881D01*
X119148614Y-57593770D01*
X119129780Y-57785000D01*
X119148614Y-57976229D01*
X119148615Y-57976231D01*
X119199192Y-58142963D01*
X119206164Y-58165944D01*
X119204413Y-58166475D01*
X119210954Y-58227419D01*
X119179668Y-58289893D01*
X119176609Y-58293062D01*
X118579537Y-58890135D01*
X118579535Y-58890138D01*
X118536680Y-58964362D01*
X118529237Y-58992146D01*
X118514500Y-59047145D01*
X118514500Y-59591630D01*
X118494815Y-59658669D01*
X118442011Y-59704424D01*
X118372853Y-59714368D01*
X118309297Y-59685343D01*
X118294647Y-59670295D01*
X118263120Y-59631879D01*
X118114582Y-59509977D01*
X118114575Y-59509973D01*
X117945118Y-59419396D01*
X117853172Y-59391505D01*
X117761231Y-59363615D01*
X117761229Y-59363614D01*
X117761231Y-59363614D01*
X117570000Y-59344780D01*
X117378770Y-59363614D01*
X117194881Y-59419396D01*
X117025424Y-59509973D01*
X117025417Y-59509977D01*
X116876879Y-59631879D01*
X116845353Y-59670295D01*
X116787607Y-59709629D01*
X116717763Y-59711500D01*
X116657995Y-59675312D01*
X116627279Y-59612557D01*
X116625500Y-59591630D01*
X116625500Y-59276188D01*
X116645185Y-59209149D01*
X116661815Y-59188511D01*
X117115353Y-58734972D01*
X117176674Y-58701489D01*
X117239027Y-58703994D01*
X117373132Y-58744675D01*
X117378766Y-58746384D01*
X117378768Y-58746385D01*
X117395914Y-58748073D01*
X117570000Y-58765220D01*
X117761231Y-58746385D01*
X117945114Y-58690605D01*
X118114581Y-58600023D01*
X118263120Y-58478120D01*
X118385023Y-58329581D01*
X118475605Y-58160114D01*
X118531385Y-57976231D01*
X118550220Y-57785000D01*
X118531385Y-57593769D01*
X118475605Y-57409886D01*
X118475603Y-57409883D01*
X118475603Y-57409881D01*
X118385026Y-57240424D01*
X118385022Y-57240417D01*
X118263120Y-57091879D01*
X118114582Y-56969977D01*
X118114575Y-56969973D01*
X117945118Y-56879396D01*
X117853172Y-56851505D01*
X117761231Y-56823615D01*
X117761229Y-56823614D01*
X117761231Y-56823614D01*
X117570000Y-56804780D01*
X117378770Y-56823614D01*
X117194881Y-56879396D01*
X117025424Y-56969973D01*
X117025417Y-56969977D01*
X116876879Y-57091879D01*
X116754977Y-57240417D01*
X116754973Y-57240424D01*
X116664396Y-57409881D01*
X116608614Y-57593770D01*
X116589780Y-57785000D01*
X116608614Y-57976229D01*
X116608615Y-57976231D01*
X116659192Y-58142963D01*
X116666164Y-58165944D01*
X116664413Y-58166475D01*
X116670954Y-58227419D01*
X116639668Y-58289893D01*
X116636609Y-58293062D01*
X116039537Y-58890135D01*
X116039535Y-58890138D01*
X115996680Y-58964362D01*
X115989237Y-58992146D01*
X115974500Y-59047145D01*
X115974500Y-59591630D01*
X115954815Y-59658669D01*
X115902011Y-59704424D01*
X115832853Y-59714368D01*
X115769297Y-59685343D01*
X115754647Y-59670295D01*
X115723120Y-59631879D01*
X115574582Y-59509977D01*
X115574575Y-59509973D01*
X115405118Y-59419396D01*
X115313172Y-59391505D01*
X115221231Y-59363615D01*
X115221229Y-59363614D01*
X115221231Y-59363614D01*
X115030000Y-59344780D01*
X114838770Y-59363614D01*
X114654881Y-59419396D01*
X114485424Y-59509973D01*
X114485417Y-59509977D01*
X114336879Y-59631879D01*
X114305353Y-59670295D01*
X114247607Y-59709629D01*
X114177763Y-59711500D01*
X114117995Y-59675312D01*
X114087279Y-59612557D01*
X114085500Y-59591630D01*
X114085500Y-59276188D01*
X114105185Y-59209149D01*
X114121815Y-59188511D01*
X114575353Y-58734972D01*
X114636674Y-58701489D01*
X114699027Y-58703994D01*
X114833132Y-58744675D01*
X114838766Y-58746384D01*
X114838768Y-58746385D01*
X114855914Y-58748073D01*
X115030000Y-58765220D01*
X115221231Y-58746385D01*
X115405114Y-58690605D01*
X115574581Y-58600023D01*
X115723120Y-58478120D01*
X115845023Y-58329581D01*
X115935605Y-58160114D01*
X115991385Y-57976231D01*
X116010220Y-57785000D01*
X115991385Y-57593769D01*
X115935605Y-57409886D01*
X115935603Y-57409883D01*
X115935603Y-57409881D01*
X115845026Y-57240424D01*
X115845022Y-57240417D01*
X115723120Y-57091879D01*
X115574582Y-56969977D01*
X115574575Y-56969973D01*
X115405118Y-56879396D01*
X115313172Y-56851505D01*
X115221231Y-56823615D01*
X115221229Y-56823614D01*
X115221231Y-56823614D01*
X115030000Y-56804780D01*
X114838770Y-56823614D01*
X114654881Y-56879396D01*
X114485424Y-56969973D01*
X114485417Y-56969977D01*
X114336879Y-57091879D01*
X114214977Y-57240417D01*
X114214973Y-57240424D01*
X114124396Y-57409881D01*
X114068614Y-57593770D01*
X114049780Y-57785000D01*
X114068614Y-57976229D01*
X114068615Y-57976231D01*
X114119192Y-58142963D01*
X114126164Y-58165944D01*
X114124413Y-58166475D01*
X114130954Y-58227419D01*
X114099668Y-58289893D01*
X114096609Y-58293062D01*
X113499537Y-58890135D01*
X113499535Y-58890138D01*
X113456680Y-58964362D01*
X113449237Y-58992146D01*
X113434500Y-59047145D01*
X113434500Y-59591630D01*
X113414815Y-59658669D01*
X113362011Y-59704424D01*
X113292853Y-59714368D01*
X113229297Y-59685343D01*
X113214647Y-59670295D01*
X113183120Y-59631879D01*
X113034582Y-59509977D01*
X113034575Y-59509973D01*
X112865118Y-59419396D01*
X112773172Y-59391505D01*
X112681231Y-59363615D01*
X112681229Y-59363614D01*
X112681231Y-59363614D01*
X112490000Y-59344780D01*
X112298770Y-59363614D01*
X112114881Y-59419396D01*
X111945424Y-59509973D01*
X111945417Y-59509977D01*
X111796879Y-59631879D01*
X111765353Y-59670295D01*
X111707607Y-59709629D01*
X111637763Y-59711500D01*
X111577995Y-59675312D01*
X111547279Y-59612557D01*
X111545500Y-59591630D01*
X111545500Y-59276188D01*
X111565185Y-59209149D01*
X111581815Y-59188511D01*
X112035353Y-58734972D01*
X112096674Y-58701489D01*
X112159027Y-58703994D01*
X112293132Y-58744675D01*
X112298766Y-58746384D01*
X112298768Y-58746385D01*
X112315914Y-58748073D01*
X112490000Y-58765220D01*
X112681231Y-58746385D01*
X112865114Y-58690605D01*
X113034581Y-58600023D01*
X113183120Y-58478120D01*
X113305023Y-58329581D01*
X113395605Y-58160114D01*
X113451385Y-57976231D01*
X113470220Y-57785000D01*
X113451385Y-57593769D01*
X113395605Y-57409886D01*
X113395603Y-57409883D01*
X113395603Y-57409881D01*
X113305026Y-57240424D01*
X113305022Y-57240417D01*
X113183120Y-57091879D01*
X113034582Y-56969977D01*
X113034575Y-56969973D01*
X112865118Y-56879396D01*
X112773172Y-56851505D01*
X112681231Y-56823615D01*
X112681229Y-56823614D01*
X112681231Y-56823614D01*
X112490000Y-56804780D01*
X112298770Y-56823614D01*
X112114881Y-56879396D01*
X111945424Y-56969973D01*
X111945417Y-56969977D01*
X111796879Y-57091879D01*
X111674977Y-57240417D01*
X111674973Y-57240424D01*
X111584396Y-57409881D01*
X111528614Y-57593770D01*
X111509780Y-57785000D01*
X111528614Y-57976229D01*
X111528615Y-57976231D01*
X111579192Y-58142963D01*
X111586164Y-58165944D01*
X111584413Y-58166475D01*
X111590954Y-58227419D01*
X111559668Y-58289893D01*
X111556609Y-58293062D01*
X110959537Y-58890135D01*
X110959535Y-58890138D01*
X110916680Y-58964362D01*
X110909237Y-58992146D01*
X110894500Y-59047145D01*
X110894500Y-59591630D01*
X110874815Y-59658669D01*
X110822011Y-59704424D01*
X110752853Y-59714368D01*
X110689297Y-59685343D01*
X110674647Y-59670295D01*
X110643120Y-59631879D01*
X110494582Y-59509977D01*
X110494575Y-59509973D01*
X110325118Y-59419396D01*
X110233172Y-59391505D01*
X110141231Y-59363615D01*
X110141229Y-59363614D01*
X110141231Y-59363614D01*
X109950000Y-59344780D01*
X109758770Y-59363614D01*
X109574881Y-59419396D01*
X109405424Y-59509973D01*
X109405417Y-59509977D01*
X109256879Y-59631879D01*
X109225353Y-59670295D01*
X109167607Y-59709629D01*
X109097763Y-59711500D01*
X109037995Y-59675312D01*
X109007279Y-59612557D01*
X109005500Y-59591630D01*
X109005500Y-59276188D01*
X109025185Y-59209149D01*
X109041815Y-59188511D01*
X109495353Y-58734972D01*
X109556674Y-58701489D01*
X109619027Y-58703994D01*
X109753132Y-58744675D01*
X109758766Y-58746384D01*
X109758768Y-58746385D01*
X109775914Y-58748073D01*
X109950000Y-58765220D01*
X110141231Y-58746385D01*
X110325114Y-58690605D01*
X110494581Y-58600023D01*
X110643120Y-58478120D01*
X110765023Y-58329581D01*
X110855605Y-58160114D01*
X110911385Y-57976231D01*
X110930220Y-57785000D01*
X110911385Y-57593769D01*
X110855605Y-57409886D01*
X110855603Y-57409883D01*
X110855603Y-57409881D01*
X110765026Y-57240424D01*
X110765022Y-57240417D01*
X110643120Y-57091879D01*
X110494582Y-56969977D01*
X110494575Y-56969973D01*
X110325118Y-56879396D01*
X110233172Y-56851505D01*
X110141231Y-56823615D01*
X110141229Y-56823614D01*
X110141231Y-56823614D01*
X109950000Y-56804780D01*
X109758770Y-56823614D01*
X109574881Y-56879396D01*
X109405424Y-56969973D01*
X109405417Y-56969977D01*
X109256879Y-57091879D01*
X109134977Y-57240417D01*
X109134973Y-57240424D01*
X109044396Y-57409881D01*
X108988614Y-57593770D01*
X108969780Y-57785000D01*
X108988614Y-57976229D01*
X108988615Y-57976231D01*
X109039192Y-58142963D01*
X109046164Y-58165944D01*
X109044413Y-58166475D01*
X109050954Y-58227419D01*
X109019668Y-58289893D01*
X109016609Y-58293062D01*
X108419537Y-58890135D01*
X108419535Y-58890138D01*
X108376680Y-58964362D01*
X108369237Y-58992146D01*
X108354500Y-59047145D01*
X108354500Y-59591630D01*
X108334815Y-59658669D01*
X108282011Y-59704424D01*
X108212853Y-59714368D01*
X108149297Y-59685343D01*
X108134647Y-59670295D01*
X108103120Y-59631879D01*
X107954582Y-59509977D01*
X107954575Y-59509973D01*
X107785118Y-59419396D01*
X107693172Y-59391505D01*
X107601231Y-59363615D01*
X107601229Y-59363614D01*
X107601231Y-59363614D01*
X107410000Y-59344780D01*
X107218770Y-59363614D01*
X107034881Y-59419396D01*
X106865424Y-59509973D01*
X106865417Y-59509977D01*
X106716879Y-59631879D01*
X106685353Y-59670295D01*
X106627607Y-59709629D01*
X106557763Y-59711500D01*
X106497995Y-59675312D01*
X106467279Y-59612557D01*
X106465500Y-59591630D01*
X106465500Y-59276188D01*
X106485185Y-59209149D01*
X106501815Y-59188511D01*
X106955353Y-58734972D01*
X107016674Y-58701489D01*
X107079027Y-58703994D01*
X107213132Y-58744675D01*
X107218766Y-58746384D01*
X107218768Y-58746385D01*
X107235914Y-58748073D01*
X107410000Y-58765220D01*
X107601231Y-58746385D01*
X107785114Y-58690605D01*
X107954581Y-58600023D01*
X108103120Y-58478120D01*
X108225023Y-58329581D01*
X108315605Y-58160114D01*
X108371385Y-57976231D01*
X108390220Y-57785000D01*
X108371385Y-57593769D01*
X108315605Y-57409886D01*
X108315603Y-57409883D01*
X108315603Y-57409881D01*
X108225026Y-57240424D01*
X108225022Y-57240417D01*
X108103120Y-57091879D01*
X107954582Y-56969977D01*
X107954575Y-56969973D01*
X107785118Y-56879396D01*
X107693172Y-56851505D01*
X107601231Y-56823615D01*
X107601229Y-56823614D01*
X107601231Y-56823614D01*
X107410000Y-56804780D01*
X107218770Y-56823614D01*
X107034881Y-56879396D01*
X106865424Y-56969973D01*
X106865417Y-56969977D01*
X106716879Y-57091879D01*
X106594977Y-57240417D01*
X106594973Y-57240424D01*
X106504396Y-57409881D01*
X106448614Y-57593770D01*
X106429780Y-57785000D01*
X106448614Y-57976229D01*
X106448615Y-57976231D01*
X106499192Y-58142963D01*
X106506164Y-58165944D01*
X106504413Y-58166475D01*
X106510954Y-58227419D01*
X106479668Y-58289893D01*
X106476609Y-58293062D01*
X105879537Y-58890135D01*
X105879535Y-58890138D01*
X105836680Y-58964362D01*
X105829237Y-58992146D01*
X105814500Y-59047145D01*
X105814500Y-59591630D01*
X105794815Y-59658669D01*
X105742011Y-59704424D01*
X105672853Y-59714368D01*
X105609297Y-59685343D01*
X105594647Y-59670295D01*
X105563120Y-59631879D01*
X105414582Y-59509977D01*
X105414575Y-59509973D01*
X105245118Y-59419396D01*
X105153172Y-59391505D01*
X105061231Y-59363615D01*
X105061229Y-59363614D01*
X105061231Y-59363614D01*
X104870000Y-59344780D01*
X104678770Y-59363614D01*
X104494881Y-59419396D01*
X104325424Y-59509973D01*
X104325417Y-59509977D01*
X104176877Y-59631881D01*
X104165351Y-59645926D01*
X104107604Y-59685259D01*
X104037760Y-59687128D01*
X103977992Y-59650939D01*
X103947278Y-59588182D01*
X103945500Y-59567259D01*
X103945500Y-59221188D01*
X103965185Y-59154149D01*
X103981815Y-59133511D01*
X104388499Y-58726826D01*
X104449820Y-58693343D01*
X104512169Y-58695847D01*
X104678769Y-58746385D01*
X104870000Y-58765220D01*
X105061231Y-58746385D01*
X105245114Y-58690605D01*
X105414581Y-58600023D01*
X105563120Y-58478120D01*
X105685023Y-58329581D01*
X105775605Y-58160114D01*
X105831385Y-57976231D01*
X105850220Y-57785000D01*
X105831385Y-57593769D01*
X105775605Y-57409886D01*
X105775603Y-57409883D01*
X105775603Y-57409881D01*
X105685026Y-57240424D01*
X105685022Y-57240417D01*
X105563120Y-57091879D01*
X105414582Y-56969977D01*
X105414575Y-56969973D01*
X105245118Y-56879396D01*
X105153172Y-56851505D01*
X105061231Y-56823615D01*
X105061229Y-56823614D01*
X105061231Y-56823614D01*
X104870000Y-56804780D01*
X104678770Y-56823614D01*
X104494881Y-56879396D01*
X104325424Y-56969973D01*
X104325417Y-56969977D01*
X104176879Y-57091879D01*
X104054977Y-57240417D01*
X104054973Y-57240424D01*
X103964396Y-57409881D01*
X103908614Y-57593770D01*
X103889780Y-57785000D01*
X103908614Y-57976227D01*
X103908614Y-57976229D01*
X103908615Y-57976231D01*
X103959151Y-58142826D01*
X103959774Y-58212690D01*
X103928171Y-58266500D01*
X103359537Y-58835135D01*
X103359533Y-58835141D01*
X103316681Y-58909361D01*
X103308627Y-58939423D01*
X103308627Y-58939424D01*
X103308627Y-58939425D01*
X103294501Y-58992146D01*
X103294500Y-58992148D01*
X103294500Y-59616000D01*
X103274815Y-59683039D01*
X103222011Y-59728794D01*
X103152853Y-59738738D01*
X103089297Y-59709713D01*
X103074647Y-59694665D01*
X103023120Y-59631879D01*
X102950835Y-59572556D01*
X102911501Y-59514810D01*
X102905500Y-59476703D01*
X102905500Y-58633295D01*
X102925185Y-58566256D01*
X102950833Y-58537443D01*
X103023120Y-58478120D01*
X103145023Y-58329581D01*
X103235605Y-58160114D01*
X103291385Y-57976231D01*
X103310220Y-57785000D01*
X103291385Y-57593769D01*
X103235605Y-57409886D01*
X103235603Y-57409883D01*
X103235603Y-57409881D01*
X103145026Y-57240424D01*
X103145022Y-57240417D01*
X103023120Y-57091879D01*
X102874582Y-56969977D01*
X102874575Y-56969973D01*
X102705118Y-56879396D01*
X102613172Y-56851505D01*
X102521231Y-56823615D01*
X102521229Y-56823614D01*
X102521231Y-56823614D01*
X102330000Y-56804780D01*
X102138770Y-56823614D01*
X101954881Y-56879396D01*
X101785424Y-56969973D01*
X101785417Y-56969977D01*
X101636879Y-57091879D01*
X101514977Y-57240417D01*
X101514973Y-57240424D01*
X101424396Y-57409881D01*
X101368614Y-57593770D01*
X101349780Y-57785000D01*
X101368614Y-57976229D01*
X101424396Y-58160118D01*
X101514973Y-58329575D01*
X101514977Y-58329582D01*
X101624223Y-58462698D01*
X101636880Y-58478120D01*
X101709165Y-58537442D01*
X101748499Y-58595186D01*
X101754500Y-58633295D01*
X101754500Y-59476703D01*
X101734815Y-59543742D01*
X101709165Y-59572556D01*
X101636879Y-59631879D01*
X101514977Y-59780417D01*
X101514973Y-59780424D01*
X101424396Y-59949881D01*
X101368614Y-60133770D01*
X101349780Y-60325000D01*
X101368614Y-60516229D01*
X101424396Y-60700118D01*
X101514973Y-60869575D01*
X101514977Y-60869582D01*
X101636879Y-61018120D01*
X101785417Y-61140022D01*
X101785424Y-61140026D01*
X101954881Y-61230603D01*
X101954883Y-61230603D01*
X101954886Y-61230605D01*
X102138769Y-61286385D01*
X102138768Y-61286385D01*
X102155914Y-61288073D01*
X102330000Y-61305220D01*
X102521231Y-61286385D01*
X102705114Y-61230605D01*
X102721047Y-61222089D01*
X102874575Y-61140026D01*
X102874579Y-61140024D01*
X102874581Y-61140023D01*
X103023120Y-61018120D01*
X103074646Y-60955334D01*
X103132392Y-60916000D01*
X103202236Y-60914129D01*
X103262005Y-60950316D01*
X103292721Y-61013072D01*
X103294500Y-61033999D01*
X103294500Y-65977852D01*
X103316682Y-66060640D01*
X103333078Y-66089037D01*
X103359535Y-66134862D01*
X103359537Y-66134864D01*
X104321992Y-67097319D01*
X104355477Y-67158642D01*
X104350493Y-67228334D01*
X104321992Y-67272681D01*
X103339537Y-68255135D01*
X103339533Y-68255141D01*
X103296681Y-68329361D01*
X103296682Y-68329362D01*
X103274500Y-68412147D01*
X103274500Y-79923815D01*
X103254815Y-79990854D01*
X103202011Y-80036609D01*
X103132853Y-80046553D01*
X103069297Y-80017528D01*
X103054647Y-80002480D01*
X103013120Y-79951879D01*
X102864582Y-79829977D01*
X102864575Y-79829973D01*
X102695118Y-79739396D01*
X102588209Y-79706966D01*
X102511231Y-79683615D01*
X102511229Y-79683614D01*
X102511231Y-79683614D01*
X102320000Y-79664780D01*
X102128770Y-79683614D01*
X101944881Y-79739396D01*
X101775424Y-79829973D01*
X101775417Y-79829977D01*
X101626879Y-79951879D01*
X101504977Y-80100417D01*
X101504973Y-80100424D01*
X101414396Y-80269881D01*
X101358614Y-80453770D01*
X101339780Y-80645000D01*
X101358614Y-80836229D01*
X101414396Y-81020118D01*
X101504973Y-81189575D01*
X101504977Y-81189582D01*
X101604894Y-81311330D01*
X101626880Y-81338120D01*
X101699165Y-81397442D01*
X101738499Y-81455186D01*
X101744500Y-81493295D01*
X101744500Y-82336703D01*
X101724815Y-82403742D01*
X101699165Y-82432556D01*
X101626879Y-82491879D01*
X101504977Y-82640417D01*
X101504973Y-82640424D01*
X101414396Y-82809881D01*
X101358614Y-82993770D01*
X101339780Y-83185000D01*
X100695500Y-83185000D01*
X100695500Y-66171187D01*
X100715185Y-66104148D01*
X100731815Y-66083510D01*
X101348315Y-65467009D01*
X101409636Y-65433526D01*
X101452180Y-65431753D01*
X101519999Y-65440682D01*
X101520000Y-65440682D01*
X101520001Y-65440682D01*
X101572254Y-65433802D01*
X101676762Y-65420044D01*
X101822841Y-65359536D01*
X101948282Y-65263282D01*
X102044536Y-65137841D01*
X102105044Y-64991762D01*
X102125682Y-64835000D01*
X102105044Y-64678238D01*
X102044536Y-64532159D01*
X101948282Y-64406718D01*
X101822841Y-64310464D01*
X101816274Y-64307744D01*
X101676762Y-64249956D01*
X101676760Y-64249955D01*
X101520001Y-64229318D01*
X101519999Y-64229318D01*
X101363239Y-64249955D01*
X101363237Y-64249956D01*
X101217160Y-64310463D01*
X101091718Y-64406718D01*
X100995463Y-64532160D01*
X100934956Y-64678237D01*
X100934955Y-64678239D01*
X100914318Y-64834998D01*
X100914318Y-64835001D01*
X100923246Y-64902818D01*
X100912480Y-64971853D01*
X100887988Y-65006684D01*
X100457181Y-65437492D01*
X100395858Y-65470977D01*
X100326167Y-65465993D01*
X100270233Y-65424122D01*
X100245816Y-65358657D01*
X100245500Y-65349811D01*
X100245500Y-56671187D01*
X100265185Y-56604148D01*
X100281815Y-56583510D01*
X100959652Y-55905672D01*
X100959657Y-55905669D01*
X100969860Y-55895465D01*
X100969862Y-55895465D01*
X101030465Y-55834862D01*
X101052129Y-55797339D01*
X101066470Y-55772500D01*
X101117037Y-55724284D01*
X101173857Y-55710500D01*
X106777147Y-55710500D01*
X114027147Y-55710500D01*
X117794639Y-55710500D01*
X117861678Y-55730185D01*
X117907433Y-55782989D01*
X117909198Y-55787043D01*
X117913464Y-55797341D01*
X118009718Y-55922782D01*
X118135159Y-56019036D01*
X118281238Y-56079544D01*
X118359619Y-56089863D01*
X118437999Y-56100182D01*
X118438000Y-56100182D01*
X118438001Y-56100182D01*
X118490254Y-56093302D01*
X118594762Y-56079544D01*
X118740841Y-56019036D01*
X118866282Y-55922782D01*
X118962536Y-55797341D01*
X119023044Y-55651262D01*
X119043682Y-55494500D01*
X119023044Y-55337738D01*
X118962536Y-55191659D01*
X118866282Y-55066218D01*
X118740841Y-54969964D01*
X118594762Y-54909456D01*
X118594760Y-54909455D01*
X118438001Y-54888818D01*
X118437999Y-54888818D01*
X118281239Y-54909455D01*
X118281237Y-54909456D01*
X118135157Y-54969964D01*
X118051867Y-55033876D01*
X117986698Y-55059070D01*
X117976381Y-55059500D01*
X100877147Y-55059500D01*
X100794359Y-55081682D01*
X100720138Y-55124535D01*
X100720135Y-55124537D01*
X100509537Y-55335135D01*
X100509533Y-55335141D01*
X100466681Y-55409361D01*
X100466681Y-55409363D01*
X100454420Y-55455123D01*
X100450161Y-55471019D01*
X100418067Y-55526605D01*
X99659537Y-56285135D01*
X99659533Y-56285141D01*
X99616681Y-56359361D01*
X99616682Y-56359362D01*
X99594500Y-56442147D01*
X99594500Y-83927852D01*
X92805000Y-83927852D01*
X92805000Y-52829000D01*
X92824685Y-52761961D01*
X92877489Y-52716206D01*
X92929000Y-52705000D01*
X190471000Y-52705000D01*
X190538039Y-52724685D01*
G37*
%TD.AperFunction*%
%TD*%
M02*
