M48
; DRILL file {KiCad 8.0.1} date 2025-01-20T18:27:22+0100
; FORMAT={-:-/ absolute / metric / decimal}
; #@! TF.CreationDate,2025-01-20T18:27:22+01:00
; #@! TF.GenerationSoftware,Kicad,Pcbnew,8.0.1
; #@! TF.FileFunction,Plated,1,2,PTH
FMAT,2
METRIC
; #@! TA.AperFunction,Plated,PTH,ViaDrill
T1C0.400
; #@! TA.AperFunction,Plated,PTH,ViaDrill
T2C0.500
; #@! TA.AperFunction,Plated,PTH,ComponentDrill
T3C1.000
%
G90
G05
T1
X95.52Y-74.135
X95.77Y-66.935
X97.32Y-81.135
X98.12Y-59.285
X101.52Y-64.835
X103.37Y-86.985
X105.17Y-54.135
X111.92Y-87.185
X113.67Y-86.335
X115.82Y-54.035
X118.438Y-55.494
X122.62Y-87.185
X128.22Y-53.885
X129.373Y-79.337
X131.07Y-56.285
X131.475Y-75.558
X132.62Y-87.185
X134.08Y-66.572
X136.62Y-66.909
X136.67Y-56.285
X138.067Y-85.114
X139.149Y-66.246
X140.52Y-53.885
X140.641Y-85.156
X142.32Y-87.185
X146.82Y-68.185
X149.074Y-55.986
X149.32Y-73.935
X152.02Y-87.185
X154.82Y-53.885
X155.67Y-74.485
X156.468Y-73.025
X156.92Y-77.4
X159.47Y-71.685
X161.72Y-87.185
X162.044Y-70.485
X163.06Y-66.432
X164.67Y-73.035
X165.52Y-53.935
X168.42Y-75.785
X169.137Y-85.063
X170.32Y-56.185
X170.915Y-75.685
X171.42Y-87.185
X176.37Y-53.985
X180.1Y-74.435
X180.47Y-62.685
X181.12Y-87.185
X183.27Y-78.585
X184.846Y-58.211
X185.17Y-74.435
X185.87Y-81.185
X187.42Y-60.835
X188.22Y-71.67
T2
X103.12Y-67.185
X188.22Y-69.67
X188.27Y-64.535
T3
X102.32Y-80.645
X102.32Y-83.185
X102.33Y-57.785
X102.33Y-60.325
X104.86Y-80.645
X104.86Y-83.185
X104.87Y-57.785
X104.87Y-60.325
X107.4Y-80.645
X107.4Y-83.185
X107.41Y-57.785
X107.41Y-60.325
X109.415Y-76.885
X109.94Y-80.645
X109.94Y-83.185
X109.95Y-57.785
X109.95Y-60.325
X111.955Y-76.885
X112.48Y-80.645
X112.48Y-83.185
X112.49Y-57.785
X112.49Y-60.325
X114.495Y-76.885
X115.02Y-80.645
X115.02Y-83.185
X115.03Y-57.785
X115.03Y-60.325
X117.56Y-80.645
X117.56Y-83.185
X117.57Y-57.785
X117.57Y-60.325
X120.1Y-80.645
X120.1Y-83.185
X120.11Y-57.785
X120.11Y-60.325
X122.64Y-80.645
X122.64Y-83.185
X122.65Y-57.785
X122.65Y-60.325
X125.18Y-80.645
X125.18Y-83.185
X125.19Y-57.785
X125.19Y-60.325
X127.72Y-80.645
X127.72Y-83.185
X127.73Y-57.785
X127.73Y-60.325
X130.26Y-80.645
X130.26Y-83.185
X130.27Y-57.785
X130.27Y-60.325
X132.8Y-80.645
X132.8Y-83.185
X132.81Y-57.785
X132.81Y-60.325
X135.34Y-80.645
X135.34Y-83.185
X135.35Y-57.785
X135.35Y-60.325
X137.88Y-80.645
X137.88Y-83.185
X137.89Y-57.785
X137.89Y-60.325
X140.42Y-80.645
X140.42Y-83.185
X140.43Y-57.785
X140.43Y-60.325
X142.96Y-80.645
X142.96Y-83.185
X142.97Y-57.785
X142.97Y-60.325
X145.5Y-80.645
X145.5Y-83.185
X145.51Y-57.785
X145.51Y-60.325
X148.04Y-80.645
X148.04Y-83.185
X148.05Y-57.785
X148.05Y-60.325
X150.58Y-80.645
X150.58Y-83.185
X150.59Y-57.785
X150.59Y-60.325
X153.12Y-80.645
X153.12Y-83.185
X153.13Y-57.785
X153.13Y-60.325
X155.66Y-80.645
X155.66Y-83.185
X155.67Y-57.785
X155.67Y-60.325
X158.2Y-80.645
X158.2Y-83.185
X158.21Y-57.785
X158.21Y-60.325
X160.74Y-80.645
X160.74Y-83.185
X160.75Y-57.785
X160.75Y-60.325
X163.28Y-80.645
X163.28Y-83.185
X163.29Y-57.785
X163.29Y-60.325
X165.82Y-80.645
X165.82Y-83.185
X165.83Y-57.785
X165.83Y-60.325
X168.36Y-80.645
X168.36Y-83.185
X168.37Y-57.785
X168.37Y-60.325
X170.9Y-80.645
X170.9Y-83.185
X170.91Y-57.785
X170.91Y-60.325
X173.44Y-80.645
X173.44Y-83.185
X173.45Y-57.785
X173.45Y-60.325
X175.98Y-80.645
X175.98Y-83.185
X175.99Y-57.785
X175.99Y-60.325
X178.52Y-80.645
X178.52Y-83.185
X178.53Y-57.785
X178.53Y-60.325
X180.17Y-69.395
X180.17Y-71.935
X181.06Y-80.645
X181.06Y-83.185
X181.07Y-57.785
X181.07Y-60.325
X184.82Y-69.395
X184.82Y-71.935
M30
